<?xml version="1.0" encoding="utf-8"?>
<!-- Generator: Adobe Illustrator 24.0.1, SVG Export Plug-In . SVG Version: 6.00 Build 0)  -->
<svg version="1.1" xmlns="http://www.w3.org/2000/svg" xmlns:xlink="http://www.w3.org/1999/xlink" x="0px" y="0px"
	 viewBox="0 0 800 300" style="enable-background:new 0 0 800 300;" xml:space="preserve">
<style type="text/css">
	.st0{fill:url(#SVGID_1_);}
	.st1{fill:#CCCCCC;}
	.st2{fill:#EAEAEA;}
	.st3{fill:#BD0A0A;}
	.st4{fill:#FFFFFF;}
	.st5{fill:#6B6B6B;}
	.st6{fill:#725E4C;}
	.st7{fill:url(#SVGID_2_);}
	.st8{fill:url(#SVGID_3_);}
	.st9{opacity:0.21;}
	.st10{fill:#D88103;}
</style>
<g id="Layer_1">
	<g>
		<linearGradient id="SVGID_1_" gradientUnits="userSpaceOnUse" x1="400" y1="0" x2="400" y2="300">
			<stop  offset="9.587969e-02" style="stop-color:#FFFFFF"/>
			<stop  offset="0.2133" style="stop-color:#F4F4F4"/>
			<stop  offset="0.4229" style="stop-color:#D5D5D5"/>
			<stop  offset="0.7003" style="stop-color:#A3A3A3"/>
			<stop  offset="1" style="stop-color:#666666"/>
		</linearGradient>
		<path class="st0" d="M0,0v227.5c0.2,0.5,0.3,1.2,0.3,1.9v16.7c1.1,18,2,35.9,1.7,53.9h267.5c0.7-0.4,1.4-0.6,2.4-0.6
			c1.9-0.1,3.8,0.2,5.6,0.6H800V0H0z"/>
	</g>
	<g>
		<path class="st1" d="M802.2,224.8c0-0.6,0.1-1.2,0.3-1.7c-0.3-1.7-0.4-3.5-0.3-5.2c0.2-3.3,1.6-6.4,3-9.4
			c-0.6-9.8-1.3-19.5-1.1-29.3c-2.9,0.9-5.5,1.6-7.5,2.1c-20.2,4.4-40.4-9.1-59.9-1.9c-31.8,11.7-44.8,7.3-78.3,7.7
			c-18.5,0.2-46,16-64.4,17.3c-39.2,2.7-90.1-7-128.9,0c-28.5,5.2-53.6-13.8-82.3-10.7c-15.8,1.7-32.2-6.4-48.1-5.2
			c-43,3.2-81.2,27.5-123.7,19.9c-30.8-5.5-60-13-90.8-17.8c-30.5-4.7-38.2,13.6-69,13.8c-14.1,0.1-33.6-7.2-53-13.6
			c0,0.1,0,0.2,0,0.2c0,21.3,1.6,42.6,2.8,63.9c5.7,0.6,11.5,1.3,17.2,2c18,0,36.2-0.8,54,0.9c13.2-0.9,26.4-0.2,39.6,0.8
			c0.7-0.3,1.5-0.5,2.3-0.5c27.4,0.4,54.7,1.6,82,3c0.7-0.4,1.4-0.6,2.3-0.7c18.1-1.6,36.2-0.8,54.2,0.6c6.7-0.6,13.5-1.3,20.2-1.9
			c8.5-3.6,18.1-4.6,27.1-5.1c13.9-0.9,27.9,0.1,41.8,0.2c1.3,0,2.4,0.4,3.3,1c6.4-1.3,12.9-1.7,19.4-2c9.8-0.4,19.6-1,29.5-1.5
			c23-1.2,46-1.2,69-0.3c22.9,0.9,45.9,2.4,68.8,4.4c11.2,0.9,22.3,2.2,33.5,3.1c2.4,0.2,4.8,0.4,7.1,0.6c9.4-0.3,18.8-0.5,28.2-0.6
			c25.5-0.2,51,1.3,76.4,2.8c2.7,0,5.3,0,8,0.1c12.7-1.1,25.4-2.2,38.2-2.6c15.6-0.6,31.2-0.1,46.8,0.5c10.7-1.6,21.4-3.1,32.2-3.9
			C801.8,245.4,802.2,235,802.2,224.8z"/>
	</g>
	<g>
		<path class="st2" d="M802.2,225.6c-1.4,0.5-2.8,1-4.2,1.5c-9.4,3.3-19.4,2-29-0.7c-6.8-2-14.9-2.8-22.2-5.1
			c-25.9-8.1-47.8,15.1-65.7,11.1c-19.3-4.3-50.8,6-70.3,9.3c-47.1,7.9-89.6-13.3-141-13.6l-46.4,1.7
			c-34.6,1.3-127.7-17.3-189.1-0.6c-9.2,2.5-13.8,3.1-23.4,4.1c-7.1,0.7-16.8-5-23.9-6.2c-46.5-7.6-91.7-8-140.8,7.7
			c-15.2,4.9-30.8,3.3-46.4-0.4c0.9,16.1,2,32.1,2.3,48.2h800.2c0.1-1,0.3-2.1,0.5-3.1C801.1,261.7,802.1,243.4,802.2,225.6z"/>
	</g>
	<g>
		<rect x="461.1" y="235.3" class="st3" width="32.9" height="34.8"/>
		<g>
			<g>
				<path class="st4" d="M477.2,234.2c0,10,0,20,0,29.9c0,1,1.5,1,1.5,0c0-10,0-20,0-29.9C478.7,233.2,477.2,233.2,477.2,234.2
					L477.2,234.2z"/>
			</g>
		</g>
		<g>
			<g>
				<path class="st4" d="M460.7,254.7c11.1,0,22.2,0,33.3,0c1,0,1-1.5,0-1.5c-11.1,0-22.2,0-33.3,0
					C459.7,253.2,459.7,254.7,460.7,254.7L460.7,254.7z"/>
			</g>
		</g>
		<g>
			<g>
				<path class="st4" d="M478.2,233.6c-1.2-0.4-2.1-1.3-2.8-2.3c-0.4-0.6-0.6-1.3-0.8-2c-0.1-0.7-0.2-1.6,0.2-2.2
					c0.9-1.2,1.6,1.2,1.8,1.8c0.4,1.7,0.6,3.5,0.6,5.2c0,1,1.5,1,1.5,0c0.1-1.7,0.2-3.5,1.1-5c0.4-0.7,2.2-2.7,2.8-1.2
					c0.6,1.4-0.4,2.9-1.4,3.8c-1.3,1.1-2.9,1.6-4.2,2.7c-0.7,0.6,0.3,1.7,1.1,1.1c1.2-1,2.8-1.6,4-2.6c1.2-0.9,2-2.3,2.1-3.8
					c0.1-1.6-0.8-3.3-2.6-3.1c-1.5,0.2-2.6,1.4-3.3,2.6c-0.9,1.7-1.1,3.6-1.2,5.5c0.5,0,1,0,1.5,0c0-1.8-0.2-3.6-0.6-5.3
					c-0.3-1.3-0.8-3-2.2-3.5c-1.6-0.6-2.7,1.1-2.9,2.4c-0.2,1.5,0.3,3.2,1.1,4.4c0.8,1.3,2.1,2.4,3.6,2.8
					C478.7,235.3,479.1,233.9,478.2,233.6L478.2,233.6z"/>
			</g>
		</g>
		<g>
			<g>
				<path class="st4" d="M475.9,234.7c-1.7,1.6-3.4,3.2-5.1,4.8c-0.3,0.3-0.3,0.8,0,1.1c0.3,0.3,0.8,0.3,1.1,0
					c1.7-1.6,3.4-3.2,5.1-4.8c0.3-0.3,0.3-0.8,0-1.1C476.7,234.4,476.2,234.4,475.9,234.7L475.9,234.7z"/>
			</g>
		</g>
		<g>
			<g>
				<path class="st4" d="M477.3,235.9c2,1.4,4,3,5.8,4.6c0.3,0.3,0.8,0.3,1.1,0c0.3-0.3,0.3-0.8,0-1.1c-1.9-1.7-4-3.4-6.1-4.9
					c-0.3-0.2-0.8-0.1-1,0.3C476.8,235.2,476.9,235.7,477.3,235.9L477.3,235.9z"/>
			</g>
		</g>
	</g>
	<g>
		<rect x="392.6" y="220.3" class="st3" width="51.4" height="38.8"/>
		<g>
			<g>
				<path class="st4" d="M405.6,219.1c0,11.1,0,22.3,0,33.4c0,1,1.5,1,1.5,0c0-11.1,0-22.3,0-33.4
					C407.1,218.1,405.6,218.1,405.6,219.1L405.6,219.1z"/>
			</g>
		</g>
		<g>
			<g>
				<path class="st4" d="M392,241.9c17.3,0,34.6,0,52,0c1,0,1-1.5,0-1.5c-17.3,0-34.6,0-52,0C391.1,240.4,391.1,241.9,392,241.9
					L392,241.9z"/>
			</g>
		</g>
		<g>
			<g>
				<path class="st4" d="M406.7,218.5c-1.7-0.4-3.3-1.2-4.5-2.5c-1-1.1-2.2-3.3-1.1-4.7c1.3-1.6,2.9,0,3.5,1.4
					c0.8,2,1.2,4.2,1.2,6.3c0,1,1.4,1,1.5,0c0.1-2.1,0.5-4.2,2-5.8c0.6-0.7,1.4-1.2,2.3-1.5c0.9-0.3,2.2-0.5,2.8,0.5
					c1.1,1.8-1.3,3.7-2.7,4.4c-1.9,1-4.1,1.6-6,2.7c-0.8,0.5-0.1,1.8,0.8,1.3c1.9-1.2,4.1-1.7,6.1-2.8c1.6-0.9,3.2-2.3,3.5-4.3
					c0.3-2-1.2-3.6-3.2-3.6c-1.9,0-3.7,1.1-4.9,2.5c-1.5,1.8-2,4.2-2.1,6.5c0.5,0,1,0,1.5,0c0-2.6-0.4-5.6-1.7-7.8
					c-1.2-1.9-3.6-2.8-5.4-1.1c-1.8,1.7-0.9,4.5,0.4,6.2c1.4,1.9,3.4,3.1,5.7,3.6C407.2,220.2,407.6,218.8,406.7,218.5L406.7,218.5z
					"/>
			</g>
		</g>
		<g>
			<g>
				<path class="st4" d="M403.7,219.6c-2.7,1.8-5.3,3.6-8,5.3c-0.8,0.5,0,1.8,0.8,1.3c2.7-1.8,5.3-3.6,8-5.3
					C405.3,220.4,404.5,219.1,403.7,219.6L403.7,219.6z"/>
			</g>
		</g>
		<g>
			<g>
				<path class="st4" d="M405.6,221c3.2,1.6,6.3,3.4,9.3,5.3c0.8,0.5,1.6-0.8,0.8-1.3c-3-1.9-6.1-3.7-9.3-5.3
					C405.5,219.2,404.8,220.5,405.6,221L405.6,221z"/>
			</g>
		</g>
	</g>
	<g>
		<path class="st4" d="M801.8,253.8c-29.2,3-55.5,19.4-89.1,16.7c-36.9-3-41.8-28-119.3,4c-6.7,2.8-37.1-7.2-44.1-8
			c-9.5-1.1-25.7,1.7-35.2,0.1c-62.6-10.8-96-23.3-155.7-5.4c-8.1,2.4-50.9,9.7-59.1,9.5c-6.2-0.2-12.3-2.6-18.1-5.3
			c-70.7-32.2-86.8,6.1-133.9,2.4c-17.2-1.3-4.8-2.7-60.9-9.7c-26.8-3.4-53.5-10-79.1-0.6c-2,0.7-3.9,1.5-5.9,2.2
			c0.8,14.5,1.2,29.1,0.9,43.7h212.8c0.9-0.7,1.9-1.1,3.2-1.1c2.7-0.1,5.2,0.4,7.7,1.1h575c0.1-4.3,0.3-8.7,0.6-13
			c0.3-3.5,0.6-7.3,1.3-11C801.9,271,801.7,262.4,801.8,253.8z"/>
		<g>
			<path class="st4" d="M801.8,252.3c-17.2,1.9-33.4,8.1-50.1,12.4c-15.5,4-31.7,6.2-47.5,3.1c-15.9-3.1-30.3-10.7-46.8-11
				c-12.2-0.2-24.4,2.4-36,5.9c-9.2,2.7-18.1,6.1-27,9.7c-4.9,2-10.3,0.6-15.3-0.4c-10.8-2.2-21.8-6.8-32.9-7.3
				c-7.9-0.3-15.9,0.8-23.8,0.8c-9.6,0.1-19.2-2.4-28.6-4.2c-33.5-6.3-66.9-13.7-101.1-9.3c-14.5,1.9-28.1,6.4-42.4,9.3
				c-12.1,2.5-24.2,4.5-36.4,6.2c-4.5,0.6-9.1,1.4-13.6,1.5c-9.2,0.2-17.5-4.8-25.8-8.2c-14.4-5.9-29.7-10.2-45.4-10.1
				c-22.1,0.2-41.4,11.1-62.8,14.6c-8.7,1.4-17.7,1.5-26.4,0c-4-0.7-7.9-1.8-11.9-2.6c-12.3-2.5-24.8-4.1-37.3-5.7
				c-20.3-2.6-40.9-7.2-61.4-5.7c-10,0.7-19.3,3.3-28.6,6.9c-0.6,0.2-1.1,0.7-1.1,1.4c0.7,14.5,1.2,29.1,0.9,43.7
				c0,0.8,0.7,1.5,1.5,1.5c21.3,0,42.6,0,63.9,0c36.7,0,73.3,0,110,0c11.3,0,22.6,0,34,0c1.6,0,3.4,0.3,5,0c1.7-0.3,2.8-1.2,4.6-1.1
				c2.1,0.1,4.1,0.9,6.2,1.1c0.1,0,0.2,0,0.3,0c0.3,0,0.6,0,0.9,0c12.7,0.5,25.5,0,38.2,0c26.9,0,53.9,0,80.8,0c35.5,0,71,0,106.5,0
				c38.5,0,76.9,0,115.4,0c35.8,0,71.6,0,107.5,0c27.6,0,55.1,0,82.7,0c13.7,0,27.4,0,41,0c0.6,0,1.2,0,1.8,0c0.8,0,1.5-0.7,1.5-1.5
				c0.1-4.1,0.2-8.2,0.6-12.3c0.3-3.9,1.1-7.8,1.3-11.7c0.2-3.9-0.6-8.1-0.7-12c-0.1-4.5-0.2-9.1-0.1-13.6c0-1.9-3-1.9-3,0
				c0,4.3,0,8.6,0.1,12.9c0.1,4.5,1,9.3,0.5,13.8c-0.7,7.7-1.5,15.3-1.7,23c0.5-0.5,1-1,1.5-1.5c-9.5,0-19,0-28.5,0
				c-24.7,0-49.4,0-74.2,0c-34.5,0-68.9,0-103.4,0c-38.3,0-76.7,0-115,0c-36.7,0-73.4,0-110.2,0c-29.5,0-59,0-88.5,0
				c-16.6,0-33.3,0-49.9,0c-1.5,0-3,0.1-4.5,0c-0.3,0-0.6,0-0.8,0c-1.1-0.1-2.3-0.6-3.5-0.8c-1.4-0.2-2.9-0.4-4.3-0.3
				c-1.2,0.1-2.4,0.9-3.3,1.1c-1.5,0.4-3.6,0-5.1,0c-4.6,0-9.2,0-13.9,0c-34.3,0-68.6,0-103,0c-28.7,0-57.5,0-86.2,0
				c-1.5,0-3.1,0-4.6,0c0.5,0.5,1,1,1.5,1.5c0.3-14.6-0.1-29.1-0.9-43.7c-0.4,0.5-0.7,1-1.1,1.4c10.3-3.9,20.4-6.6,31.5-7
				c10.7-0.4,21.4,0.9,32,2.4c17.3,2.4,34.7,4.5,52,7.3c11,1.8,21.7,5.1,32.9,5.6c11.3,0.5,22.3-1.6,33.1-4.9c10-3.1,19.7-6.9,30-9
				c13.3-2.7,26.9-2,40.1,1.3c9.4,2.3,18.5,5.8,27.3,9.8c6.7,3,13.6,5.8,21,5.4c10.9-0.6,21.8-2.7,32.6-4.5
				c11.1-1.9,21.9-4.3,32.8-7.2c17.4-4.6,35.3-7.1,53.3-6.7c16.9,0.4,33.5,3.1,50.1,6.2c9.1,1.7,18.2,3.5,27.4,5.2
				c8.7,1.6,17.4,3.7,26.3,3.5c8.1-0.2,16.5-1.5,24.6-0.7c4.8,0.5,9.5,2,14.1,3.2c6.2,1.6,12.4,3.2,18.6,4.3
				c4.1,0.7,8.7,1.7,12.8,0.5c4.7-1.4,9.3-3.7,13.9-5.4c4.4-1.6,8.9-3.1,13.4-4.5c6.8-2.1,13.7-3.8,20.6-4.9
				c9.8-1.6,19.8-1.7,29.6,0.4c7.5,1.6,14.6,4.4,21.9,6.7c10.4,3.2,21,4.6,31.9,4c17.6-0.9,34.3-6.6,51.1-11.4
				c8.4-2.4,16.9-4.5,25.6-5.5C803.7,255.1,803.7,252.1,801.8,252.3z"/>
		</g>
	</g>
	<g>
		<path class="st4" d="M719.2,278.8c-0.6-24.8-1.3-49.5-1.9-74.3c7,13.8,21.8,24.2,38.5,27c-9.8-13.6-19.5-27.1-29.3-40.7
			c9.9,6.7,22.9,9.7,35.3,7.9c-15.6-9-28.6-21.6-37.5-36.2c10.1,2.4,20.2,4.7,30.4,7.1c-19.6-14-34.3-33.4-41.7-54.9
			c8.9,5.2,17.8,10.3,26.6,15.5c-19.4-36.8-33.3-75.9-41.3-116c6.5,43.1,2.4,90.8-28.7,124.8c13.6-3.3,25.9-10.9,34.1-21.2
			c-5.1,18.3-18.6,34.8-36.6,44.9c12-2.8,23.5-7.5,33.9-13.7c-12.2,17.9-29,33.4-48.7,44.9c17.2,3.4,36.1,0.1,50.8-8.8
			c-12.2,17-29.3,31.1-49.2,40.8c19.3,7.3,44.7-2.2,52.7-19.7c-0.1,23.8-0.3,47.6-0.4,71.5c0,3.2,0.3,6.9,3.2,8.6
			c3.3,1.9,8.1-0.2,9.9-3.4c1.9-3.2,1.6-6.9,1.3-10.5L719.2,278.8z"/>
		<g>
			<path class="st4" d="M720.7,278.8c-0.5-19.3-1-38.5-1.5-57.8c-0.1-5.5-0.3-11-0.4-16.5c-0.9,0.3-1.9,0.5-2.8,0.8
				c7.6,14.9,23.1,24.9,39.4,27.7c1.1,0.2,2.5-1,1.7-2.2c-9.8-13.6-19.5-27.1-29.3-40.7c-0.7,0.7-1.4,1.4-2.1,2.1
				c10.6,7.2,23.8,9.8,36.4,8c1.3-0.2,1.4-2.1,0.4-2.7c-15-8.7-27.9-20.9-36.9-35.7c-0.6,0.7-1.1,1.5-1.7,2.2
				c10.1,2.4,20.2,4.7,30.4,7.1c1.7,0.4,2.5-1.8,1.2-2.7c-14.6-10.5-26.9-24.3-35.1-40.3c-2.3-4.4-4.2-9-5.9-13.7
				c-0.7,0.6-1.5,1.1-2.2,1.7c8.9,5.2,17.8,10.3,26.6,15.5c1.3,0.8,2.7-0.7,2.1-2.1c-14.9-28.4-26.8-58.4-35.1-89.4
				c-2.3-8.7-4.4-17.4-6.1-26.3c-0.4-1.9-3.2-1.1-2.9,0.8c2.5,16.8,3.4,34,1.7,50.9c-1.6,16.8-5.8,33.4-13.5,48.5
				c-4.4,8.7-10,16.8-16.6,24c-1,1.1,0,2.9,1.5,2.5c13.5-3.3,26-10.7,34.7-21.6c-0.8-0.5-1.7-1-2.5-1.5
				c-4.1,14.4-13.1,27.1-24.7,36.5c-3.5,2.8-7.2,5.3-11.1,7.5c-1.5,0.9-0.5,3.1,1.2,2.7c12-2.9,23.6-7.5,34.2-13.9
				c-0.7-0.7-1.4-1.4-2.1-2.1c-9.6,14.1-21.8,26.4-35.7,36.3c-4,2.9-8.2,5.6-12.4,8.1c-1,0.6-0.9,2.5,0.4,2.7
				c17.6,3.4,36.6,0.3,52-8.9c-0.7-0.7-1.4-1.4-2.1-2.1c-9.7,13.3-22.1,24.6-36,33.3c-4.1,2.5-8.3,4.8-12.6,6.9
				c-1.3,0.6-0.7,2.3,0.4,2.7c15.5,5.8,34.5,1.5,46.6-9.8c3.2-3,5.9-6.6,7.8-10.6c-0.9-0.3-1.9-0.5-2.8-0.8
				c-0.1,16.1-0.2,32.1-0.3,48.2c0,7.9-0.2,15.8-0.1,23.6c0,2.6,0.3,5.4,1.8,7.6c1.6,2.2,4.3,3.2,7.1,2.8c3-0.5,5.9-2.4,7.3-5.1
				c1.8-3.3,1.6-7.2,1.3-10.8c-0.1-1.6-2.5-2.1-2.9-0.4c-0.5,2.2-1.1,4.4-1.6,6.6c-0.5,1.9,2.4,2.7,2.9,0.8c0.5-2.2,1.1-4.4,1.6-6.6
				c-1-0.1-2-0.3-2.9-0.4c0.2,2.9,0.5,6.1-0.7,8.9c-1,2.2-3.2,3.9-5.7,4.1c-6.3,0.6-5.1-8.3-5.1-12.1c0.1-14.3,0.2-28.5,0.2-42.8
				c0-8.1,0.1-16.2,0.1-24.4c0-1.4-2.1-2.2-2.8-0.8c-6.5,14.1-23,21.7-38,21.5c-4.5-0.1-8.8-0.9-13-2.4c0.1,0.9,0.2,1.8,0.4,2.7
				c15.3-7.5,29.3-17.7,40.8-30.3c3.2-3.5,6.2-7.2,8.9-11c0.9-1.3-0.8-2.8-2.1-2.1c-14.7,8.9-32.8,11.9-49.7,8.6
				c0.1,0.9,0.2,1.8,0.4,2.7c15.2-8.9,29-20.3,40.4-33.8c3.1-3.7,6.1-7.6,8.8-11.7c0.9-1.3-0.8-2.8-2.1-2.1
				c-10.4,6.2-21.7,10.8-33.5,13.6c0.4,0.9,0.8,1.8,1.2,2.7c13.8-7.8,25.5-19.5,32.6-33.7c1.9-3.9,3.5-7.9,4.7-12.1
				c0.4-1.4-1.5-2.7-2.5-1.5c-8.4,10.5-20.4,17.6-33.4,20.8c0.5,0.8,1,1.7,1.5,2.5c11.9-13,20.3-28.6,25.4-45.5
				c5-16.7,6.7-34.2,6.3-51.6c-0.2-9.8-1.2-19.5-2.6-29.2c-1,0.3-1.9,0.5-2.9,0.8c6.3,31.6,16.3,62.4,29.5,91.8
				c3.7,8.3,7.7,16.5,12,24.5c0.7-0.7,1.4-1.4,2.1-2.1c-8.9-5.2-17.8-10.3-26.6-15.5c-1.1-0.6-2.6,0.4-2.2,1.7
				c6,17.4,16.5,33.1,30,45.7c3.9,3.6,8,7,12.4,10.1c0.4-0.9,0.8-1.8,1.2-2.7c-10.1-2.4-20.2-4.7-30.4-7.1c-1.2-0.3-2.4,1-1.7,2.2
				c9.3,15.3,22.6,27.8,38,36.8c0.1-0.9,0.2-1.8,0.4-2.7c-11.8,1.6-24.2-1.1-34.1-7.7c-1.2-0.8-2.9,0.8-2.1,2.1
				c9.8,13.6,19.5,27.1,29.3,40.7c0.6-0.7,1.1-1.5,1.7-2.2c-15.6-2.6-30.4-12-37.7-26.3c-0.7-1.3-2.8-0.7-2.8,0.8
				c0.5,19.3,1,38.5,1.5,57.8c0.1,5.5,0.3,11,0.4,16.5C717.8,280.7,720.8,280.7,720.7,278.8z"/>
		</g>
	</g>
	<g>
		<path class="st4" d="M88.2,268.7c-0.3-14.6-0.7-29.3-1-43.9c-5.4,8.2-17.5,14.5-31.5,16.3c7.7-8.1,15.5-16.2,23.2-24.3
			c-8.1,4.1-18.9,5.9-29.4,5c12.8-5.5,23.3-13,30.3-21.8c-8.4,1.5-16.9,3-25.3,4.5c16-8.5,27.7-20.1,33.1-32.8
			c-7.3,3.1-14.6,6.3-21.9,9.4c15-21.9,25.4-45.1,30.7-68.9c-3.9,25.5,1.1,53.7,28.5,73.5c-11.6-1.8-22.2-6.2-29.4-12.2
			c5,10.8,16.8,20.4,32.3,26.2c-10.2-1.6-20.1-4.2-29-7.8c10.9,10.5,25.6,19.5,42.5,26.1c-14.4,2.2-30.4,0.4-43.1-4.7
			c10.9,9.9,25.8,18.1,42.8,23.6c-16,4.5-37.7-0.9-45-11.2c0.9,14.1,1.9,28.1,2.8,42.2c0.1,1.9,0,4.1-2.4,5.1
			c-2.7,1.2-6.8,0-8.5-1.9c-1.7-1.9-1.6-4.1-1.5-6.2L88.2,268.7z"/>
		<g>
			<path class="st4" d="M89.7,268.7c-0.3-14.6-0.7-29.3-1-43.9c0-1.5-2-2-2.8-0.8c-2.9,4.4-7.3,7.6-12,10
				c-5.7,2.9-11.9,4.7-18.2,5.5c0.4,0.9,0.7,1.7,1.1,2.6c7.7-8.1,15.5-16.2,23.2-24.3c1.2-1.3-0.3-3.1-1.8-2.4
				c-8.8,4.4-19,5.6-28.7,4.8c0.3,0.9,0.5,1.9,0.8,2.8c11.6-5,22.6-12.1,30.6-22c1-1.2,0.1-2.8-1.5-2.5c-8.4,1.5-16.9,3-25.3,4.5
				c0.4,0.9,0.8,1.8,1.2,2.7c14-7.5,27.3-18.5,33.7-33.4c0.6-1.4-0.6-2.7-2.1-2.1c-7.3,3.1-14.6,6.3-21.9,9.4
				c0.7,0.7,1.4,1.4,2.1,2.1c11.3-16.5,20.5-34.5,26.6-53.5c1.7-5.2,3.1-10.4,4.3-15.7c-1-0.3-1.9-0.5-2.9-0.8
				c-1.6,10.4-1.7,20.9,0.3,31.2c2.1,10.8,6.8,20.9,13.6,29.5c4.4,5.5,9.6,10.3,15.3,14.4c0.4-0.9,0.8-1.8,1.2-2.7
				c-10.2-1.6-20.7-5.2-28.8-11.8c-1.3-1.1-3.1,0.2-2.4,1.8c6.2,13.3,20,21.9,33.2,26.9c0.3-1,0.5-1.9,0.8-2.9
				c-9.9-1.5-19.7-4.1-29-7.8c-1.4-0.6-2.5,1.5-1.5,2.5c12.3,11.8,27.4,20.3,43.2,26.5c0-1,0-1.9,0-2.9c-14.1,2.1-29.1,0.6-42.3-4.7
				c-1.4-0.6-2.5,1.5-1.5,2.5c12.4,11.2,27.7,18.9,43.5,24c0-1,0-1.9,0-2.9c-6.2,1.7-12.9,1.9-19.3,1.1c-6.1-0.8-12.2-2.6-17.5-5.8
				c-2.5-1.5-4.8-3.3-6.5-5.7c-0.8-1.1-2.9-0.9-2.8,0.8c0.6,8.9,1.2,17.7,1.8,26.6c0.3,4.4,0.6,8.8,0.9,13.2c0.1,1.5,0.5,3.4,0,4.8
				c-0.5,1.4-2,1.7-3.3,1.7c-1.6,0-3.4-0.5-4.6-1.6c-1.5-1.4-1.5-3.5-1.4-5.4c-1,0.1-2,0.3-2.9,0.4c0.5,1.3,1.1,2.6,1.6,3.9
				c0.7,1.8,3.6,1,2.9-0.8c-0.5-1.3-1.1-2.6-1.6-3.9c-0.6-1.5-2.9-1.4-2.9,0.4c-0.1,2-0.1,4.1,1,5.9c0.9,1.6,2.4,2.7,4.1,3.3
				c3.2,1.3,8.1,1.2,9.7-2.4c0.8-1.6,0.6-3.4,0.5-5.1c-0.2-2.6-0.3-5.1-0.5-7.7c-0.3-5.2-0.7-10.4-1-15.6
				c-0.4-5.9-0.8-11.8-1.2-17.6c-0.9,0.3-1.9,0.5-2.8,0.8c3.5,4.9,8.9,8,14.5,10.1c6.5,2.5,13.6,3.6,20.6,3.4
				c3.9-0.1,7.9-0.6,11.7-1.6c1.5-0.4,1.4-2.4,0-2.9c-15.3-5-30.2-12.4-42.2-23.2c-0.5,0.8-1,1.7-1.5,2.5
				c13.8,5.5,29.3,6.9,43.9,4.7c1.6-0.2,1.2-2.4,0-2.9c-15.3-6-30-14.3-41.9-25.7c-0.5,0.8-1,1.7-1.5,2.5c9.3,3.7,19.1,6.3,29,7.8
				c1.9,0.3,2.6-2.2,0.8-2.9c-12.6-4.7-25.6-12.9-31.4-25.5c-0.8,0.6-1.6,1.2-2.4,1.8c8.5,7,19.3,10.9,30.1,12.6
				c1.7,0.3,2.6-1.7,1.2-2.7c-9.3-6.7-17.1-15.4-22.1-25.8c-4.4-9.1-6.6-19.2-6.8-29.3c-0.1-5.6,0.2-11.2,1.1-16.7
				c0.3-1.9-2.5-2.7-2.9-0.8c-4.3,19-11.7,37.2-21.4,54c-2.9,5-5.9,9.8-9.2,14.6c-0.9,1.4,0.8,2.6,2.1,2.1
				c7.3-3.1,14.6-6.3,21.9-9.4c-0.7-0.7-1.4-1.4-2.1-2.1c-6.2,14.5-19,25.1-32.6,32.3c-1.6,0.8-0.4,3,1.2,2.7
				c8.4-1.5,16.9-3,25.3-4.5c-0.5-0.8-1-1.7-1.5-2.5c-7.8,9.7-18.6,16.6-30,21.5c-1.5,0.6-0.5,2.7,0.8,2.8
				c10.2,0.9,20.9-0.6,30.2-5.2c-0.6-0.8-1.2-1.6-1.8-2.4c-7.7,8.1-15.5,16.2-23.2,24.3c-0.8,0.8-0.3,2.7,1.1,2.6
				c12.1-1.6,25.7-6.4,32.8-17.1c-0.9-0.3-1.9-0.5-2.8-0.8c0.3,14.6,0.7,29.3,1,43.9C86.8,270.6,89.8,270.6,89.7,268.7z"/>
		</g>
	</g>
	<g>
		<path class="st4" d="M289.9,231.5c5.8-6.2,9.4-14.6,9.4-23.7c0-14.5-9-27-21.7-32.1c5-3.8,8.3-9.8,8.3-16.5
			c0-11.4-9.3-20.7-20.7-20.7c-11.4,0-20.7,9.3-20.7,20.7c0,6.6,3.1,12.4,7.9,16.2c-13.2,4.9-22.5,17.6-22.5,32.5
			c0,9,3.4,17.1,9,23.3c-10.3,5.5-17,14.2-17,24.1c0,16.6,18.8,30,42,30s42-13.4,42-30C306,245.6,299.7,237,289.9,231.5z"/>
		<g>
			<g>
				<path class="st5" d="M254.6,167.2c1.9,0,1.9-3,0-3C252.7,164.2,252.7,167.2,254.6,167.2L254.6,167.2z"/>
			</g>
		</g>
		<g>
			<g>
				<path class="st5" d="M259.8,170.8c1.9,0,1.9-3,0-3C257.9,167.8,257.9,170.8,259.8,170.8L259.8,170.8z"/>
			</g>
		</g>
		<g>
			<g>
				<path class="st5" d="M265.7,171.5c1.9,0,1.9-3,0-3C263.8,168.5,263.8,171.5,265.7,171.5L265.7,171.5z"/>
			</g>
		</g>
		<g>
			<g>
				<path class="st5" d="M272.1,170.1c1.9,0,1.9-3,0-3C270.2,167.1,270.2,170.1,272.1,170.1L272.1,170.1z"/>
			</g>
		</g>
		<g>
			<g>
				<path class="st5" d="M276.4,166.5c1.9,0,1.9-3,0-3C274.5,163.5,274.5,166.5,276.4,166.5L276.4,166.5z"/>
			</g>
		</g>
		<g>
			<g>
				<path class="st5" d="M257.6,156.6c2.9,0,2.9-4.5,0-4.5C254.7,152.1,254.7,156.6,257.6,156.6L257.6,156.6z"/>
			</g>
		</g>
		<g>
			<g>
				<path class="st5" d="M272.8,156.8c2.9,0,2.9-4.5,0-4.5C269.9,152.3,269.9,156.8,272.8,156.8L272.8,156.8z"/>
			</g>
		</g>
		<g>
			<g>
				<path class="st5" d="M266.6,186.5c1.9,0,1.9-3,0-3C264.7,183.5,264.7,186.5,266.6,186.5L266.6,186.5z"/>
			</g>
		</g>
		<g>
			<g>
				<path class="st5" d="M269.1,198.7c1.9,0,1.9-3,0-3C267.2,195.7,267.2,198.7,269.1,198.7L269.1,198.7z"/>
			</g>
		</g>
		<g>
			<g>
				<path class="st5" d="M269.2,211.9c1.9,0,1.9-3,0-3C267.3,208.9,267.2,211.9,269.2,211.9L269.2,211.9z"/>
			</g>
		</g>
		<g>
			<g>
				<path class="st5" d="M267.5,224.3c1.9,0,1.9-3,0-3C265.6,221.3,265.6,224.3,267.5,224.3L267.5,224.3z"/>
			</g>
		</g>
		<g>
			<g>
				<path class="st6" d="M292.3,193.8c7.6-0.5,15-3.1,21-7.8c3.1-2.4,5.9-5.1,8.7-7.9c3.1-3.1,6.1-6.2,9.2-9.3
					c0.7-0.7-0.4-1.7-1.1-1.1c-2.9,2.9-5.8,5.9-8.7,8.8c-2.7,2.7-5.3,5.4-8.3,7.7c-6,4.7-13.2,7.5-20.8,8
					C291.3,192.4,291.3,193.9,292.3,193.8L292.3,193.8z"/>
			</g>
		</g>
		<g>
			<g>
				<path class="st6" d="M322.7,178.4c3.4,0.4,6.6,0.9,9.8,2.3c1.4,0.6,2.6,0.9,4.2,0.8c1.7-0.1,3.4-0.3,5.2-0.5c1-0.1,1-1.6,0-1.5
					c-1.7,0.1-3.3,0.3-5,0.4c-0.8,0.1-1.6,0.1-2.4-0.2c-0.8-0.2-1.5-0.6-2.2-0.9c-3-1.3-6.2-1.7-9.5-2.1
					C321.8,176.7,321.8,178.2,322.7,178.4L322.7,178.4z"/>
			</g>
		</g>
		<g>
			<g>
				<path class="st6" d="M312,187.7c4.7,1,9.3,2.1,13.9,3.3c0.9,0.3,1.3-1.2,0.4-1.4c-4.6-1.3-9.2-2.4-13.9-3.3
					C311.5,186,311.1,187.5,312,187.7L312,187.7z"/>
			</g>
		</g>
		<g>
			<g>
				<path class="st6" d="M238.7,193.1c-14.1,0.6-28.3-0.9-42-4.4c-0.9-0.2-1.3,1.2-0.4,1.4c13.8,3.5,28.1,5.1,42.4,4.5
					C239.7,194.5,239.7,193,238.7,193.1L238.7,193.1z"/>
			</g>
		</g>
		<g>
			<g>
				<path class="st6" d="M206.7,191.2c-4.4,4.3-9.1,8.8-15.5,9.7c-1,0.1-0.5,1.6,0.4,1.4c6.6-1,11.5-5.7,16.1-10.1
					C208.5,191.6,207.4,190.6,206.7,191.2L206.7,191.2z"/>
			</g>
		</g>
		<g>
			<g>
				<path class="st6" d="M201.9,197c-0.1,2-0.2,4.1-0.3,6.1c0,0.4,0.4,0.8,0.8,0.8c0.4,0,0.7-0.3,0.8-0.8c0.1-2,0.2-4.1,0.3-6.1
					c0-0.4-0.4-0.8-0.8-0.8C202.2,196.2,201.9,196.6,201.9,197L201.9,197z"/>
			</g>
		</g>
		<g>
			<g>
				<path class="st6" d="M216.9,193.6c-1.4,3.3-2.9,6.6-4.6,9.8c-0.4,0.9,0.8,1.6,1.3,0.8c1.7-3.3,3.3-6.7,4.8-10.2
					c0.2-0.4-0.2-0.8-0.5-0.9C217.4,193,217,193.2,216.9,193.6L216.9,193.6z"/>
			</g>
		</g>
		<g>
			<g>
				<path class="st6" d="M197.3,188.9c-1.3-1.2-2.6-2.4-3.9-3.6c-0.3-0.3-0.8-0.3-1.1,0c-0.3,0.3-0.3,0.8,0,1.1
					c1.3,1.2,2.6,2.4,3.9,3.6c0.3,0.3,0.8,0.3,1.1,0C197.5,189.7,197.6,189.2,197.3,188.9L197.3,188.9z"/>
			</g>
		</g>
		
			<linearGradient id="SVGID_2_" gradientUnits="userSpaceOnUse" x1="263.9398" y1="362.659" x2="263.9398" y2="289.9393" gradientTransform="matrix(1 0 0 -0.587 0 454.6631)">
			<stop  offset="0.4824" style="stop-color:#FFFFFF"/>
			<stop  offset="1" style="stop-color:#E6E6E6"/>
		</linearGradient>
		<ellipse class="st7" cx="263.9" cy="263.1" rx="41.3" ry="21.3"/>
		
			<ellipse transform="matrix(0.2817 -0.9595 0.9595 0.2817 -106.7723 413.1099)" class="st4" cx="222.5" cy="277.9" rx="14.3" ry="28.3"/>
		<path class="st4" d="M350.1,273.2c-2-11.2-20.3-17.4-41-13.8c-20.7,3.6-35.8,15.7-33.9,27c0.8,4.7,4.5,8.5,10.1,11.1
			c1.7-0.3,3.5-0.4,5.2-0.5c0.1,0,0.2,0,0.3,0c1.1-1.5,2.8-2.7,5.2-2.7c7-0.2,13.1,2.9,19.8,4.2c0.2,0,0.3,0.1,0.5,0.1
			c0.5-0.2,1-0.4,1.5-0.6c2.3-1,4.6-0.7,6.4,0.4C340.6,293.3,351.8,283,350.1,273.2z"/>
		<path class="st2" d="M247.3,169.1c0,0,0.7,2,4,5.3c5.4,5.4,13.3,4,13.3,4s0.1,0,0.4,0c1.3-0.1,8.3,0.7,13.7-3.3
			c3-2.3,5.3-6.7,5.3-6.7s-4.8,4.2-14,6C263.3,175.8,257.9,174.4,247.3,169.1z"/>
		<linearGradient id="SVGID_3_" gradientUnits="userSpaceOnUse" x1="233.5947" y1="231.0396" x2="295.9523" y2="231.0396">
			<stop  offset="6.366669e-03" style="stop-color:#D1D1D1"/>
			<stop  offset="8.948728e-03" style="stop-color:#D1D1D1"/>
			<stop  offset="0.1542" style="stop-color:#E4E4E4"/>
			<stop  offset="0.3064" style="stop-color:#EEEEEE"/>
			<stop  offset="0.4768" style="stop-color:#F2F2F2"/>
			<stop  offset="0.655" style="stop-color:#EEEEEE"/>
			<stop  offset="0.8494" style="stop-color:#E0E0E0"/>
			<stop  offset="1" style="stop-color:#D1D1D1"/>
		</linearGradient>
		<path class="st8" d="M233.6,223c0,0,0.5,4.3,6.8,9.8c10.2,9,22.7,7.4,22.7,7.4s0.2,0,0.6,0c2.2-0.1,13.5,0.4,23.2-6.1
			c6.4-4.3,9.1-12.3,9.1-12.3s-8.2,7.7-23.8,11C260.8,235.3,251.9,235.1,233.6,223z"/>
		<g class="st9">
			<path d="M270.9,169.4c-1.9,0.1-6.7-4.7-8.3-6.3c-1.3-1.3,0-2.7,0-2.7c0.8-1.1,1.4-2.3,2.7-1.3
				C266.5,160.1,271.7,168.4,270.9,169.4z"/>
		</g>
		<path class="st10" d="M273.3,164.4c-1.3,1.3-6.7,0-8.7-0.7c-1.4-0.5-2.7-1.2-2.7-2.7c0-1.5,1.2-2.7,2.7-2.7
			C266.1,158.4,273.3,163.1,273.3,164.4z"/>
	</g>
</g>
<g id="Layer_3">
	<g>
		<path class="st2" d="M577.8,248.2c0.1-7.9-0.2-15.8-0.9-23.7c-5,4.8-12.4,7.8-20,8c6.7-5.8,12.8-12.1,18.1-18.8
			c-4.4,2.8-9.8,4.4-15.4,4.4c6.2-5.4,11.5-11.4,15.8-17.9c-3.2,1.8-6.5,3.3-9.9,4.7c5.5-6.2,9.9-13,13.1-20.2
			c-2.5,1.4-5,2.7-7.5,4.1c5.2-8,8.3-16.9,9-25.9c0.7,11.2,6.5,22.1,15.9,30.1c-4.9-0.4-9.7-2.5-12.7-5.7c4,6.6,9.9,12.4,17.1,16.8
			c-6.4-0.1-12.8-2.1-17.7-5.6c4.1,7.2,11.1,13.3,19.7,17c-4.5,0.5-9.1,0.3-13.5-0.7c4.9,3,9.8,6.1,14.6,9.1
			c-5.6,0.8-11.3,0.6-16.8-0.6c6.2,4.3,13,7.9,20.3,10.8c-8.3,1.8-17.6,0.2-24.4-4.1c0.6,4,1.3,8,1.9,12c0.2,1.4,0.4,2.9-0.1,4.2
			c-0.5,1.4-2,2.6-3.7,2.5c-1.7-0.1-3.1-1.9-2-3L577.8,248.2z"/>
	</g>
	<g>
		<path class="st1" d="M382.4,196.2c-0.4-6.5-0.8-13.1-1.2-19.6c-3,3.1-7.3,5.2-11.8,5.8c5.7-3.4,10.3-8.5,12.9-14.2
			c-2.9,2-6.3,3.4-9.9,4c4.1-3.7,7-8.4,8.2-13.5c-1.8,1.6-3.9,2.9-6.2,3.8c5.7-5.5,6.5-13.8,7-21.4c0.4,4.4,0.9,8.8,2.5,12.9
			c1.6,4.1,4.6,8,8.9,9.9c-4.1-0.9-7.9-2.4-11.4-4.5c2.4,6.5,7.6,12.2,14.2,15.5c-4.3-0.3-8.4-1.8-11.8-4.3
			c2.2,4.9,6.7,8.9,12.2,10.7c-3.5,0.8-7.3,0.4-10.5-0.9c0.4,3.2,0.8,6.4,1.2,9.6c0.2,1.5,0.3,3.3-0.8,4.5c-1.2,1.1-4,0.5-3.7-1
			L382.4,196.2z"/>
		<g>
			<path class="st1" d="M383.9,196.2c-0.4-6.5-0.8-13.1-1.2-19.6c-0.1-1.3-1.6-2-2.6-1.1c-3,3.1-6.9,4.8-11.2,5.4
				c0.4,0.9,0.8,1.8,1.2,2.7c5.8-3.5,10.6-8.6,13.4-14.8c0.6-1.2-0.7-3-2.1-2.1c-2.9,2-6.1,3.2-9.5,3.8c0.5,0.8,1,1.7,1.5,2.5
				c4.2-3.8,7.2-8.7,8.6-14.2c0.4-1.5-1.4-2.4-2.5-1.5c-1.6,1.4-3.5,2.6-5.5,3.4c0.5,0.8,1,1.7,1.5,2.5c6-5.9,6.9-14.5,7.4-22.4
				c-1,0-2,0-3,0c0.5,5.1,1.1,10.2,3.2,14.9c1.9,4,4.9,7.4,8.9,9.3c0.4-0.9,0.8-1.8,1.2-2.7c-3.9-0.9-7.6-2.3-11.1-4.3
				c-1.1-0.6-2.7,0.4-2.2,1.7c2.7,7.2,8.1,13,14.9,16.4c0.3-0.9,0.5-1.9,0.8-2.8c-4-0.4-7.8-1.8-11-4.1c-1.4-1-2.6,0.8-2.1,2.1
				c2.5,5.5,7.4,9.5,13.1,11.4c0-1,0-1.9,0-2.9c-3.3,0.7-6.6,0.3-9.7-0.9c-0.8-0.3-2,0.5-1.9,1.4c0.4,3.2,0.9,6.5,1.2,9.7
				c0.1,0.8,0.4,2.7-0.5,3.2c-0.3,0.2-0.5,0.1-0.8,0.1c-0.1,0-0.2-0.1-0.4-0.1c0,0,0.1,0.6,0.1,0.1c-1,0-2,0-3,0
				c0.1,0.9,0.2,1.8,0.3,2.7C381.1,198.1,384.1,198.1,383.9,196.2c-0.1-0.9-0.2-1.8-0.3-2.7c-0.2-1.9-2.8-1.9-3,0
				c-0.2,1.6,1.2,2.7,2.6,3c1.8,0.4,3.5-0.4,4.4-2c1-1.9,0.6-4.1,0.3-6.2c-0.3-2.6-0.7-5.3-1-7.9c-0.6,0.5-1.3,1-1.9,1.4
				c3.6,1.4,7.5,1.7,11.3,0.9c1.6-0.3,1.3-2.4,0-2.9c-4.9-1.7-9.1-5.2-11.3-10c-0.7,0.7-1.4,1.4-2.1,2.1c3.7,2.6,8,4.1,12.5,4.5
				c1.5,0.1,2-2.1,0.8-2.8c-6.1-3.1-11.1-8.2-13.5-14.6c-0.7,0.6-1.5,1.1-2.2,1.7c3.7,2.1,7.6,3.7,11.8,4.6c1.6,0.4,2.8-2,1.2-2.7
				c-8.4-3.9-9.9-13.3-10.7-21.6c-0.2-1.9-2.9-2-3,0c-0.4,7.2-1.2,15-6.5,20.3c-1,1,0,3.1,1.5,2.5c2.5-1.1,4.8-2.4,6.8-4.2
				c-0.8-0.5-1.7-1-2.5-1.5c-1.2,5-4,9.4-7.8,12.9c-1.2,1.1,0.1,2.7,1.5,2.5c3.7-0.6,7.1-2,10.2-4.1c-0.7-0.7-1.4-1.4-2.1-2.1
				c-2.6,5.8-6.9,10.5-12.3,13.7c-1.6,0.9-0.4,3,1.2,2.7c4.7-0.7,9.2-2.8,12.5-6.2c-0.9-0.4-1.7-0.7-2.6-1.1
				c0.4,6.5,0.8,13.1,1.2,19.6C381.1,198.1,384.1,198.1,383.9,196.2z"/>
		</g>
	</g>
</g>
<g id="Layer_2">
	<g>
		<g>
			<path class="st4" d="M133.1,41.8c2.4,0,4.6-2.1,4.5-4.5c-0.1-2.4-2-4.5-4.5-4.5c-2.4,0-4.6,2.1-4.5,4.5
				C128.7,39.8,130.5,41.8,133.1,41.8L133.1,41.8z"/>
		</g>
	</g>
	<g>
		<g>
			<path class="st4" d="M128.9,119c0-0.2,0-0.3,0-0.5c0-0.6-0.1-1.2-0.4-1.7c-0.2-0.6-0.5-1-0.9-1.4c-0.4-0.4-0.9-0.7-1.4-0.9
				c-0.5-0.3-1.1-0.4-1.7-0.4c-0.4,0.1-0.8,0.1-1.2,0.2c-0.8,0.2-1.4,0.6-2,1.2c-0.2,0.3-0.5,0.6-0.7,0.9c-0.4,0.7-0.6,1.5-0.6,2.3
				c0,0.2,0,0.3,0,0.5c0,0.6,0.1,1.2,0.4,1.7c0.2,0.6,0.5,1,0.9,1.4c0.4,0.4,0.9,0.7,1.4,0.9c0.5,0.3,1.1,0.4,1.7,0.4
				c0.4-0.1,0.8-0.1,1.2-0.2c0.8-0.2,1.4-0.6,2-1.2c0.2-0.3,0.5-0.6,0.7-0.9C128.7,120.6,128.9,119.8,128.9,119L128.9,119z"/>
		</g>
	</g>
	<g>
		<g>
			<path class="st4" d="M209.7,30.6c2.4,0,4.6-2.1,4.5-4.5c-0.1-2.4-2-4.5-4.5-4.5c-2.4,0-4.6,2.1-4.5,4.5
				C205.3,28.5,207.1,30.6,209.7,30.6L209.7,30.6z"/>
		</g>
	</g>
	<g>
		<g>
			<path class="st4" d="M473.8,21.5c0,0.3,0,0.7,0,1c0,0.6,0.1,1.2,0.4,1.7c0.2,0.6,0.5,1,0.9,1.4c0.4,0.4,0.9,0.7,1.4,0.9
				c0.5,0.3,1.1,0.4,1.7,0.4c0.4-0.1,0.8-0.1,1.2-0.2c0.8-0.2,1.4-0.6,2-1.2c0.2-0.3,0.5-0.6,0.7-0.9c0.4-0.7,0.6-1.5,0.6-2.3
				c0-0.3,0-0.7,0-1c0-0.6-0.1-1.2-0.4-1.7c-0.2-0.6-0.5-1-0.9-1.4c-0.4-0.4-0.9-0.7-1.4-0.9c-0.5-0.3-1.1-0.4-1.7-0.4
				c-0.4,0.1-0.8,0.1-1.2,0.2c-0.8,0.2-1.4,0.6-2,1.2c-0.2,0.3-0.5,0.6-0.7,0.9C474,19.9,473.8,20.7,473.8,21.5L473.8,21.5z"/>
		</g>
	</g>
	<g>
		<g>
			<path class="st4" d="M524.7,85.7c0.2,0,0.3,0,0.5,0c0.6,0,1.2-0.1,1.7-0.4c0.6-0.2,1-0.5,1.4-0.9c0.4-0.4,0.7-0.9,0.9-1.4
				c0.3-0.5,0.4-1.1,0.4-1.7c-0.1-0.4-0.1-0.8-0.2-1.2c-0.2-0.8-0.6-1.4-1.2-2c-0.3-0.2-0.6-0.5-0.9-0.7c-0.7-0.4-1.5-0.6-2.3-0.6
				c-0.2,0-0.3,0-0.5,0c-0.6,0-1.2,0.1-1.7,0.4c-0.6,0.2-1,0.5-1.4,0.9c-0.4,0.4-0.7,0.9-0.9,1.4c-0.3,0.5-0.4,1.1-0.4,1.7
				c0.1,0.4,0.1,0.8,0.2,1.2c0.2,0.8,0.6,1.4,1.2,2c0.3,0.2,0.6,0.5,0.9,0.7C523.2,85.5,523.9,85.7,524.7,85.7L524.7,85.7z"/>
		</g>
	</g>
	<g>
		<g>
			<path class="st4" d="M545.7,42.3c2.4,0,4.6-2.1,4.5-4.5c-0.1-2.4-2-4.5-4.5-4.5c-2.4,0-4.6,2.1-4.5,4.5
				C541.3,40.3,543.1,42.3,545.7,42.3L545.7,42.3z"/>
		</g>
	</g>
	<g>
		<g>
			<path class="st4" d="M296.7,98.2c2.4,0,4.6-2.1,4.5-4.5c-0.1-2.4-2-4.5-4.5-4.5c-2.4,0-4.6,2.1-4.5,4.5
				C292.3,96.2,294.2,98.2,296.7,98.2L296.7,98.2z"/>
		</g>
	</g>
	<g>
		<g>
			<path class="st4" d="M29.9,42.3c0.2,0,0.3,0,0.5,0c0.6,0,1.2-0.1,1.7-0.4c0.6-0.2,1-0.5,1.4-0.9c0.4-0.4,0.7-0.9,0.9-1.4
				c0.3-0.5,0.4-1.1,0.4-1.7c-0.1-0.4-0.1-0.8-0.2-1.2c-0.2-0.8-0.6-1.4-1.2-2c-0.3-0.2-0.6-0.5-0.9-0.7c-0.7-0.4-1.5-0.6-2.3-0.6
				c-0.2,0-0.3,0-0.5,0c-0.6,0-1.2,0.1-1.7,0.4c-0.6,0.2-1,0.5-1.4,0.9c-0.4,0.4-0.7,0.9-0.9,1.4c-0.3,0.5-0.4,1.1-0.4,1.7
				c0.1,0.4,0.1,0.8,0.2,1.2c0.2,0.8,0.6,1.4,1.2,2c0.3,0.2,0.6,0.5,0.9,0.7C28.4,42.1,29.1,42.3,29.9,42.3L29.9,42.3z"/>
		</g>
	</g>
	<g>
		<g>
			<path class="st4" d="M701.3,129c0.2-0.3,0.3-0.7,0.5-1c0.3-0.5,0.5-1.1,0.5-1.7c0.1-0.6,0.1-1.2-0.1-1.8
				c-0.1-0.6-0.4-1.1-0.8-1.5c-0.3-0.5-0.7-0.9-1.3-1.2c-0.4-0.2-0.7-0.3-1.1-0.5c-0.8-0.2-1.6-0.2-2.4,0c-0.4,0.2-0.7,0.3-1.1,0.5
				c-0.7,0.4-1.2,0.9-1.6,1.6c-0.2,0.3-0.3,0.7-0.5,1c-0.3,0.5-0.5,1.1-0.5,1.7c-0.1,0.6-0.1,1.2,0.1,1.8c0.1,0.6,0.4,1.1,0.8,1.5
				c0.3,0.5,0.7,0.9,1.3,1.2c0.4,0.2,0.7,0.3,1.1,0.5c0.8,0.2,1.6,0.2,2.4,0c0.4-0.2,0.7-0.3,1.1-0.5
				C700.3,130.2,700.9,129.7,701.3,129L701.3,129z"/>
		</g>
	</g>
	<g>
		<g>
			<path class="st4" d="M776.5,27.5c2.4,0,4.6-2.1,4.5-4.5c-0.1-2.4-2-4.5-4.5-4.5c-2.4,0-4.6,2.1-4.5,4.5
				C772.1,25.5,773.9,27.5,776.5,27.5L776.5,27.5z"/>
		</g>
	</g>
	<g>
		<g>
			<path class="st4" d="M684,74.1c0-0.2,0-0.3,0-0.5c0-0.4-0.1-0.8-0.3-1.2c-0.1-0.4-0.3-0.7-0.6-1c-0.3-0.3-0.6-0.5-1-0.6
				c-0.4-0.2-0.7-0.3-1.2-0.3c-0.3,0-0.5,0.1-0.8,0.1c-0.5,0.1-0.9,0.4-1.3,0.8c-0.2,0.2-0.3,0.4-0.5,0.6c-0.3,0.5-0.4,1-0.4,1.5
				c0,0.2,0,0.3,0,0.5c0,0.4,0.1,0.8,0.3,1.2c0.1,0.4,0.3,0.7,0.6,1c0.3,0.3,0.6,0.5,1,0.6c0.4,0.2,0.7,0.3,1.2,0.3
				c0.3,0,0.5-0.1,0.8-0.1c0.5-0.1,0.9-0.4,1.3-0.8c0.2-0.2,0.3-0.4,0.5-0.6C683.8,75.1,684,74.6,684,74.1L684,74.1z"/>
		</g>
	</g>
	<g>
		<g>
			<path class="st4" d="M682,181.8c3.9,0,3.9-6,0-6C678.1,175.8,678.1,181.8,682,181.8L682,181.8z"/>
		</g>
	</g>
	<g>
		<g>
			<path class="st4" d="M774.9,103.1c3.9,0,3.9-6,0-6C771.1,97.1,771.1,103.1,774.9,103.1L774.9,103.1z"/>
		</g>
	</g>
	<g>
		<g>
			<path class="st4" d="M762.7,167.5c3.9,0,3.9-6,0-6C758.8,161.5,758.8,167.5,762.7,167.5L762.7,167.5z"/>
		</g>
	</g>
	<g>
		<g>
			<path class="st4" d="M592.1,119.5c0-0.3,0-0.7,0-1c0-0.4-0.1-0.8-0.3-1.2c-0.1-0.4-0.3-0.7-0.6-1c-0.3-0.3-0.6-0.5-1-0.6
				c-0.4-0.2-0.7-0.3-1.2-0.3c-0.3,0-0.5,0.1-0.8,0.1c-0.5,0.1-0.9,0.4-1.3,0.8c-0.2,0.2-0.3,0.4-0.5,0.6c-0.3,0.5-0.4,1-0.4,1.5
				c0,0.3,0,0.7,0,1c0,0.4,0.1,0.8,0.3,1.2c0.1,0.4,0.3,0.7,0.6,1c0.3,0.3,0.6,0.5,1,0.6c0.4,0.2,0.7,0.3,1.2,0.3
				c0.3,0,0.5-0.1,0.8-0.1c0.5-0.1,0.9-0.4,1.3-0.8c0.2-0.2,0.3-0.4,0.5-0.6C591.9,120.6,592.1,120.1,592.1,119.5L592.1,119.5z"/>
		</g>
	</g>
	<g>
		<g>
			<path class="st4" d="M632,35.7c3.9,0,3.9-6,0-6C628.1,29.7,628.1,35.7,632,35.7L632,35.7z"/>
		</g>
	</g>
	<g>
		<g>
			<path class="st4" d="M210.3,76.4c0-0.2,0-0.3,0-0.5c0-0.4-0.1-0.8-0.3-1.2c-0.1-0.4-0.3-0.7-0.6-1c-0.3-0.3-0.6-0.5-1-0.6
				c-0.4-0.2-0.7-0.3-1.2-0.3c-0.3,0-0.5,0.1-0.8,0.1c-0.5,0.1-0.9,0.4-1.3,0.8c-0.2,0.2-0.3,0.4-0.5,0.6c-0.3,0.5-0.4,1-0.4,1.5
				c0,0.2,0,0.3,0,0.5c0,0.4,0.1,0.8,0.3,1.2c0.1,0.4,0.3,0.7,0.6,1c0.3,0.3,0.6,0.5,1,0.6c0.4,0.2,0.7,0.3,1.2,0.3
				c0.3,0,0.5-0.1,0.8-0.1c0.5-0.1,0.9-0.4,1.3-0.8c0.2-0.2,0.3-0.4,0.5-0.6C210.2,77.4,210.3,76.9,210.3,76.4L210.3,76.4z"/>
		</g>
	</g>
	<g>
		<g>
			<path class="st4" d="M320.5,28.1c3.9,0,3.9-6,0-6C316.6,22.1,316.6,28.1,320.5,28.1L320.5,28.1z"/>
		</g>
	</g>
	<g>
		<g>
			<path class="st4" d="M401.4,78.3c3.9,0,3.9-6,0-6C397.5,72.3,397.5,78.3,401.4,78.3L401.4,78.3z"/>
		</g>
	</g>
	<g>
		<g>
			<path class="st4" d="M109.1,85.8c3.9,0,3.9-6,0-6C105.2,79.8,105.2,85.8,109.1,85.8L109.1,85.8z"/>
		</g>
	</g>
	<g>
		<g>
			<path class="st4" d="M348,44.4c1.9,0,1.9-3,0-3C346.1,41.4,346.1,44.4,348,44.4L348,44.4z"/>
		</g>
	</g>
	<g>
		<g>
			<path class="st4" d="M429.4,101.2c0-0.2,0-0.3,0-0.5c0-0.2,0-0.4-0.1-0.6c-0.1-0.2-0.2-0.3-0.3-0.5c-0.1-0.1-0.3-0.2-0.5-0.3
				c-0.2-0.1-0.4-0.1-0.6-0.1c-0.1,0-0.3,0-0.4,0.1c-0.3,0.1-0.5,0.2-0.7,0.4c-0.1,0.1-0.2,0.2-0.2,0.3c-0.1,0.2-0.2,0.5-0.2,0.8
				c0,0.2,0,0.3,0,0.5c0,0.2,0,0.4,0.1,0.6c0.1,0.2,0.2,0.3,0.3,0.5c0.1,0.1,0.3,0.2,0.5,0.3c0.2,0.1,0.4,0.1,0.6,0.1
				c0.1,0,0.3,0,0.4-0.1c0.3-0.1,0.5-0.2,0.7-0.4c0.1-0.1,0.2-0.2,0.2-0.3C429.4,101.7,429.4,101.5,429.4,101.2L429.4,101.2z"/>
		</g>
	</g>
	<g>
		<g>
			<path class="st4" d="M445.3,80.7c1.9,0,1.9-3,0-3C443.4,77.7,443.3,80.7,445.3,80.7L445.3,80.7z"/>
		</g>
	</g>
	<g>
		<g>
			<path class="st4" d="M424.6,48c1.9,0,1.9-3,0-3C422.7,45,422.7,48,424.6,48L424.6,48z"/>
		</g>
	</g>
	<g>
		<g>
			<path class="st4" d="M149.9,78.1c1.9,0,1.9-3,0-3C148,75.1,148,78.1,149.9,78.1L149.9,78.1z"/>
		</g>
	</g>
	<g>
		<g>
			<path class="st4" d="M19.2,104.2c1.9,0,1.9-3,0-3C17.3,101.2,17.3,104.2,19.2,104.2L19.2,104.2z"/>
		</g>
	</g>
	<g>
		<g>
			<path class="st4" d="M97.8,141c0-0.2,0-0.3,0-0.5c0-0.2,0-0.4-0.1-0.6c-0.1-0.2-0.2-0.3-0.3-0.5c-0.1-0.1-0.3-0.2-0.5-0.3
				c-0.2-0.1-0.4-0.1-0.6-0.1c-0.1,0-0.3,0-0.4,0.1c-0.3,0.1-0.5,0.2-0.7,0.4c-0.1,0.1-0.2,0.2-0.2,0.3c-0.1,0.2-0.2,0.5-0.2,0.8
				c0,0.2,0,0.3,0,0.5c0,0.2,0,0.4,0.1,0.6c0.1,0.2,0.2,0.3,0.3,0.5c0.1,0.1,0.3,0.2,0.5,0.3c0.2,0.1,0.4,0.1,0.6,0.1
				c0.1,0,0.3,0,0.4-0.1c0.3-0.1,0.5-0.2,0.7-0.4c0.1-0.1,0.2-0.2,0.2-0.3C97.7,141.5,97.8,141.3,97.8,141L97.8,141z"/>
		</g>
	</g>
	<g>
		<g>
			<path class="st4" d="M110.1,121c1.9,0,1.9-3,0-3C108.2,118,108.2,121,110.1,121L110.1,121z"/>
		</g>
	</g>
	<g>
		<g>
			<path class="st4" d="M575.8,160.9c0.2-0.2,0.3-0.3,0.5-0.5c0.1-0.1,0.2-0.3,0.3-0.5c0.1-0.2,0.1-0.4,0.1-0.6c0-0.2,0-0.4-0.1-0.6
				c-0.1-0.2-0.2-0.3-0.3-0.5c-0.1-0.1-0.2-0.2-0.3-0.2c-0.2-0.1-0.5-0.2-0.8-0.2c-0.1,0-0.3,0-0.4,0.1c-0.3,0.1-0.5,0.2-0.7,0.4
				c-0.2,0.2-0.3,0.3-0.5,0.5c-0.1,0.1-0.2,0.3-0.3,0.5c-0.1,0.2-0.1,0.4-0.1,0.6c0,0.2,0,0.4,0.1,0.6c0.1,0.2,0.2,0.3,0.3,0.5
				c0.1,0.1,0.2,0.2,0.3,0.2c0.2,0.1,0.5,0.2,0.8,0.2c0.1,0,0.3,0,0.4-0.1C575.4,161.3,575.6,161.1,575.8,160.9L575.8,160.9z"/>
		</g>
	</g>
	<g>
		<g>
			<path class="st4" d="M611.5,138.4c1.9,0,1.9-3,0-3C609.6,135.4,609.6,138.4,611.5,138.4L611.5,138.4z"/>
		</g>
	</g>
	<g>
		<g>
			<path class="st4" d="M590.6,69.5c1.9,0,1.9-3,0-3C588.7,66.5,588.7,69.5,590.6,69.5L590.6,69.5z"/>
		</g>
	</g>
	<g>
		<g>
			<path class="st4" d="M710.1,21c1.9,0,1.9-3,0-3C708.2,18,708.2,21,710.1,21L710.1,21z"/>
		</g>
	</g>
	<g>
		<g>
			<path class="st4" d="M739.7,189c1.9,0,1.9-3,0-3C737.8,186,737.8,189,739.7,189L739.7,189z"/>
		</g>
	</g>
	<g>
		<g>
			<path class="st4" d="M772.4,146.6c1.9,0,1.9-3,0-3C770.5,143.6,770.5,146.6,772.4,146.6L772.4,146.6z"/>
		</g>
	</g>
	<g>
		<g>
			<path class="st4" d="M781.1,178.9c1.4,0,1.5-2.3,0-2.3C779.6,176.6,779.6,178.9,781.1,178.9L781.1,178.9z"/>
		</g>
	</g>
	<g>
		<g>
			<path class="st4" d="M747.9,98.7c1.4,0,1.5-2.3,0-2.3C746.4,96.5,746.4,98.7,747.9,98.7L747.9,98.7z"/>
		</g>
	</g>
	<g>
		<g>
			<path class="st4" d="M777.5,85.9c1.4,0,1.5-2.3,0-2.3C776,83.7,776,85.9,777.5,85.9L777.5,85.9z"/>
		</g>
	</g>
	<g>
		<g>
			<path class="st4" d="M739.9,64.7c0.2,0.2,0.3,0.3,0.5,0.5c0.1,0.1,0.2,0.2,0.4,0.2c0.1,0.1,0.3,0.1,0.4,0.1c0.2,0,0.3,0,0.4-0.1
				c0.1,0,0.3-0.1,0.4-0.2c0.1-0.1,0.1-0.2,0.2-0.2c0.1-0.2,0.2-0.4,0.2-0.6c0-0.1,0-0.2,0-0.3c-0.1-0.2-0.1-0.4-0.3-0.5
				c-0.2-0.2-0.3-0.3-0.5-0.5c-0.1-0.1-0.2-0.2-0.4-0.2c-0.1-0.1-0.3-0.1-0.4-0.1c-0.2,0-0.3,0-0.4,0.1c-0.1,0-0.3,0.1-0.4,0.2
				c-0.1,0.1-0.1,0.2-0.2,0.2c-0.1,0.2-0.2,0.4-0.2,0.6c0,0.1,0,0.2,0,0.3C739.7,64.4,739.8,64.5,739.9,64.7L739.9,64.7z"/>
		</g>
	</g>
	<g>
		<g>
			<path class="st4" d="M728.5,141.1c0.2,0,0.3,0,0.5,0c0.2,0,0.3,0,0.4-0.1c0.1,0,0.3-0.1,0.4-0.2c0.1-0.1,0.2-0.2,0.2-0.4
				c0.1-0.1,0.1-0.3,0.1-0.4c0-0.1,0-0.2,0-0.3c-0.1-0.2-0.1-0.4-0.3-0.5c-0.1-0.1-0.2-0.1-0.2-0.2c-0.2-0.1-0.4-0.2-0.6-0.2
				c-0.2,0-0.3,0-0.5,0c-0.2,0-0.3,0-0.4,0.1c-0.1,0-0.3,0.1-0.4,0.2c-0.1,0.1-0.2,0.2-0.2,0.4c-0.1,0.1-0.1,0.3-0.1,0.4
				c0,0.1,0,0.2,0,0.3c0.1,0.2,0.1,0.4,0.3,0.5c0.1,0.1,0.2,0.1,0.2,0.2C728.1,141,728.3,141.1,728.5,141.1L728.5,141.1z"/>
		</g>
	</g>
	<g>
		<g>
			<path class="st4" d="M654.4,142.6c1.4,0,1.5-2.3,0-2.3C653,140.4,653,142.6,654.4,142.6L654.4,142.6z"/>
		</g>
	</g>
	<g>
		<g>
			<path class="st4" d="M642.2,108.4c1.4,0,1.5-2.3,0-2.3C640.7,106.2,640.7,108.4,642.2,108.4L642.2,108.4z"/>
		</g>
	</g>
	<g>
		<g>
			<path class="st4" d="M409.5,87c1.4,0,1.5-2.3,0-2.3C408.1,84.8,408.1,87,409.5,87L409.5,87z"/>
		</g>
	</g>
	<g>
		<g>
			<path class="st4" d="M431.9,128.3c0,0.2,0,0.3,0,0.5c0,0.2,0,0.3,0.1,0.4c0,0.1,0.1,0.3,0.2,0.4c0.1,0.1,0.2,0.2,0.4,0.2
				c0.1,0.1,0.3,0.1,0.4,0.1c0.1,0,0.2,0,0.3,0c0.2-0.1,0.4-0.1,0.5-0.3c0.1-0.1,0.1-0.2,0.2-0.2c0.1-0.2,0.2-0.4,0.2-0.6
				c0-0.2,0-0.3,0-0.5c0-0.2,0-0.3-0.1-0.4c0-0.1-0.1-0.3-0.2-0.4c-0.1-0.1-0.2-0.2-0.4-0.2c-0.1-0.1-0.3-0.1-0.4-0.1
				c-0.1,0-0.2,0-0.3,0c-0.2,0.1-0.4,0.1-0.5,0.3c-0.1,0.1-0.1,0.2-0.2,0.2C432,127.9,431.9,128.1,431.9,128.3L431.9,128.3z"/>
		</g>
	</g>
	<g>
		<g>
			<path class="st4" d="M329.9,73.9c1.4,0,1.5-2.3,0-2.3C328.4,71.7,328.4,73.9,329.9,73.9L329.9,73.9z"/>
		</g>
	</g>
	<g>
		<g>
			<path class="st4" d="M228.8,87c1.4,0,1.5-2.3,0-2.3C227.3,84.8,227.3,87,228.8,87L228.8,87z"/>
		</g>
	</g>
	<g>
		<g>
			<path class="st4" d="M238.5,87.7c1.4,0,1.5-2.3,0-2.3C237,85.4,237,87.7,238.5,87.7L238.5,87.7z"/>
		</g>
	</g>
	<g>
		<g>
			<path class="st4" d="M268.1,73.9c1.4,0,1.5-2.3,0-2.3C266.6,71.7,266.6,73.9,268.1,73.9L268.1,73.9z"/>
		</g>
	</g>
	<g>
		<g>
			<path class="st4" d="M280.6,43.1c0.2,0,0.3,0,0.5,0c0.2,0,0.3,0,0.4-0.1c0.1,0,0.3-0.1,0.4-0.2c0.1-0.1,0.2-0.2,0.2-0.4
				c0.1-0.1,0.1-0.3,0.1-0.4c0-0.1,0-0.2,0-0.3c-0.1-0.2-0.1-0.4-0.3-0.5c-0.1-0.1-0.2-0.1-0.2-0.2c-0.2-0.1-0.4-0.2-0.6-0.2
				c-0.2,0-0.3,0-0.5,0c-0.2,0-0.3,0-0.4,0.1c-0.1,0-0.3,0.1-0.4,0.2c-0.1,0.1-0.2,0.2-0.2,0.4c-0.1,0.1-0.1,0.3-0.1,0.4
				c0,0.1,0,0.2,0,0.3c0.1,0.2,0.1,0.4,0.3,0.5c0.1,0.1,0.2,0.1,0.2,0.2C280.3,43,280.4,43.1,280.6,43.1L280.6,43.1z"/>
		</g>
	</g>
	<g>
		<g>
			<path class="st4" d="M379.7,51.2c1.4,0,1.5-2.3,0-2.3C378.3,49,378.3,51.2,379.7,51.2L379.7,51.2z"/>
		</g>
	</g>
	<g>
		<g>
			<path class="st4" d="M388.4,23.6c1.4,0,1.5-2.3,0-2.3C386.9,21.4,386.9,23.6,388.4,23.6L388.4,23.6z"/>
		</g>
	</g>
	<g>
		<g>
			<path class="st4" d="M262.8,28.8c1.4,0,1.5-2.3,0-2.3C261.3,26.5,261.3,28.8,262.8,28.8L262.8,28.8z"/>
		</g>
	</g>
	<g>
		<g>
			<path class="st4" d="M188.7,134.1c1.4,0,1.5-2.3,0-2.3C187.3,131.9,187.3,134.1,188.7,134.1L188.7,134.1z"/>
		</g>
	</g>
	<g>
		<g>
			<path class="st4" d="M213.7,175.5c1.4,0,1.5-2.3,0-2.3C212.3,173.2,212.3,175.5,213.7,175.5L213.7,175.5z"/>
		</g>
	</g>
	<g>
		<g>
			<path class="st4" d="M223.5,205.1c1.4,0,1.5-2.3,0-2.3C222,202.8,222,205.1,223.5,205.1L223.5,205.1z"/>
		</g>
	</g>
	<g>
		<g>
			<path class="st4" d="M327.8,137.7c1.4,0,1.5-2.3,0-2.3C326.4,135.5,326.4,137.7,327.8,137.7L327.8,137.7z"/>
		</g>
	</g>
	<g>
		<g>
			<path class="st4" d="M346.7,115.8c1.4,0,1.5-2.3,0-2.3C345.3,113.5,345.3,115.8,346.7,115.8L346.7,115.8z"/>
		</g>
	</g>
	<g>
		<g>
			<path class="st4" d="M379.4,129.1c1.4,0,1.5-2.3,0-2.3C378,126.8,378,129.1,379.4,129.1L379.4,129.1z"/>
		</g>
	</g>
	<g>
		<g>
			<path class="st4" d="M213.5,129.6c0.3,0,0.7,0,1,0c0.2,0,0.3,0,0.4-0.1c0.1,0,0.3-0.1,0.4-0.2c0.1-0.1,0.2-0.2,0.2-0.4
				c0.1-0.1,0.1-0.3,0.1-0.4c0-0.1,0-0.2,0-0.3c-0.1-0.2-0.1-0.4-0.3-0.5c-0.1-0.1-0.2-0.1-0.2-0.2c-0.2-0.1-0.4-0.2-0.6-0.2
				c-0.3,0-0.7,0-1,0c-0.2,0-0.3,0-0.4,0.1c-0.1,0-0.3,0.1-0.4,0.2c-0.1,0.1-0.2,0.2-0.2,0.4c-0.1,0.1-0.1,0.3-0.1,0.4
				c0,0.1,0,0.2,0,0.3c0.1,0.2,0.1,0.4,0.3,0.5c0.1,0.1,0.2,0.1,0.2,0.2C213.1,129.5,213.2,129.6,213.5,129.6L213.5,129.6z"/>
		</g>
	</g>
	<g>
		<g>
			<path class="st4" d="M675.9,221.8c1.4,0,1.5-2.3,0-2.3C674.4,219.5,674.4,221.8,675.9,221.8L675.9,221.8z"/>
		</g>
	</g>
	<g>
		<g>
			<path class="st4" d="M676.9,256c1.4,0,1.5-2.3,0-2.3C675.5,253.7,675.4,256,676.9,256L676.9,256z"/>
		</g>
	</g>
	<g>
		<g>
			<path class="st4" d="M699.9,258.4c3.9,0,3.9-6,0-6C696,252.4,696,258.4,699.9,258.4L699.9,258.4z"/>
		</g>
	</g>
	<g>
		<g>
			<path class="st4" d="M755,219.1c3.9,0,3.9-6,0-6C751.2,213.1,751.2,219.1,755,219.1L755,219.1z"/>
		</g>
	</g>
	<g>
		<g>
			<path class="st4" d="M271.1,144.3c0-0.5,0-1,0-1.5c0-0.4-0.1-0.8-0.3-1.2c-0.1-0.4-0.3-0.7-0.6-1c-0.3-0.3-0.6-0.5-1-0.6
				c-0.4-0.2-0.7-0.3-1.2-0.3c-0.3,0-0.5,0.1-0.8,0.1c-0.5,0.1-0.9,0.4-1.3,0.8c-0.2,0.2-0.3,0.4-0.5,0.6c-0.3,0.5-0.4,1-0.4,1.5
				c0,0.5,0,1,0,1.5c0,0.4,0.1,0.8,0.3,1.2c0.1,0.4,0.3,0.7,0.6,1c0.3,0.3,0.6,0.5,1,0.6c0.4,0.2,0.7,0.3,1.2,0.3
				c0.3,0,0.5-0.1,0.8-0.1c0.5-0.1,0.9-0.4,1.3-0.8c0.2-0.2,0.3-0.4,0.5-0.6C271,145.3,271.1,144.8,271.1,144.3L271.1,144.3z"/>
		</g>
	</g>
	<g>
		<g>
			<path class="st4" d="M98.3,251.7c3.9,0,3.9-6,0-6C94.5,245.7,94.5,251.7,98.3,251.7L98.3,251.7z"/>
		</g>
	</g>
	<g>
		<g>
			<path class="st4" d="M643.5,212.2c0.2-0.3,0.3-0.7,0.5-1c0.1-0.2,0.2-0.4,0.2-0.6c0-0.2,0-0.4,0-0.6c0-0.2-0.1-0.4-0.3-0.5
				c-0.1-0.2-0.2-0.3-0.4-0.4c-0.1-0.1-0.2-0.1-0.4-0.2c-0.3-0.1-0.5-0.1-0.8,0c-0.1,0.1-0.2,0.1-0.4,0.2c-0.2,0.1-0.4,0.3-0.5,0.5
				c-0.2,0.3-0.3,0.7-0.5,1c-0.1,0.2-0.2,0.4-0.2,0.6c0,0.2,0,0.4,0,0.6c0,0.2,0.1,0.4,0.3,0.5c0.1,0.2,0.2,0.3,0.4,0.4
				c0.1,0.1,0.2,0.1,0.4,0.2c0.3,0.1,0.5,0.1,0.8,0c0.1-0.1,0.2-0.1,0.4-0.2C643.2,212.6,643.3,212.4,643.5,212.2L643.5,212.2z"/>
		</g>
	</g>
	<g>
		<g>
			<path class="st4" d="M88.6,31.2c0-0.5,0-1,0-1.5c0-0.2,0-0.4-0.1-0.6c-0.1-0.2-0.2-0.3-0.3-0.5c-0.1-0.1-0.3-0.2-0.5-0.3
				c-0.2-0.1-0.4-0.1-0.6-0.1c-0.1,0-0.3,0-0.4,0.1c-0.3,0.1-0.5,0.2-0.7,0.4c-0.3,0.3-0.4,0.7-0.4,1.1c0,0.5,0,1,0,1.5
				c0,0.2,0,0.4,0.1,0.6c0.1,0.2,0.2,0.3,0.3,0.5c0.1,0.1,0.3,0.2,0.5,0.3c0.2,0.1,0.4,0.1,0.6,0.1c0.1,0,0.3,0,0.4-0.1
				c0.3-0.1,0.5-0.2,0.7-0.4C88.4,32,88.6,31.6,88.6,31.2L88.6,31.2z"/>
		</g>
	</g>
	<g>
		<g>
			<path class="st4" d="M62.6,12.9c0.2,0.2,0.3,0.3,0.5,0.5c0.1,0.1,0.3,0.2,0.5,0.3c0.2,0.1,0.4,0.1,0.6,0.1c0.2,0,0.4,0,0.6-0.1
				c0.2-0.1,0.3-0.2,0.5-0.3c0.1-0.1,0.2-0.2,0.2-0.3c0.1-0.2,0.2-0.5,0.2-0.8c0-0.1,0-0.3-0.1-0.4c-0.1-0.3-0.2-0.5-0.4-0.7
				c-0.2-0.2-0.3-0.3-0.5-0.5c-0.1-0.1-0.3-0.2-0.5-0.3c-0.2-0.1-0.4-0.1-0.6-0.1c-0.2,0-0.4,0-0.6,0.1c-0.2,0.1-0.3,0.2-0.5,0.3
				c-0.1,0.1-0.2,0.2-0.2,0.3c-0.1,0.2-0.2,0.5-0.2,0.8c0,0.1,0,0.3,0.1,0.4C62.2,12.5,62.4,12.7,62.6,12.9L62.6,12.9z"/>
		</g>
	</g>
	<g>
		<g>
			<path class="st4" d="M84,95.5c1.9,0,1.9-3,0-3C82.1,92.5,82.1,95.5,84,95.5L84,95.5z"/>
		</g>
	</g>
	<g>
		<g>
			<path class="st4" d="M208.6,127.6c1,0,1-1.5,0-1.5C207.7,126.1,207.7,127.6,208.6,127.6L208.6,127.6z"/>
		</g>
	</g>
	<g>
		<g>
			<path class="st4" d="M81,117.2c1,0,1-1.5,0-1.5C80,115.7,80,117.2,81,117.2L81,117.2z"/>
		</g>
	</g>
	<g>
		<g>
			<path class="st4" d="M25.3,137.7c1,0,1-1.5,0-1.5C24.4,136.2,24.4,137.7,25.3,137.7L25.3,137.7z"/>
		</g>
	</g>
	<g>
		<g>
			<path class="st4" d="M20.7,163.7c1,0,1-1.5,0-1.5C19.8,162.2,19.8,163.7,20.7,163.7L20.7,163.7z"/>
		</g>
	</g>
	<g>
		<g>
			<path class="st4" d="M33.5,69.2c1,0,1-1.5,0-1.5C32.5,67.7,32.5,69.2,33.5,69.2L33.5,69.2z"/>
		</g>
	</g>
	<g>
		<g>
			<path class="st4" d="M114.2,55.4c1,0,1-1.5,0-1.5C113.2,53.9,113.2,55.4,114.2,55.4L114.2,55.4z"/>
		</g>
	</g>
	<g>
		<g>
			<path class="st4" d="M114.2,24.3c1,0,1-1.5,0-1.5C113.2,22.8,113.2,24.3,114.2,24.3L114.2,24.3z"/>
		</g>
	</g>
	<g>
		<g>
			<path class="st4" d="M245.1,53.2c0-0.2,0-0.3,0-0.5c0-0.1,0-0.2-0.1-0.3c0-0.1-0.1-0.2-0.2-0.2c-0.1-0.1-0.1-0.1-0.2-0.2
				c-0.1,0-0.2-0.1-0.3-0.1c-0.1,0-0.1,0-0.2,0c-0.1,0-0.2,0.1-0.3,0.2c0,0.1-0.1,0.1-0.1,0.2c-0.1,0.1-0.1,0.2-0.1,0.4
				c0,0.2,0,0.3,0,0.5c0,0.1,0,0.2,0.1,0.3c0,0.1,0.1,0.2,0.2,0.2c0.1,0.1,0.1,0.1,0.2,0.2c0.1,0,0.2,0.1,0.3,0.1c0.1,0,0.1,0,0.2,0
				c0.1,0,0.2-0.1,0.3-0.2c0-0.1,0.1-0.1,0.1-0.2C245.1,53.4,245.1,53.3,245.1,53.2L245.1,53.2z"/>
		</g>
	</g>
	<g>
		<g>
			<path class="st4" d="M240.3,24.3c1,0,1-1.5,0-1.5C239.3,22.8,239.3,24.3,240.3,24.3L240.3,24.3z"/>
		</g>
	</g>
	<g>
		<g>
			<path class="st4" d="M622.8,86.1c0.2,0,0.3,0,0.5,0c0.1,0,0.2,0,0.3-0.1c0.1,0,0.2-0.1,0.2-0.2c0.1-0.1,0.1-0.1,0.2-0.2
				c0-0.1,0.1-0.2,0.1-0.3c0-0.1,0-0.1,0-0.2c0-0.1-0.1-0.2-0.2-0.3c-0.1,0-0.1-0.1-0.2-0.1c-0.1-0.1-0.2-0.1-0.4-0.1
				c-0.2,0-0.3,0-0.5,0c-0.1,0-0.2,0-0.3,0.1c-0.1,0-0.2,0.1-0.2,0.2c-0.1,0.1-0.1,0.1-0.2,0.2c0,0.1-0.1,0.2-0.1,0.3
				c0,0.1,0,0.1,0,0.2c0,0.1,0.1,0.2,0.2,0.3c0.1,0,0.1,0.1,0.2,0.1C622.5,86,622.6,86.1,622.8,86.1L622.8,86.1z"/>
		</g>
	</g>
	<g>
		<g>
			<path class="st4" d="M627.4,184.1c1,0,1-1.5,0-1.5C626.4,182.6,626.4,184.1,627.4,184.1L627.4,184.1z"/>
		</g>
	</g>
	<g>
		<g>
			<path class="st4" d="M153.1,158.9c1.9,0,1.9-3,0-3C151.2,155.9,151.2,158.9,153.1,158.9L153.1,158.9z"/>
		</g>
	</g>
	<g>
		<g>
			<path class="st4" d="M173,175.7c1.9,0,1.9-3,0-3C171.1,172.7,171.1,175.7,173,175.7L173,175.7z"/>
		</g>
	</g>
	<g>
		<g>
			<path class="st4" d="M164.6,125.2c1.9,0,1.9-3,0-3C162.7,122.2,162.7,125.2,164.6,125.2L164.6,125.2z"/>
		</g>
	</g>
	<g>
		<g>
			<path class="st4" d="M501.6,166.5c3.9,0,3.9-6,0-6C497.7,160.5,497.7,166.5,501.6,166.5L501.6,166.5z"/>
		</g>
	</g>
	<g>
		<g>
			<path class="st4" d="M477.1,122.9c3.9,0,3.9-6,0-6C473.2,116.9,473.2,122.9,477.1,122.9L477.1,122.9z"/>
		</g>
	</g>
	<g>
		<g>
			<path class="st4" d="M419.7,184.1c3.9,0,3.9-6,0-6C415.8,178.1,415.8,184.1,419.7,184.1L419.7,184.1z"/>
		</g>
	</g>
	<g>
		<g>
			<path class="st4" d="M562.1,215.5c3.9,0,3.9-6,0-6C558.3,209.5,558.2,215.5,562.1,215.5L562.1,215.5z"/>
		</g>
	</g>
	<g>
		<g>
			<path class="st4" d="M525.4,258.4c3.9,0,3.9-6,0-6C521.5,252.4,521.5,258.4,525.4,258.4L525.4,258.4z"/>
		</g>
	</g>
	<g>
		<g>
			<path class="st4" d="M355.3,210.2c3.9,0,3.9-6,0-6C351.5,204.2,351.4,210.2,355.3,210.2L355.3,210.2z"/>
		</g>
	</g>
	<g>
		<g>
			<path class="st4" d="M336.2,242.4c3.9,0,3.9-6,0-6C332.3,236.4,332.3,242.4,336.2,242.4L336.2,242.4z"/>
		</g>
	</g>
	<g>
		<g>
			<path class="st4" d="M177.6,246.2c3.9,0,3.9-6,0-6C173.8,240.2,173.8,246.2,177.6,246.2L177.6,246.2z"/>
		</g>
	</g>
	<g>
		<g>
			<path class="st4" d="M591.2,226.3c1.9,0,1.9-3,0-3C589.3,223.3,589.3,226.3,591.2,226.3L591.2,226.3z"/>
		</g>
	</g>
	<g>
		<g>
			<path class="st4" d="M546.8,184.9c1.9,0,1.9-3,0-3C544.9,181.9,544.9,184.9,546.8,184.9L546.8,184.9z"/>
		</g>
	</g>
	<g>
		<g>
			<path class="st4" d="M540.7,152c1.9,0,1.9-3,0-3C538.7,149,538.7,152,540.7,152L540.7,152z"/>
		</g>
	</g>
	<g>
		<g>
			<path class="st4" d="M464.1,221.7c1.9,0,1.9-3,0-3C462.1,218.7,462.1,221.7,464.1,221.7L464.1,221.7z"/>
		</g>
	</g>
	<g>
		<g>
			<path class="st4" d="M585.1,260c1.9,0,1.9-3,0-3C583.2,257,583.2,260,585.1,260L585.1,260z"/>
		</g>
	</g>
	<g>
		<g>
			<path class="st4" d="M172.3,213.3c1.9,0,1.9-3,0-3C170.3,210.3,170.3,213.3,172.3,213.3L172.3,213.3z"/>
		</g>
	</g>
	<g>
		<g>
			<path class="st4" d="M160,231.7c1.9,0,1.9-3,0-3C158.1,228.7,158.1,231.7,160,231.7L160,231.7z"/>
		</g>
	</g>
	<g>
		<g>
			<path class="st4" d="M371.4,157.4c1.9,0,1.9-3,0-3C369.5,154.4,369.5,157.4,371.4,157.4L371.4,157.4z"/>
		</g>
	</g>
	<g>
		<g>
			<path class="st4" d="M372.9,185.7c1.9,0,1.9-3,0-3C371,182.7,371,185.7,372.9,185.7L372.9,185.7z"/>
		</g>
	</g>
	<g>
		<g>
			<path class="st4" d="M425.8,165.8c1.9,0,1.9-3,0-3C423.9,162.8,423.8,165.8,425.8,165.8L425.8,165.8z"/>
		</g>
	</g>
	<g>
		<g>
			<path class="st4" d="M467.1,185.7c1.9,0,1.9-3,0-3C465.2,182.7,465.2,185.7,467.1,185.7L467.1,185.7z"/>
		</g>
	</g>
	<g>
		<g>
			<path class="st4" d="M539.9,112.9c1.9,0,1.9-3,0-3C538,109.9,538,112.9,539.9,112.9L539.9,112.9z"/>
		</g>
	</g>
	<g>
		<g>
			<path class="st4" d="M257.3,117.5c1.9,0,1.9-3,0-3C255.3,114.5,255.3,117.5,257.3,117.5L257.3,117.5z"/>
		</g>
	</g>
	<g>
		<g>
			<path class="st4" d="M511.6,212.9c1.4,0,1.5-2.3,0-2.3C510.1,210.7,510.1,212.9,511.6,212.9L511.6,212.9z"/>
		</g>
	</g>
	<g>
		<g>
			<path class="st4" d="M559.1,256.6c1.4,0,1.5-2.3,0-2.3C557.6,254.3,557.6,256.6,559.1,256.6L559.1,256.6z"/>
		</g>
	</g>
	<g>
		<g>
			<path class="st4" d="M762,246.6c1.4,0,1.5-2.3,0-2.3C760.6,244.4,760.6,246.6,762,246.6L762,246.6z"/>
		</g>
	</g>
	<g>
		<g>
			<path class="st4" d="M780.4,214.4c1.4,0,1.5-2.3,0-2.3C779,212.2,779,214.4,780.4,214.4L780.4,214.4z"/>
		</g>
	</g>
	<g>
		<g>
			<path class="st4" d="M311.7,207.5c1.4,0,1.5-2.3,0-2.3C310.2,205.3,310.2,207.5,311.7,207.5L311.7,207.5z"/>
		</g>
	</g>
	<g>
		<g>
			<path class="st4" d="M303.2,173.1c1.4,0,1.5-2.3,0-2.3C301.8,170.8,301.8,173.1,303.2,173.1L303.2,173.1z"/>
		</g>
	</g>
	<g>
		<g>
			<path class="st4" d="M62.7,77.3c1.4,0,1.5-2.3,0-2.3C61.3,75.1,61.3,77.3,62.7,77.3L62.7,77.3z"/>
		</g>
	</g>
	<g>
		<g>
			<path class="st4" d="M58.1,108c1.4,0,1.5-2.3,0-2.3C56.7,105.7,56.7,108,58.1,108L58.1,108z"/>
		</g>
	</g>
	<g>
		<g>
			<path class="st4" d="M41.3,190.7c1.4,0,1.5-2.3,0-2.3C39.8,188.4,39.8,190.7,41.3,190.7L41.3,190.7z"/>
		</g>
	</g>
	<g>
		<g>
			<path class="st4" d="M25.2,223.6c1.4,0,1.5-2.3,0-2.3C23.8,221.4,23.8,223.6,25.2,223.6L25.2,223.6z"/>
		</g>
	</g>
	<g>
		<g>
			<path class="st4" d="M37.5,223.6c1.4,0,1.5-2.3,0-2.3C36,221.4,36,223.6,37.5,223.6L37.5,223.6z"/>
		</g>
	</g>
	<g>
		<g>
			<path class="st4" d="M296.3,127.5c1,0,1-1.5,0-1.5C295.4,126,295.4,127.5,296.3,127.5L296.3,127.5z"/>
		</g>
	</g>
	<g>
		<g>
			<path class="st4" d="M545.3,219.4c1,0,1-1.5,0-1.5C544.3,217.9,544.3,219.4,545.3,219.4L545.3,219.4z"/>
		</g>
	</g>
	<g>
		<g>
			<path class="st4" d="M621.9,250.1c1,0,1-1.5,0-1.5C620.9,248.6,620.9,250.1,621.9,250.1L621.9,250.1z"/>
		</g>
	</g>
	<g>
		<g>
			<path class="st4" d="M356.8,242.4c1,0,1-1.5,0-1.5C355.9,240.9,355.9,242.4,356.8,242.4L356.8,242.4z"/>
		</g>
	</g>
</g>
</svg>
