<?xml version="1.0" encoding="utf-8"?>
<!-- Generator: Adobe Illustrator 24.0.1, SVG Export Plug-In . SVG Version: 6.00 Build 0)  -->
<svg version="1.1" xmlns="http://www.w3.org/2000/svg" xmlns:xlink="http://www.w3.org/1999/xlink" x="0px" y="0px"
	 viewBox="0 0 800 300" style="enable-background:new 0 0 800 300;" xml:space="preserve">
<style type="text/css">
	.st0{fill:#B3B3B3;}
	.st1{fill:url(#SVGID_1_);}
	.st2{fill:#CCCCCC;}
	.st3{fill:#BD0A0A;}
	.st4{fill:#FFFFFF;}
	.st5{fill:#EAEAEA;}
	.st6{fill:#AC0800;}
	.st7{font-family:'TrajanPro-Regular';}
	.st8{font-size:103.0462px;}
	.st9{fill:#4D4D4D;}
	.st10{font-size:66.8408px;}
	.st11{font-size:52.9156px;}
	.st12{fill:#666666;}
	.st13{fill:#C1001F;}
</style>
<g id="Layer_1">
	<g>
		<path class="st0" d="M800,0H0v188.7c0.1,0.4,0.2,0.8,0.1,1.3c0,0.7-0.1,1.3-0.1,2v106.6c4,0,8,0.5,11.9,1.1
			c0.7-0.5,1.6-0.7,2.6-0.7c0,0,0.1,0,0.1,0c0.7-0.5,1.7-0.7,2.8-0.6c4.8,0.4,9.6,1,14.4,1.6h6.8c1.1-1.2,2.7-1.8,4.7-1.4
			c0,0,0.1,0,0.1,0c0.6-0.2,1.3-0.3,2.1-0.2c4.8,0.5,9.5,1.1,14.3,1.6h456.5c12-1.6,24.1-1.5,36.2-1.1c9.9,0.3,19.8,0.7,29.7,1.1
			h156.7c5.5-0.5,11-1,16.6-1.6c1.8-0.2,3.1,0.5,3.9,1.6h40.3c0.2-1.5,0.3-3.1,0.4-4.6v-2.6c-0.2-6.1-0.2-12.3,0-18.4V0z"/>
	</g>
</g>
<g id="Layer_7">
	<g>
		<g>
			<linearGradient id="SVGID_1_" gradientUnits="userSpaceOnUse" x1="-0.193" y1="260.1345" x2="-0.193" y2="235.768">
				<stop  offset="0" style="stop-color:#F2F2F2"/>
				<stop  offset="0.9972" style="stop-color:#808080"/>
			</linearGradient>
			<path class="st1" d="M1.3,260.1c0-8.1,0-16.2,0-24.4c0-1.9-3-1.9-3,0c0,8.1,0,16.2,0,24.4C-1.7,262.1,1.3,262.1,1.3,260.1
				L1.3,260.1z"/>
		</g>
	</g>
	<g>
		<path class="st2" d="M801.4,235.1c-0.6-13.1-1-26.3-0.6-39.4c-17.2,4.2-36.7,11.5-45.9,13.3c-17,3.3-33-1.8-50.2-1.4
			c-28.1,0.6-48.6-0.9-76.8-0.6c-15.5,0.1-37.5,9-53,10c-32.9,2.1-66.5-13.3-99-8c-23.9,3.9-44.2,3-68.3,5.4
			c-13.2,1.3-26.6-0.8-39.8,0c-36.1,2.4-69.2,17.2-104.8,11.6c-25.8-4.1-49.1-6.4-75-10c-25.6-3.6-49,1.4-74.8,1.6
			c-23.8,0.2-46.3-10-69-17c-14.2-4.4-29.8-7.5-44.4-6.2c-0.2,2.8-0.4,5.5-0.6,8.3c0.2,0.6,0.3,1.2,0.3,1.9
			C-1,221-1.6,237.4-3.5,253.7c0.1,2,0.2,4,0.4,5.9c0,0,0.1,0,0.1,0c24.5,0.9,48.8,3.1,73.2,4.7c0.8-0.8,2-1.3,3.4-1.2
			c9.7,0.6,19.3,1.5,28.9,2.6c15,0,30.3-0.6,45.3,0.6c11.1-0.6,22.1-0.2,33.1,0.6c0.6-0.2,1.2-0.4,2-0.4c22.9,0.3,45.8,1.2,68.7,2.2
			c0.6-0.3,1.2-0.4,1.9-0.5c15.2-1.2,30.3-0.6,45.4,0.4c5.6-0.5,11.3-0.9,16.9-1.4c7.1-2.7,15.2-3.4,22.7-3.8
			c11.7-0.6,23.4,0.1,35,0.1c1.1,0,2,0.3,2.7,0.7c5.3-1,10.8-1.3,16.2-1.5c8.2-0.3,16.5-0.7,24.7-1.1c19.3-0.9,38.6-0.9,57.8-0.3
			c19.2,0.7,38.4,1.8,57.6,3.3c9.4,0.7,18.7,1.6,28.1,2.3c2,0.2,4,0.3,6,0.4c7.9-0.2,15.7-0.4,23.6-0.5c21.4-0.1,42.7,1,64.1,2.1
			c2.2,0,4.5,0,6.7,0c10.6-0.9,21.3-1.6,32-2c13.1-0.4,26.2,0,39.3,0.4c20.9-2.7,42.1-5.2,62.8-1.4c0.6-3.8,1.6-7.5,2.6-11.2
			c0.2-1,0.5-2,0.8-3c0.4-1.2,1-2,1.8-2.6C800.5,244.8,800.9,240,801.4,235.1z"/>
	</g>
</g>
<g id="Layer_12">
	<rect x="675.3" y="221" class="st3" width="24.4" height="18"/>
	<g>
		<g>
			<path class="st4" d="M686.3,222.8c0,4.4,0,8.7,0,13.1c0,1,1.5,1,1.5,0c0-4.4,0-8.7,0-13.1C687.8,221.8,686.3,221.8,686.3,222.8
				L686.3,222.8z"/>
		</g>
	</g>
	<g>
		<g>
			<path class="st4" d="M676.5,231.9c7.5,0,15,0,22.5,0c1,0,1-1.5,0-1.5c-7.5,0-15,0-22.5,0C675.5,230.4,675.5,231.9,676.5,231.9
				L676.5,231.9z"/>
		</g>
	</g>
	<g>
		<g>
			<path class="st4" d="M687.1,221.2c-0.8-0.2-1.6-0.7-2.1-1.4c-0.4-0.6-1.1-1.8-0.5-2.5c0.5-0.6,1,0.5,1.1,0.9
				c0.4,1.2,0.6,2.4,0.5,3.6c0,1,1.5,1,1.5,0c0.1-1.1,0.2-2.4,0.9-3.3c0.3-0.3,0.6-0.7,1-0.8c0.3-0.1,0.8-0.2,1,0.2
				c0.4,0.8-0.5,1.8-1.2,2.2c-1,0.7-2.2,1-3.2,1.7c-0.3,0.2-0.5,0.7-0.3,1c0.2,0.3,0.7,0.5,1,0.3c1-0.7,2.2-1,3.2-1.7
				c0.9-0.6,1.7-1.6,1.9-2.7c0.2-1.3-0.6-2.5-2-2.5c-1.2,0-2.2,0.8-2.9,1.7c-0.8,1.2-1.1,2.6-1.1,4c0.5,0,1,0,1.5,0
				c0-1.3-0.2-2.6-0.5-3.8c-0.3-1-0.8-2-1.9-2.3c-1.2-0.3-2.3,0.7-2.5,1.8c-0.2,1.1,0.3,2.3,1,3.2c0.7,1,1.7,1.7,2.9,2
				C687.7,222.9,688.1,221.4,687.1,221.2L687.1,221.2z"/>
		</g>
	</g>
	<g>
		<g>
			<path class="st4" d="M685.7,221.3c-1.5,1.2-3.1,2.3-4.6,3.5c-0.3,0.2-0.5,0.7-0.3,1c0.2,0.3,0.7,0.5,1,0.3
				c1.5-1.2,3.1-2.3,4.6-3.5c0.3-0.2,0.5-0.7,0.3-1C686.5,221.2,686,221,685.7,221.3L685.7,221.3z"/>
		</g>
	</g>
	<g>
		<g>
			<path class="st4" d="M686.4,222.5c1.6,1.4,3.2,2.8,4.6,4.4c0.3,0.3,0.8,0.3,1.1,0c0.3-0.3,0.3-0.8,0-1.1c-1.5-1.6-3-3-4.6-4.4
				c-0.3-0.3-0.8-0.3-1.1,0C686.1,221.7,686,222.2,686.4,222.5L686.4,222.5z"/>
		</g>
	</g>
	<rect x="706" y="216.2" class="st3" width="20" height="31.8"/>
	<g>
		<g>
			<path class="st4" d="M719.1,216.2c0,9.3,0,18.5,0,27.8c0,1,1.5,1,1.5,0c0-9.3,0-18.5,0-27.8C720.6,215.2,719.1,215.2,719.1,216.2
				L719.1,216.2z"/>
		</g>
	</g>
	<g>
		<g>
			<path class="st4" d="M706,228.5c6.7,0,13.3,0,20,0c1,0,1-1.5,0-1.5c-6.7,0-13.3,0-20,0C705,227,705,228.5,706,228.5L706,228.5z"
				/>
		</g>
	</g>
	<g>
		<g>
			<path class="st4" d="M720,214.5c-0.8-0.2-1.6-0.6-2.1-1.3c-0.4-0.5-1-1.6-0.6-2.2c0.5-0.7,1.1,0.3,1.2,0.7
				c0.4,1.1,0.6,2.3,0.6,3.5c0,1,1.4,1,1.5,0c0.1-1.1,0.2-2.2,0.9-3c0.3-0.4,0.7-0.7,1.1-0.8c0.3-0.1,0.8-0.2,0.9,0.2
				c0.4,0.8-0.7,1.7-1.2,2c-1,0.6-2.2,0.9-3.2,1.6c-0.8,0.5-0.1,1.8,0.8,1.3c1.8-1.2,4.8-1.6,5.2-4.2c0.2-1.2-0.6-2.3-1.9-2.4
				c-1.1-0.1-2.2,0.6-2.9,1.5c-0.9,1.1-1.2,2.5-1.2,4c0.5,0,1,0,1.5,0c0-1.3-0.2-2.5-0.6-3.7c-0.3-0.9-0.9-1.9-1.9-2.1
				c-1.3-0.2-2.3,0.8-2.4,2c-0.1,1.1,0.4,2.1,1.1,2.9c0.7,0.9,1.8,1.5,2.9,1.8C720.5,216.2,720.9,214.8,720,214.5L720,214.5z"/>
		</g>
	</g>
	<g>
		<g>
			<path class="st4" d="M718.3,214.6c-1.6,1.5-3.1,3-4.7,4.5c-0.3,0.3-0.3,0.8,0,1.1c0.3,0.3,0.8,0.3,1.1,0c1.6-1.5,3.1-3,4.7-4.5
				c0.3-0.3,0.3-0.8,0-1.1C719.1,214.3,718.6,214.3,718.3,214.6L718.3,214.6z"/>
		</g>
	</g>
	<g>
		<g>
			<path class="st4" d="M719.2,215.6c1.6,1.7,3.2,3.5,4.6,5.4c0.2,0.3,0.6,0.5,1,0.3c0.3-0.2,0.5-0.7,0.3-1c-1.5-2-3.1-3.9-4.8-5.7
				c-0.3-0.3-0.8-0.3-1.1,0C718.9,214.9,718.9,215.4,719.2,215.6L719.2,215.6z"/>
		</g>
	</g>
	<rect x="549" y="239.6" class="st3" width="19" height="14.1"/>
	<g>
		<g>
			<path class="st4" d="M557.8,241c0,3.4,0,6.8,0,10.3c0,0.5,0.8,0.5,0.8,0c0-3.4,0-6.8,0-10.3C558.6,240.6,557.8,240.6,557.8,241
				L557.8,241z"/>
		</g>
	</g>
	<g>
		<g>
			<path class="st4" d="M550,247.9c5.8,0,11.7,0,17.5,0c0.5,0,0.5-0.8,0-0.8c-5.8,0-11.7,0-17.5,0
				C549.5,247.2,549.5,247.9,550,247.9L550,247.9z"/>
		</g>
	</g>
	<g>
		<g>
			<path class="st4" d="M558.2,240c-0.7-0.2-1.3-0.6-1.8-1.2c-0.4-0.5-0.9-1.6-0.4-2.2c0.6-0.6,1.1,0.3,1.2,0.8
				c0.3,0.9,0.4,1.9,0.4,2.9c0,0.5,0.7,0.5,0.8,0c0-0.9,0.2-1.9,0.7-2.7c0.3-0.4,1.5-1.4,1.9-0.5c0.4,0.8-0.4,1.6-1,2
				c-0.8,0.5-1.7,0.8-2.5,1.3c-0.4,0.3,0,0.9,0.4,0.6c1.4-1,3.6-1.3,3.9-3.3c0.1-0.9-0.4-1.7-1.3-1.7c-0.8,0-1.6,0.6-2,1.2
				c-0.6,0.9-0.8,2-0.8,3.1c0.3,0,0.5,0,0.8,0c0-1-0.1-2-0.4-2.9c-0.2-0.7-0.6-1.5-1.3-1.7c-0.8-0.2-1.5,0.5-1.7,1.3
				c-0.1,0.8,0.2,1.7,0.7,2.3c0.5,0.7,1.3,1.2,2.1,1.4C558.4,240.8,558.6,240.1,558.2,240L558.2,240z"/>
		</g>
	</g>
	<g>
		<g>
			<path class="st4" d="M557.2,240c-1.2,0.9-2.4,1.8-3.6,2.8c-0.2,0.1-0.2,0.3-0.1,0.5c0.1,0.2,0.4,0.3,0.5,0.1
				c1.2-0.9,2.4-1.8,3.6-2.8c0.2-0.1,0.2-0.3,0.1-0.5C557.6,240,557.4,239.9,557.2,240L557.2,240z"/>
		</g>
	</g>
	<g>
		<g>
			<path class="st4" d="M557.8,240.6c1.3,1.1,2.5,2.2,3.6,3.4c0.3,0.4,0.9-0.2,0.5-0.5c-1.1-1.2-2.3-2.4-3.6-3.4
				c-0.2-0.1-0.4-0.2-0.5,0C557.6,240.2,557.6,240.5,557.8,240.6L557.8,240.6z"/>
		</g>
	</g>
</g>
<g id="Layer_8">
	<g>
		<path class="st5" d="M800.3,272.3c-0.5-10.9-0.2-21.8,0.8-32.6c-13.8-6.7-30.8-8.1-45.7-3.5c-7.8,2.4-15.3,6.5-23.6,6.6
			c-6.4,0.1-12.5-2.1-18.6-3.8c-21.7-6.1-45.5-5.9-67.1,0.4c-15.8,4.6-30.6,12.5-46.9,14.9c-39.5,5.9-79.8-20.4-118.2-10.2
			c-5.1,1.3-10.1,3.3-15.3,3.4c-7,0.1-13.5-3-19.8-5.8c-50.6-22.1-112.8-20.9-162.3,3.1c-7.1,3.5-11.6,2.4-19.6,3.1
			c-6,0.5-14.1-3.8-20-4.6c-38.9-5.7-78.8,10.1-118,5.8c-38.4-4.3-76.6-19.7-113.9-10.4c-4.5,1.1-8.9,2.7-12.7,5
			C-0.8,257.4-1.7,271.4,0,285h799.9C800,280.8,800.2,276.5,800.3,272.3z"/>
	</g>
	<g>
		<path class="st5" d="M513.2,244.4c0.1-12.2-0.3-24.4-1.2-36.5c-6.3,7.4-15.9,12-25.6,12.3c8.6-8.9,16.4-18.6,23.2-29
			c-5.6,4.3-12.6,6.7-19.7,6.8c7.9-8.3,14.7-17.6,20.2-27.5c-4.1,2.7-8.3,5.2-12.7,7.3c7-9.5,12.7-20,16.7-31.1
			c-3.2,2.1-6.4,4.2-9.6,6.3c6.6-12.3,10.6-26.1,11.5-40c0.9,17.2,8.3,34,20.4,46.4c-6.3-0.6-12.3-3.9-16.3-8.8
			c5.1,10.2,12.7,19.1,21.9,25.9c-8.2-0.2-16.4-3.3-22.7-8.6c5.2,11.2,14.2,20.5,25.1,26.2c-5.8,0.8-11.7,0.4-17.3-1.1
			c6.2,4.7,12.5,9.4,18.7,14.1c-7.1,1.2-14.5,0.9-21.5-0.9c7.9,6.6,16.7,12.2,26,16.6c-10.6,2.8-22.5,0.3-31.2-6.4
			c0.8,6.2,1.6,12.3,2.4,18.5c0.3,2.2,0.6,4.4-0.1,6.5c-0.7,2.1-2.6,4-4.8,3.8c-2.2-0.1-3.9-3-2.6-4.7L513.2,244.4z"/>
	</g>
</g>
<g id="Layer_9">
	<g>
		<path class="st2" d="M110.5,221.5c-0.5-8.4-0.9-16.8-1.4-25.2c-3.5,4-8.5,6.7-13.8,7.5c6.7-4.4,12-10.9,15-18.3
			c-3.4,2.6-7.4,4.3-11.5,5.1c4.8-4.7,8.1-10.9,9.6-17.4c-2.1,2.1-4.6,3.7-7.2,4.9c6.7-7.1,7.6-17.7,8.1-27.5
			c0.5,5.6,1,11.3,2.9,16.6c1.9,5.3,5.4,10.3,10.4,12.8c-4.7-1.1-9.3-3.1-13.4-5.8c2.8,8.4,8.8,15.7,16.6,20
			c-5-0.4-9.8-2.4-13.8-5.5c2.5,6.3,7.9,11.4,14.2,13.8c-4.1,1-8.5,0.6-12.3-1.1c0.5,4.1,0.9,8.2,1.4,12.3c0.2,2,0.4,4.3-1,5.7
			c-1.4,1.5-4.6,0.7-4.3-1.3L110.5,221.5z"/>
		<g>
			<path class="st2" d="M112,221.5c-0.5-8.4-0.9-16.8-1.4-25.2c-0.1-1.2-1.6-2.1-2.6-1.1c-3.5,3.9-8.1,6.3-13.2,7.1
				c0.4,0.9,0.8,1.8,1.2,2.7c7.1-4.7,12.5-11.4,15.7-19.2c0.5-1.2-1.2-2.5-2.2-1.7c-3.3,2.5-7.1,4.2-11.2,4.9c0.5,0.8,1,1.7,1.5,2.5
				c5-5,8.4-11.2,10-18.1c0.3-1.4-1.4-2.5-2.5-1.5c-2,2-4.4,3.5-6.9,4.7c0.6,0.8,1.2,1.6,1.8,2.4c7.1-7.7,8-18.6,8.6-28.5
				c-1,0-2,0-3,0c1,11.3,2.8,24.9,14.1,30.7c0.4-0.9,0.8-1.8,1.2-2.7c-4.6-1.1-9-3-13-5.6c-1.1-0.7-2.6,0.5-2.2,1.7
				c3,8.8,9.2,16.3,17.3,20.9c0.3-0.9,0.5-1.9,0.8-2.8c-4.6-0.5-9.1-2.2-12.7-5c-1-0.8-3.2-0.1-2.5,1.5c2.8,6.9,8.3,12.2,15.3,14.8
				c0-1,0-1.9,0-2.9c-3.7,0.8-7.7,0.5-11.2-1c-0.9-0.4-2.4,0-2.3,1.3c0.5,4.2,1,8.4,1.5,12.7c0.1,1.2,0.5,3.5-0.7,4.4
				c-0.3,0.2-0.7,0.3-1.1,0.2c-0.5-0.1-0.6-0.2-0.5-0.5c-1,0-2,0-3,0c0.1,1.1,0.2,2.3,0.3,3.4C109.2,223.4,112.2,223.5,112,221.5
				c-0.1-1.1-0.2-2.3-0.3-3.4c-0.2-1.9-2.8-1.9-3,0c-0.2,2,1.6,3.3,3.4,3.5c2.2,0.2,3.9-1.1,4.6-3.1c0.9-2.4,0.2-5.2,0-7.6
				c-0.4-3.2-0.7-6.4-1.1-9.6c-0.8,0.4-1.5,0.9-2.3,1.3c4.3,1.9,8.9,2.3,13.5,1.3c1.6-0.4,1.3-2.4,0-2.9
				c-5.9-2.2-10.8-6.9-13.2-12.7c-0.8,0.5-1.7,1-2.5,1.5c4.3,3.4,9.4,5.4,14.8,5.9c1.5,0.1,2-2.1,0.8-2.8
				c-7.4-4.2-13.2-11-15.9-19.1c-0.7,0.6-1.5,1.1-2.2,1.7c4.2,2.7,8.8,4.7,13.7,5.9c1.6,0.4,2.7-1.9,1.2-2.7
				c-10.2-5.2-11.7-17.9-12.6-28.1c-0.2-1.9-2.9-2-3,0c-0.5,9.1-1.2,19.4-7.7,26.4c-1.2,1.3,0.3,3.1,1.8,2.4c2.8-1.3,5.3-3,7.5-5.2
				c-0.8-0.5-1.7-1-2.5-1.5c-1.4,6.4-4.6,12.1-9.2,16.8c-1.1,1.1,0,2.8,1.5,2.5c4.3-0.8,8.4-2.6,11.9-5.2c-0.7-0.6-1.5-1.1-2.2-1.7
				c-2.9,7.1-8,13.2-14.3,17.4c-1.5,1-0.5,3,1.2,2.7c5.6-0.9,10.7-3.7,14.5-7.9c-0.9-0.4-1.7-0.7-2.6-1.1c0.5,8.4,0.9,16.8,1.4,25.2
				C109.1,223.4,112.2,223.5,112,221.5z"/>
		</g>
	</g>
</g>
<g id="Layer_13">
	<rect x="183.8" y="266.8" class="st3" width="41.1" height="17"/>
	<g>
		<g>
			<path class="st4" d="M202.7,267.6c0,5.1,0,10.3,0,15.4c0,1,1.5,1,1.5,0c0-5.1,0-10.3,0-15.4C204.2,266.7,202.7,266.6,202.7,267.6
				L202.7,267.6z"/>
		</g>
	</g>
	<g>
		<g>
			<path class="st4" d="M184.7,276.7c13.4,0,26.9,0,40.3,0c1,0,1-1.5,0-1.5c-13.4,0-26.9,0-40.3,0
				C183.7,275.2,183.7,276.7,184.7,276.7L184.7,276.7z"/>
		</g>
	</g>
	<g>
		<g>
			<path class="st4" d="M203.9,266c-1.1-0.2-2.1-0.6-3-1.3c-0.5-0.5-1.6-1.7-1-2.4c0.7-0.9,1.8-0.2,2.2,0.5c0.7,1.1,0.9,2.5,0.9,3.8
				c0,1,1.4,1,1.5,0c0.1-1.3,0.5-2.6,1.5-3.4c0.5-0.4,1.1-0.7,1.7-0.8c0.4-0.1,1.2-0.1,1.5,0.4c0.2,0.4-0.2,0.9-0.5,1.2
				c-0.5,0.5-1.1,0.8-1.8,1.1c-1.3,0.5-2.7,0.9-4,1.5c-0.9,0.4-0.1,1.7,0.8,1.3c1.7-0.9,3.6-1.1,5.2-2.2c1.3-0.9,2.6-2.7,1.2-4.1
				c-1.3-1.3-3.6-0.6-4.9,0.3c-1.6,1.1-2.1,2.8-2.3,4.7c0.5,0,1,0,1.5,0c0-1.7-0.3-3.7-1.4-5.1c-1-1.3-2.9-1.6-4.1-0.4
				c-1.2,1.2-0.5,3,0.5,4.1c1,1.2,2.6,1.9,4.1,2.2C204.4,267.7,204.8,266.2,203.9,266L203.9,266z"/>
		</g>
	</g>
	<g>
		<g>
			<path class="st4" d="M202.3,266.1c-1.9,1.1-3.8,2.2-5.7,3.2c-0.8,0.5-0.1,1.8,0.8,1.3c1.9-1.1,3.8-2.2,5.7-3.2
				C203.9,266.9,203.1,265.6,202.3,266.1L202.3,266.1z"/>
		</g>
	</g>
	<g>
		<g>
			<path class="st4" d="M202.8,267.4c2,1,3.9,2.1,5.8,3.2c0.8,0.5,1.6-0.8,0.8-1.3c-1.9-1.2-3.8-2.2-5.8-3.2c-0.4-0.2-0.8-0.1-1,0.3
				C202.3,266.7,202.4,267.2,202.8,267.4L202.8,267.4z"/>
		</g>
	</g>
	<rect x="229.4" y="254" class="st3" width="37.6" height="30.1"/>
	<g>
		<g>
			<path class="st4" d="M238.8,253.1c0,8.6,0,17.3,0,25.9c0,1,1.5,1,1.5,0c0-8.6,0-17.3,0-25.9C240.3,252.1,238.8,252.1,238.8,253.1
				L238.8,253.1z"/>
		</g>
	</g>
	<g>
		<g>
			<path class="st4" d="M229,271c12.7,0,25.3,0,38,0c1,0,1-1.5,0-1.5c-12.7,0-25.3,0-38,0C228,269.5,228,271,229,271L229,271z"/>
		</g>
	</g>
	<g>
		<g>
			<path class="st4" d="M239.8,252.5c-1.2-0.3-2.3-0.9-3.2-1.9c-0.7-0.8-1.6-2.5-0.8-3.5c0.9-1.1,1.9,0.3,2.2,1.2
				c0.5,1.5,0.8,3.1,0.8,4.7c0,1,1.4,1,1.5,0c0.1-1.6,0.3-3.2,1.4-4.4c0.5-0.5,1-0.9,1.7-1.1c0.6-0.2,1.4-0.3,1.7,0.4
				c0.5,1.3-1,2.5-1.9,3.1c-1.4,0.8-3,1.2-4.4,2.1c-0.8,0.5-0.1,1.8,0.8,1.3c1.4-0.9,3-1.3,4.4-2.1c1.2-0.7,2.5-1.9,2.7-3.3
				c0.3-1.5-0.6-3-2.2-3.1c-1.5-0.1-3,0.8-3.9,1.9c-1.2,1.5-1.6,3.4-1.7,5.2c0.5,0,1,0,1.5,0c0-2-0.3-4.2-1.2-6
				c-0.4-0.7-1-1.4-1.8-1.7c-0.9-0.3-1.8,0-2.5,0.6c-1.4,1.4-0.8,3.7,0.2,5.1c1,1.4,2.6,2.4,4.3,2.9
				C240.3,254.1,240.7,252.7,239.8,252.5L239.8,252.5z"/>
		</g>
	</g>
	<g>
		<g>
			<path class="st4" d="M237.5,253.3c-1.9,1.4-3.9,2.8-5.8,4.1c-0.3,0.2-0.5,0.7-0.3,1c0.2,0.3,0.7,0.5,1,0.3
				c1.9-1.4,3.9-2.8,5.8-4.1c0.3-0.2,0.5-0.7,0.3-1C238.3,253.3,237.8,253.1,237.5,253.3L237.5,253.3z"/>
		</g>
	</g>
	<g>
		<g>
			<path class="st4" d="M238.8,254.7c2.3,1.3,4.6,2.6,6.8,4.1c0.3,0.2,0.8,0.1,1-0.3c0.2-0.4,0.1-0.8-0.3-1
				c-2.2-1.5-4.5-2.9-6.8-4.1C238.7,252.9,238,254.2,238.8,254.7L238.8,254.7z"/>
		</g>
	</g>
</g>
<g id="Layer_2">
	<g>
		<g>
			<path class="st4" d="M1.9,297.1c0-13.9,0-27.8,0-41.7c0-1.9-3-1.9-3,0c0,13.9,0,27.8,0,41.7C-1.1,299.1,1.9,299.1,1.9,297.1
				L1.9,297.1z"/>
		</g>
	</g>
	<g>
		<path class="st4" d="M799.2,271.6c-3.8-2.7-8.1-4.5-12.6-5.8c-36.9-10.7-74.1,13.4-112.1,18.4c-38.7,5-78.1-10.2-116.7-3.6
			c-5.9,1-11.8,2.5-17.7,1.9c-7.9-0.9-15-5.4-22-9.4c-49-27.8-110.5-29.2-160.5-3.6c-6.2,3.2-12.6,6.8-19.6,6.7
			c-5.2-0.1-10.2-2.4-15.2-4c-38-11.8-77.8,18.7-116.9,11.8c-16.2-2.8-30.8-11.9-46.4-17.3c-21.4-7.3-44.9-7.5-66.3-0.4
			c-6,2-12.1,4.5-18.4,4.4c-8.2-0.2-15.6-4.8-23.4-7.7c-17.2-6.3-37.3-3-51.9,8.5l0,30c4.1,0,8.3,0.5,12.3,1.2
			c0.7-0.5,1.6-0.8,2.6-0.8c0,0,0.1,0,0.1,0c0.7-0.5,1.7-0.7,2.8-0.6c6.9,0.7,13.7,1.6,20.6,2.5c1-1.7,2.9-2.9,5.3-2.4
			c0,0,0.1,0,0.1,0c0.6-0.2,1.3-0.3,2.1-0.2c12.6,1.5,25.2,2.9,37.8,4.3c3.8,0.1,7.6,0.2,11.5,0.3c0.8-1.2,2.1-2.1,3.9-2.1h412.6
			c13.6-2.4,27.4-2.5,41.2-2c15,0.6,30,1.1,44.9,1.9c9.6,0.5,19.1,1,28.6,1.5c13.4-1.1,26.9-0.9,40.3-0.2c13-1,26.1-0.2,39.2,1.1
			c2-0.1,3.9-0.3,5.9-0.4c1.8-0.2,3.7-0.4,5.5-0.5c1.6-0.2,3.3-0.4,4.9-0.5c11.2-1.1,22.4-2.2,33.5-3.4c3-0.3,4.6,1.8,4.8,4.2
			c13-1.4,26-2.3,39.1-2.4c0.1,0,0.2,0,0.4,0C799.8,292.6,799.4,282,799.2,271.6z"/>
		<g>
			<path class="st4" d="M800,270.3c-24.6-16.6-57.6-6.5-83.2,1.6c-14.8,4.6-29.6,9.5-45.1,11.1c-16.1,1.7-32.2,0-48.2-1.9
				c-16-1.9-32-4.2-48.2-3.8c-7.5,0.2-14.8,1.2-22.2,2.5c-4.2,0.8-8.6,1.5-12.9,1c-4.6-0.5-8.9-2.4-13-4.6
				c-12.6-6.6-24.6-13.4-38.2-17.9c-13.4-4.5-27.4-7.2-41.5-8.3c-28.2-2.1-56.9,2.7-82.8,14.2c-7.1,3.2-13.9,7.9-21.5,9.6
				c-8.4,2-16-2.6-24-4.5c-12.5-2.9-25.5-1.6-38,1.1c-27.8,5.9-55.7,18.5-84.3,9.5c-15-4.7-28.6-13-43.8-17
				c-14.6-3.9-30-4.6-44.9-2.1c-8,1.3-15.4,4-23.1,6.3c-4.2,1.3-8.4,2.1-12.8,1.5c-4.4-0.6-8.4-2.3-12.4-4
				c-12.5-5.4-24.7-8.1-38.2-5.3c-6.2,1.3-12.3,3.7-17.7,7C1,268.3-2,269.5-2,273c0,7.5,0,15.1,0,22.6c0,1.9,0,3.8,0,5.8
				c0,0.8,0.7,1.5,1.5,1.5c2.1,0,4.1,0.1,6.2,0.3c1.8,0.2,4,0.9,5.7,0.8c1.3-0.1,2.6-0.6,3.8-0.9c3.4-0.8,7.4,0.1,10.9,0.6
				c3.8,0.5,7.6,1,11.3,1.5c0.7,0.1,1.3-0.1,1.7-0.7c2.9-4,13.3-0.9,17.2-0.5c6.3,0.7,12.6,1.4,18.9,2.1c6,0.7,11.9,1.1,17.9,1.1
				c2.6,0,3-1.6,5.4-2.1c1.8-0.3,3.9,0,5.7,0c11.4,0,22.8,0,34.2,0c43,0,85.9,0,128.9,0c49.1,0,98.2,0,147.2,0c30.4,0,60.8,0,91.1,0
				c1.7,0,3.5,0.1,5.3,0c3.6-0.3,7.1-1.1,10.7-1.4c6.1-0.6,12.2-0.8,18.3-0.8c12.3,0,24.7,0.7,37.1,1.2c12.6,0.5,25.1,1.2,37.6,1.8
				c6.1,0.3,12,0.5,18.1,0.1c6.4-0.3,12.9-0.4,19.4-0.3c5.7,0.1,11.4,0.6,17,0.3c6.8-0.4,13.6-0.3,20.3,0.1
				c5.7,0.3,11.5,1.3,17.2,1.1c6-0.2,12-1,17.9-1.6c5.6-0.5,11.2-1.1,16.8-1.7c3-0.3,6.1-0.6,9.1-0.9c3.2-0.3,7.2-1.6,7.9,2.7
				c0.1,0.6,0.9,1.2,1.4,1.1c12.9-1.4,26.5-3.2,39.5-2.4c0.8,0,1.5-0.7,1.5-1.5c0.2-10.5-0.2-21-0.4-31.5c0-1.9-3-1.9-3,0
				c0.2,10.5,0.5,21,0.4,31.5c0.5-0.5,1-1,1.5-1.5c-13-0.8-26.6,1-39.5,2.4c0.5,0.4,1,0.7,1.4,1.1c-0.4-2.8-2.2-5-5.2-5.4
				c-2.7-0.3-5.9,0.5-8.7,0.8c-3.6,0.4-7.1,0.7-10.7,1.1c-5.9,0.6-11.8,1.1-17.7,1.7c-5.7,0.6-11.3,1.4-17,0.9
				c-6.3-0.6-12.5-1-18.8-1.2c-6.8-0.2-13.5,0.5-20.3,0.2c-5.7-0.3-11.4-0.4-17-0.4c-6.7,0-13.4,0.7-20.1,0.8
				c-12.6,0.1-25.4-1.4-37.9-2c-12.9-0.6-25.8-1.1-38.7-1.5c-11.8-0.4-23.8-0.2-35.5,1.6c-1.4,0.2-2.5,0.4-3.8,0.5
				c-8.6,0.3-17.3,0-25.9,0c-17.8,0-35.5,0-53.3,0c-49.2,0-98.3,0-147.5,0c-45.5,0-91,0-136.5,0c-13.2,0-26.3,0-39.5,0
				c-2.7,0-5.3-0.1-8,0c-1.7,0-3,0.4-4.5,1.3c-1.3,0.7-0.3,0.5-1.6,0.8c-1.1,0.3-3.1-0.1-4.3-0.1c-2.4-0.1-4.9-0.1-7.3-0.3
				c-6.8-0.6-13.7-1.5-20.5-2.3c-5.7-0.7-11.5-1.7-17.3-1.8c-3.1-0.1-5.4,0.6-7.3,3.2c0.6-0.2,1.1-0.5,1.7-0.7
				c-3.6-0.5-7.1-1-10.7-1.4c-3.5-0.4-8-1.7-11.6-1.1c-1.6,0.3-3.1,1-4.8,1.2c-3.8,0.3-8-0.9-11.8-1c0.5,0.5,1,1,1.5,1.5
				c0-6.1,0-12.1,0-18.2c0-3.4,0-6.7,0-10.1c0-0.3-0.1-1,0-1.3c0.1-0.4,0.2-0.4,0.1-0.3c0.1-0.1,2.6-1.5,3.2-1.9
				c1.8-1.1,3.6-2.2,5.5-3.1c12.8-6.2,27.8-7.2,41.2-2.4c6.9,2.5,13.3,6.4,20.7,7.5c7.2,1,13.9-1.5,20.5-3.7
				c15.3-5.1,31.6-6.8,47.6-4.6c15.8,2.2,29.8,8.9,44.3,15c13.1,5.5,26.2,8.7,40.4,7.7c13.4-1,26.5-4.7,39.5-8.3
				c13.3-3.6,26.9-7.2,40.8-7.1c7,0.1,13.8,1.3,20.4,3.6c6.7,2.3,12.9,4.1,20,2.1c6.7-1.9,12.8-5.9,19.1-8.8c6.9-3.2,14-5.8,21.2-8
				c13.7-4.1,27.9-6.5,42.2-7c28.9-1.1,58,5.1,83.7,18.4c6.4,3.3,12.5,7.4,19.1,10.2c6.4,2.7,12.7,3.1,19.5,2.1
				c8.4-1.3,16.6-2.8,25.1-3c7.8-0.2,15.6,0.2,23.3,0.9c15.6,1.4,31.1,4,46.8,5c15.2,1,30.1,0,44.9-3.6c28.3-6.8,57-21.6,86.8-17.4
				c7.5,1.1,15,3.3,21.3,7.6C800.1,274,801.6,271.4,800,270.3z"/>
		</g>
	</g>
	<g>
		<path class="st4" d="M48.9,268.1c-0.8-18.6-1.5-37.1-2.3-55.7c-4.5,10.7-15.1,19.2-27.5,22.1c6.6-10.6,13.3-21.3,19.9-31.9
			c-7,5.5-16.7,8.4-26,7.6c11.2-7.5,20.3-17.6,26.2-29c-7.5,2.3-14.9,4.5-22.4,6.8c14-11.4,24-26.7,28.4-43.1
			c-6.4,4.3-12.8,8.6-19.2,12.9C38.9,129.4,47.4,99.4,51.4,69c-2.7,32.6,2.7,68.1,27.6,92c-10.3-1.8-19.9-6.9-26.5-14.2
			c4.8,13.5,15.6,25.1,29.6,31.8c-9.1-1.5-18-4.4-26-8.6c10,12.8,23.3,23.6,38.6,31.2c-12.7,3.4-27,1.9-38.5-4.1
			c10,12.1,23.5,21.8,38.8,28c-14.1,6.4-33.5,0.6-40.4-12.2c1.3,17.8,2.6,35.6,3.8,53.4c0.2,2.4,0.1,5.2-2,6.6
			c-2.4,1.6-6.1,0.3-7.6-2c-1.5-2.3-1.6-5.1-1.5-7.8L48.9,268.1z"/>
		<g>
			<path class="st4" d="M50.4,268.1c-0.8-18.6-1.5-37.1-2.3-55.7c-0.1-1.3-2.2-2.2-2.8-0.8c-4.7,11-15.1,18.7-26.6,21.4
				c0.6,0.7,1.1,1.5,1.7,2.2c6.6-10.6,13.3-21.3,19.9-31.9c1-1.6-1.1-2.8-2.4-1.8c-7,5.4-16.1,7.8-24.9,7.2c0.3,0.9,0.5,1.9,0.8,2.8
				c11.1-7.5,20.5-17.6,26.8-29.5c0.6-1.1-0.4-2.6-1.7-2.2c-7.5,2.3-14.9,4.5-22.4,6.8c0.5,0.8,1,1.7,1.5,2.5
				c10.7-8.8,19.5-20.1,25-32.8c1.5-3.6,2.8-7.2,3.9-11c0.3-1.2-1.1-2.4-2.2-1.7c-6.4,4.3-12.8,8.6-19.2,12.9
				c0.7,0.7,1.4,1.4,2.1,2.1c9.9-22.3,17.4-45.6,22.1-69.4c1.3-6.7,2.4-13.4,3.3-20.1c-1,0-2,0-3,0c-1.1,13-0.8,26.2,1.3,39.1
				c2.1,12.8,6.2,25.3,12.9,36.5c3.8,6.4,8.5,12.3,13.9,17.5c0.5-0.8,1-1.7,1.5-2.5c-9.8-1.7-19.1-6.4-25.9-13.8c-1-1.1-3,0-2.5,1.5
				c5.2,14.5,16.5,26.1,30.3,32.7c0.4-0.9,0.8-1.8,1.2-2.7c-8.9-1.5-17.6-4.3-25.7-8.4c-1.6-0.8-2.8,1-1.8,2.4
				c10.4,13.2,23.9,23.9,38.9,31.4c0.1-0.9,0.2-1.8,0.4-2.7c-12.4,3.3-25.9,1.9-37.3-3.9c-1.6-0.8-2.9,1.1-1.8,2.4
				c10.5,12.6,24.3,22.2,39.5,28.4c-0.1-0.9-0.2-1.8-0.4-2.7c-10.3,4.6-23.8,2.5-32.5-4.6c-2.4-2-4.4-4.3-5.9-7
				c-0.7-1.3-2.9-0.7-2.8,0.8c0.8,10.6,1.5,21.1,2.3,31.7c0.4,5.3,0.8,10.6,1.1,15.8c0.2,2.4,0.5,4.8,0.5,7.3c0,1.6-0.2,3.6-1.8,4.2
				c-1.7,0.7-3.9-0.3-5-1.7c-1.5-2-1.4-4.7-1.4-7.1c-1,0.1-2,0.3-2.9,0.4c0.5,1.6,1,3.3,1.5,4.9c0.6,1.8,3.5,1.1,2.9-0.8
				c-0.5-1.6-1-3.3-1.5-4.9c-0.5-1.6-2.9-1.3-2.9,0.4c-0.1,4.7,0.7,9.8,5.8,11.6c1.9,0.7,4.2,0.6,5.9-0.7c1.8-1.3,2.4-3.4,2.5-5.5
				c0.1-2.7-0.3-5.4-0.5-8.1c-0.2-3-0.4-5.9-0.6-8.9c-0.4-6-0.9-12-1.3-18.1c-0.5-6.8-1-13.7-1.5-20.5c-0.9,0.3-1.9,0.5-2.8,0.8
				c6,11,19.8,16.4,31.9,15.4c3.7-0.3,7.2-1.2,10.5-2.7c1.3-0.6,0.7-2.3-0.4-2.7c-14.7-6-28-15.4-38.2-27.7
				c-0.6,0.8-1.2,1.6-1.8,2.4c12.1,6.2,26.5,7.7,39.6,4.2c1.2-0.3,1.5-2.2,0.4-2.7c-14.8-7.4-28.1-17.9-38.3-31
				c-0.6,0.8-1.2,1.6-1.8,2.4c8.3,4.2,17.2,7.2,26.4,8.7c1.5,0.3,2.8-1.9,1.2-2.7c-13-6.2-24-17.1-28.9-30.9c-0.8,0.5-1.7,1-2.5,1.5
				c7.1,7.7,16.9,12.7,27.2,14.6c1.4,0.2,2.6-1.4,1.5-2.5c-9.3-8.9-16.2-19.9-20.7-32c-4.4-11.9-6.5-24.6-7-37.3
				c-0.3-7.2-0.1-14.4,0.5-21.6c0.2-2-2.8-1.9-3,0c-3.1,23.6-9,46.9-17.3,69.2c-2.4,6.4-4.9,12.6-7.7,18.8c-0.5,1.2,0.7,3,2.1,2.1
				c6.4-4.3,12.8-8.6,19.2-12.9c-0.7-0.6-1.5-1.1-2.2-1.7C39.4,161.3,29.2,176,15.9,187c-1.2,1,0.1,2.9,1.5,2.5
				c7.5-2.3,14.9-4.5,22.4-6.8c-0.6-0.7-1.1-1.5-1.7-2.2C32,192,23,201.7,12.3,209c-1.3,0.8-0.7,2.7,0.8,2.8
				c9.7,0.7,19.4-2.2,27.1-8.1c-0.8-0.6-1.6-1.2-2.4-1.8c-6.6,10.6-13.3,21.3-19.9,31.9c-0.7,1.2,0.5,2.5,1.7,2.2
				c12.2-2.9,23.4-11.1,28.4-22.8c-0.9-0.3-1.9-0.5-2.8-0.8c0.8,18.6,1.5,37.1,2.3,55.7C47.5,270,50.5,270.1,50.4,268.1z"/>
		</g>
	</g>
	<g>
		<path class="st4" d="M143.5,275c0.2-12-0.2-23.9-1.2-35.9c-1.5,7.9-7.6,14.9-15.6,17.7c5.2-8.7,9.9-17.7,14.1-26.9
			c-3.3,3.6-7.7,6.2-12.5,7.6c5.9-7.2,10.4-15.4,13.1-24.1c-3.1,2.3-6.4,4.1-10,5.6c7.2-12.5,11-26.8,10.7-41
			c1.4,14.4,4.2,29.9,15.2,39.9c-4.2-0.6-8.3-2.2-11.8-4.5c3.8,9.4,10,17.9,17.9,24.7c-6.3-0.7-12.3-3-17.3-6.7
			c4.5,8.5,11,16.2,18.9,22.2c-6.9,0-13.7-3.6-17.2-9.3c0.6,7.8,1.2,15.6,1.9,23.3c0.2,2.1,0.2,4.6-1.5,6s-5.3-0.4-4.1-2.2
			L143.5,275z"/>
		<g>
			<path class="st4" d="M145,275c0.2-12-0.2-23.9-1.2-35.9c-0.1-1.6-2.6-2.2-2.9-0.4c-1.5,7.6-7.2,14-14.5,16.7
				c0.6,0.7,1.1,1.5,1.7,2.2c5.1-8.7,9.8-17.7,14.1-26.9c0.7-1.5-1.1-3.1-2.4-1.8c-3.3,3.4-7.3,5.9-11.9,7.2c0.5,0.8,1,1.7,1.5,2.5
				c6-7.4,10.6-15.7,13.5-24.7c0.4-1.2-1.1-2.5-2.2-1.7c-3,2.2-6.2,4-9.7,5.4c0.6,0.7,1.1,1.5,1.7,2.2c7.3-12.7,11.2-27.2,10.9-41.8
				c-1,0-2,0-3,0c1.5,14.6,4.3,30.5,15.7,40.9c0.5-0.8,1-1.7,1.5-2.5c-4.1-0.6-8-2.1-11.5-4.3c-1-0.7-2.7,0.5-2.2,1.7
				c4,9.8,10.3,18.5,18.2,25.4c0.4-0.9,0.7-1.7,1.1-2.6c-6-0.7-11.7-2.9-16.6-6.5c-1.3-0.9-2.7,0.8-2.1,2.1
				c4.8,8.9,11.5,16.6,19.4,22.7c0.3-0.9,0.5-1.9,0.8-2.8c-6.3,0-12.5-3.2-15.9-8.5c-0.7-1.2-2.9-0.8-2.8,0.8
				c0.5,6.2,1,12.4,1.5,18.6c0.1,1.5,0.2,3,0.4,4.5c0.1,1.1,0.2,2.3,0,3.5c-0.2,0.8-0.6,1.7-1.5,1.8c-0.4,0-0.7-0.1-1.1-0.3
				c-0.1-0.1-0.2-0.2-0.3-0.2c0,0,0.1,0.1,0.1,0.1c-0.9-0.4-1.8-0.8-2.7-1.2c-0.2,1.2-0.4,2.4-0.6,3.6c-0.3,1.9,2.6,2.7,2.9,0.8
				c0.2-1.2,0.4-2.4,0.6-3.6c0.2-1.5-1.9-2.8-2.7-1.2c-1.4,2.7,1.3,5,3.9,5c3.3,0,4.6-3.5,4.6-6.3c0-4-0.6-8.1-0.9-12.1
				c-0.3-4.3-0.7-8.6-1-12.9c-0.9,0.3-1.9,0.5-2.8,0.8c3.9,6.3,11.1,10,18.4,10c1.6,0,1.9-1.9,0.8-2.8c-7.6-5.8-13.9-13.2-18.4-21.6
				c-0.7,0.7-1.4,1.4-2.1,2.1c5.3,3.9,11.6,6.2,18.1,6.9c1.3,0.1,2-1.7,1.1-2.6c-7.6-6.6-13.7-14.8-17.5-24.1
				c-0.7,0.6-1.5,1.1-2.2,1.7c3.7,2.4,7.8,3.9,12.2,4.6c1.3,0.2,2.7-1.4,1.5-2.5c-10.8-9.8-13.4-24.9-14.8-38.8c-0.2-1.9-3-2-3,0
				c0.2,14.1-3.5,28.1-10.5,40.3c-0.6,1,0.4,2.7,1.7,2.2c3.7-1.5,7.2-3.4,10.4-5.7c-0.7-0.6-1.5-1.1-2.2-1.7
				c-2.7,8.5-7.1,16.5-12.8,23.4c-0.9,1.1-0.1,3,1.5,2.5c5-1.5,9.6-4.2,13.2-8c-0.8-0.6-1.6-1.2-2.4-1.8
				c-4.2,9.2-8.9,18.2-14.1,26.9c-0.6,1.1,0.4,2.7,1.7,2.2c8.2-3,14.9-10.1,16.6-18.8c-1-0.1-2-0.3-2.9-0.4
				c1,11.9,1.5,23.9,1.2,35.9C142,276.9,145,276.9,145,275z"/>
		</g>
	</g>
	<g>
		<path class="st4" d="M605.5,285.9c-1.3-12.3-1.7-24.7-1.2-37.1c2.8,8,12,14.5,23.3,16.5c-8-8.4-15.3-17.1-22-26.1
			c5,3.3,11.4,5.5,18.2,6.4c-8.9-6.7-15.9-14.7-20.5-23.3c4.5,2,9.4,3.5,14.5,4.6c-11.2-12.1-17.7-26.4-18.5-41.1
			c-0.8,15-3.4,31.3-18.1,42.8c5.9-1.1,11.5-3.2,16.2-6c-4.6,10.1-12.6,19.6-23,27.5c8.8-1.4,17.1-4.5,23.8-8.9
			c-5.7,9.3-14.2,17.9-24.7,25c9.7-0.7,18.9-5.3,23.3-11.5c-0.2,8.1-0.4,16.2-0.7,24.3c-0.1,2.2,0.1,4.7,2.6,6s7.3-1,5.6-2.7
			L605.5,285.9z"/>
		<g>
			<path class="st4" d="M607,285.9c-1.3-12.3-1.7-24.7-1.2-37.1c-1,0.1-2,0.3-2.9,0.4c3.6,10.1,14.4,15.7,24.4,17.6
				c1.4,0.3,2.5-1.4,1.5-2.5c-7.8-8.2-15-16.8-21.8-25.8c-0.7,0.7-1.4,1.4-2.1,2.1c5.7,3.7,12.3,5.7,19,6.6c1.7,0.2,1.8-2,0.8-2.8
				c-8.1-6.2-15.1-13.8-19.9-22.8c-0.7,0.7-1.4,1.4-2.1,2.1c4.8,2.1,9.8,3.7,14.9,4.8c1.5,0.3,2.5-1.4,1.5-2.5
				c-10.2-11-17.2-24.9-18.1-40c-0.1-1.9-2.9-1.9-3,0c-0.6,11.8-2.6,23.9-9.7,33.7c-2.2,3.1-5,5.7-7.9,8.1c-1.3,1,0.2,2.8,1.5,2.5
				c5.8-1.1,11.5-3.1,16.6-6.1c-0.7-0.7-1.4-1.4-2.1-2.1c-5,10.8-13.1,19.9-22.5,27c-1.4,1-0.6,3,1.2,2.7c8.5-1.4,16.9-4.3,24.1-9
				c-0.7-0.7-1.4-1.4-2.1-2.1c-6.1,9.9-14.6,18-24.2,24.5c-1.1,0.8-0.8,2.9,0.8,2.8c9.2-0.8,19.1-4.5,24.6-12.3
				c-0.9-0.3-1.9-0.5-2.8-0.8c-0.1,5-0.3,9.9-0.4,14.9c-0.1,2.3-0.1,4.6-0.2,6.9c-0.1,1.9-0.2,3.8,0.2,5.6c0.7,3.3,3.8,5.1,7,4.5
				c2.5-0.5,5.8-2.8,3.5-5.5c-1-1.1-2.9,0.1-2.5,1.5c0.4,1.2,0.7,2.4,1.1,3.6c0.5,1.8,3.4,1.1,2.9-0.8c-0.4-1.2-0.7-2.4-1.1-3.6
				c-0.8,0.5-1.7,1-2.5,1.5c-0.4-0.4,0.3-0.5-0.2-0.3c-0.4,0.1-0.7,0.4-1.1,0.6c-0.9,0.3-1.9,0.4-2.8-0.1c-2.2-1.3-1.5-4.9-1.5-7
				c0.2-7.3,0.4-14.5,0.6-21.8c0-1.6-2-1.9-2.8-0.8c-4.9,6.8-14,10.1-22,10.8c0.3,0.9,0.5,1.9,0.8,2.8c10-6.8,18.9-15.2,25.2-25.6
				c0.8-1.3-0.8-2.9-2.1-2.1c-7.1,4.6-15.1,7.4-23.4,8.7c0.4,0.9,0.8,1.8,1.2,2.7c9.8-7.4,18.4-16.8,23.6-28.1
				c0.6-1.3-0.7-2.9-2.1-2.1c-4.9,2.8-10.3,4.7-15.9,5.8c0.5,0.8,1,1.7,1.5,2.5c5.3-4.2,9.6-9.5,12.5-15.6
				c2.7-5.6,4.2-11.7,5.1-17.9c0.5-3.5,0.8-6.9,1-10.4c-1,0-2,0-3,0c1,15.9,8.2,30.6,18.9,42.2c0.5-0.8,1-1.7,1.5-2.5
				c-4.9-1-9.6-2.5-14.2-4.5c-1.3-0.6-2.8,0.6-2.1,2.1c5.1,9.5,12.5,17.4,21,23.9c0.3-0.9,0.5-1.9,0.8-2.8
				c-6.2-0.8-12.2-2.8-17.5-6.2c-1.2-0.8-3,0.8-2.1,2.1c6.9,9.3,14.3,18.1,22.2,26.4c0.5-0.8,1-1.7,1.5-2.5
				c-8.8-1.6-19-6.4-22.3-15.5c-0.6-1.6-2.9-1.3-2.9,0.4c-0.5,12.4-0.1,24.8,1.2,37.1C604.2,287.8,607.2,287.9,607,285.9z"/>
		</g>
	</g>
</g>
<g id="Layer_5">
	<text transform="matrix(0.9949 0 0 1 134 153.6201)" class="st6 st7 st8">&amp;</text>
</g>
<g id="Layer_6">
	<text transform="matrix(0.9949 0 0 1 218.8896 153.7764)" class="st9 st7 st10">chill</text>
</g>
<g id="Layer_4">
	<text transform="matrix(0.9949 0 0 1 156.6943 98.248)" class="st9 st7 st11">Christmas</text>
</g>
<g id="Layer_10">
	<g>
		<g>
			<path class="st4" d="M129,41.8c2.4,0,4.6-2.1,4.5-4.5c-0.1-2.4-2-4.5-4.5-4.5c-2.4,0-4.6,2.1-4.5,4.5
				C124.6,39.7,126.5,41.8,129,41.8L129,41.8z"/>
		</g>
	</g>
	<g>
		<g>
			<path class="st4" d="M124.8,119c0-0.2,0-0.3,0-0.5c0-0.6-0.1-1.2-0.4-1.7c-0.2-0.6-0.5-1-0.9-1.4c-0.4-0.4-0.9-0.7-1.4-0.9
				c-0.5-0.3-1.1-0.4-1.7-0.4c-0.4,0.1-0.8,0.1-1.2,0.2c-0.8,0.2-1.4,0.6-2,1.2c-0.2,0.3-0.5,0.6-0.7,0.9c-0.4,0.7-0.6,1.5-0.6,2.3
				c0,0.2,0,0.3,0,0.5c0,0.6,0.1,1.2,0.4,1.7c0.2,0.6,0.5,1,0.9,1.4c0.4,0.4,0.9,0.7,1.4,0.9c0.5,0.3,1.1,0.4,1.7,0.4
				c0.4-0.1,0.8-0.1,1.2-0.2c0.8-0.2,1.4-0.6,2-1.2c0.2-0.3,0.5-0.6,0.7-0.9C124.6,120.6,124.8,119.8,124.8,119L124.8,119z"/>
		</g>
	</g>
	<g>
		<g>
			<path class="st4" d="M205.6,30.6c2.4,0,4.6-2.1,4.5-4.5c-0.1-2.4-2-4.5-4.5-4.5c-2.4,0-4.6,2.1-4.5,4.5
				C201.2,28.5,203.1,30.6,205.6,30.6L205.6,30.6z"/>
		</g>
	</g>
	<g>
		<g>
			<path class="st4" d="M469.7,21.5c0,0.3,0,0.7,0,1c0,0.6,0.1,1.2,0.4,1.7c0.2,0.6,0.5,1,0.9,1.4c0.4,0.4,0.9,0.7,1.4,0.9
				c0.5,0.3,1.1,0.4,1.7,0.4c0.4-0.1,0.8-0.1,1.2-0.2c0.8-0.2,1.4-0.6,2-1.2c0.2-0.3,0.5-0.6,0.7-0.9c0.4-0.7,0.6-1.5,0.6-2.3
				c0-0.3,0-0.7,0-1c0-0.6-0.1-1.2-0.4-1.7c-0.2-0.6-0.5-1-0.9-1.4c-0.4-0.4-0.9-0.7-1.4-0.9c-0.5-0.3-1.1-0.4-1.7-0.4
				c-0.4,0.1-0.8,0.1-1.2,0.2c-0.8,0.2-1.4,0.6-2,1.2c-0.2,0.3-0.5,0.6-0.7,0.9C469.9,19.9,469.7,20.7,469.7,21.5L469.7,21.5z"/>
		</g>
	</g>
	<g>
		<g>
			<path class="st4" d="M520.7,85.7c0.2,0,0.3,0,0.5,0c0.6,0,1.2-0.1,1.7-0.4c0.6-0.2,1-0.5,1.4-0.9c0.4-0.4,0.7-0.9,0.9-1.4
				c0.3-0.5,0.4-1.1,0.4-1.7c-0.1-0.4-0.1-0.8-0.2-1.2c-0.2-0.8-0.6-1.4-1.2-2c-0.3-0.2-0.6-0.5-0.9-0.7c-0.7-0.4-1.5-0.6-2.3-0.6
				c-0.2,0-0.3,0-0.5,0c-0.6,0-1.2,0.1-1.7,0.4c-0.6,0.2-1,0.5-1.4,0.9c-0.4,0.4-0.7,0.9-0.9,1.4c-0.3,0.5-0.4,1.1-0.4,1.7
				c0.1,0.4,0.1,0.8,0.2,1.2c0.2,0.8,0.6,1.4,1.2,2c0.3,0.2,0.6,0.5,0.9,0.7C519.1,85.5,519.8,85.7,520.7,85.7L520.7,85.7z"/>
		</g>
	</g>
	<g>
		<g>
			<path class="st4" d="M541.6,42.3c2.4,0,4.6-2.1,4.5-4.5c-0.1-2.4-2-4.5-4.5-4.5c-2.4,0-4.6,2.1-4.5,4.5
				C537.2,40.2,539.1,42.3,541.6,42.3L541.6,42.3z"/>
		</g>
	</g>
	<g>
		<g>
			<path class="st4" d="M326.6,204.2c2.4,0,4.6-2.1,4.5-4.5c-0.1-2.4-2-4.5-4.5-4.5c-2.4,0-4.6,2.1-4.5,4.5
				C322.2,202.1,324.1,204.2,326.6,204.2L326.6,204.2z"/>
		</g>
	</g>
	<g>
		<g>
			<path class="st4" d="M25.9,42.3c0.2,0,0.3,0,0.5,0c0.6,0,1.2-0.1,1.7-0.4c0.6-0.2,1-0.5,1.4-0.9c0.4-0.4,0.7-0.9,0.9-1.4
				c0.3-0.5,0.4-1.1,0.4-1.7c-0.1-0.4-0.1-0.8-0.2-1.2c-0.2-0.8-0.6-1.4-1.2-2c-0.3-0.2-0.6-0.5-0.9-0.7c-0.7-0.4-1.5-0.6-2.3-0.6
				c-0.2,0-0.3,0-0.5,0c-0.6,0-1.2,0.1-1.7,0.4c-0.6,0.2-1,0.5-1.4,0.9c-0.4,0.4-0.7,0.9-0.9,1.4c-0.3,0.5-0.4,1.1-0.4,1.7
				c0.1,0.4,0.1,0.8,0.2,1.2c0.2,0.8,0.6,1.4,1.2,2c0.3,0.2,0.6,0.5,0.9,0.7C24.3,42.1,25,42.3,25.9,42.3L25.9,42.3z"/>
		</g>
	</g>
	<g>
		<g>
			<path class="st4" d="M697.2,129c0.2-0.3,0.3-0.7,0.5-1c0.3-0.5,0.5-1.1,0.5-1.7c0.1-0.6,0.1-1.2-0.1-1.8
				c-0.1-0.6-0.4-1.1-0.8-1.5c-0.3-0.5-0.7-0.9-1.3-1.2c-0.4-0.2-0.7-0.3-1.1-0.5c-0.8-0.2-1.6-0.2-2.4,0c-0.4,0.2-0.7,0.3-1.1,0.5
				c-0.7,0.4-1.2,0.9-1.6,1.6c-0.2,0.3-0.3,0.7-0.5,1c-0.3,0.5-0.5,1.1-0.5,1.7c-0.1,0.6-0.1,1.2,0.1,1.8c0.1,0.6,0.4,1.1,0.8,1.5
				c0.3,0.5,0.7,0.9,1.3,1.2c0.4,0.2,0.7,0.3,1.1,0.5c0.8,0.2,1.6,0.2,2.4,0c0.4-0.2,0.7-0.3,1.1-0.5
				C696.3,130.2,696.8,129.6,697.2,129L697.2,129z"/>
		</g>
	</g>
	<g>
		<g>
			<path class="st4" d="M772.4,27.5c2.4,0,4.6-2.1,4.5-4.5c-0.1-2.4-2-4.5-4.5-4.5c-2.4,0-4.6,2.1-4.5,4.5
				C768,25.4,769.9,27.5,772.4,27.5L772.4,27.5z"/>
		</g>
	</g>
	<g>
		<g>
			<path class="st4" d="M679.9,74.1c0-0.2,0-0.3,0-0.5c0-0.4-0.1-0.8-0.3-1.2c-0.1-0.4-0.3-0.7-0.6-1c-0.3-0.3-0.6-0.5-1-0.6
				c-0.4-0.2-0.7-0.3-1.2-0.3c-0.3,0-0.5,0.1-0.8,0.1c-0.5,0.1-0.9,0.4-1.3,0.8c-0.2,0.2-0.3,0.4-0.5,0.6c-0.3,0.5-0.4,1-0.4,1.5
				c0,0.2,0,0.3,0,0.5c0,0.4,0.1,0.8,0.3,1.2c0.1,0.4,0.3,0.7,0.6,1c0.3,0.3,0.6,0.5,1,0.6c0.4,0.2,0.7,0.3,1.2,0.3
				c0.3,0,0.5-0.1,0.8-0.1c0.5-0.1,0.9-0.4,1.3-0.8c0.2-0.2,0.3-0.4,0.5-0.6C679.8,75.1,679.9,74.6,679.9,74.1L679.9,74.1z"/>
		</g>
	</g>
	<g>
		<g>
			<path class="st4" d="M677.9,181.7c3.9,0,3.9-6,0-6C674.1,175.7,674.1,181.7,677.9,181.7L677.9,181.7z"/>
		</g>
	</g>
	<g>
		<g>
			<path class="st4" d="M770.9,103.1c3.9,0,3.9-6,0-6C767,97.1,767,103.1,770.9,103.1L770.9,103.1z"/>
		</g>
	</g>
	<g>
		<g>
			<path class="st4" d="M758.6,167.4c3.9,0,3.9-6,0-6C754.8,161.4,754.7,167.4,758.6,167.4L758.6,167.4z"/>
		</g>
	</g>
	<g>
		<g>
			<path class="st4" d="M588,119.5c0-0.3,0-0.7,0-1c0-0.4-0.1-0.8-0.3-1.2c-0.1-0.4-0.3-0.7-0.6-1c-0.3-0.3-0.6-0.5-1-0.6
				c-0.4-0.2-0.7-0.3-1.2-0.3c-0.3,0-0.5,0.1-0.8,0.1c-0.5,0.1-0.9,0.4-1.3,0.8c-0.2,0.2-0.3,0.4-0.5,0.6c-0.3,0.5-0.4,1-0.4,1.5
				c0,0.3,0,0.7,0,1c0,0.4,0.1,0.8,0.3,1.2c0.1,0.4,0.3,0.7,0.6,1c0.3,0.3,0.6,0.5,1,0.6c0.4,0.2,0.7,0.3,1.2,0.3
				c0.3,0,0.5-0.1,0.8-0.1c0.5-0.1,0.9-0.4,1.3-0.8c0.2-0.2,0.3-0.4,0.5-0.6C587.9,120.6,588,120.1,588,119.5L588,119.5z"/>
		</g>
	</g>
	<g>
		<g>
			<path class="st4" d="M627.9,35.7c3.9,0,3.9-6,0-6C624,29.7,624,35.7,627.9,35.7L627.9,35.7z"/>
		</g>
	</g>
	<g>
		<g>
			<path class="st4" d="M240.3,182.3c0-0.2,0-0.3,0-0.5c0-0.4-0.1-0.8-0.3-1.2c-0.1-0.4-0.3-0.7-0.6-1c-0.3-0.3-0.6-0.5-1-0.6
				c-0.4-0.2-0.7-0.3-1.2-0.3c-0.3,0-0.5,0.1-0.8,0.1c-0.5,0.1-0.9,0.4-1.3,0.8c-0.2,0.2-0.3,0.4-0.5,0.6c-0.3,0.5-0.4,1-0.4,1.5
				c0,0.2,0,0.3,0,0.5c0,0.4,0.1,0.8,0.3,1.2c0.1,0.4,0.3,0.7,0.6,1c0.3,0.3,0.6,0.5,1,0.6c0.4,0.2,0.7,0.3,1.2,0.3
				c0.3,0,0.5-0.1,0.8-0.1c0.5-0.1,0.9-0.4,1.3-0.8c0.2-0.2,0.3-0.4,0.5-0.6C240.1,183.4,240.3,182.9,240.3,182.3L240.3,182.3z"/>
		</g>
	</g>
	<g>
		<g>
			<path class="st4" d="M316.4,28c3.9,0,3.9-6,0-6C312.5,22,312.5,28,316.4,28L316.4,28z"/>
		</g>
	</g>
	<g>
		<g>
			<path class="st4" d="M431.3,184.3c3.9,0,3.9-6,0-6C427.4,178.3,427.4,184.3,431.3,184.3L431.3,184.3z"/>
		</g>
	</g>
	<g>
		<g>
			<path class="st4" d="M105,85.7c3.9,0,3.9-6,0-6C101.1,79.7,101.1,85.7,105,85.7L105,85.7z"/>
		</g>
	</g>
	<g>
		<g>
			<path class="st4" d="M344,44.4c1.9,0,1.9-3,0-3C342,41.4,342,44.4,344,44.4L344,44.4z"/>
		</g>
	</g>
	<g>
		<g>
			<path class="st4" d="M459.4,151.2c0-0.2,0-0.3,0-0.5c0-0.2,0-0.4-0.1-0.6c-0.1-0.2-0.2-0.3-0.3-0.5c-0.1-0.1-0.3-0.2-0.5-0.3
				c-0.2-0.1-0.4-0.1-0.6-0.1c-0.1,0-0.3,0-0.4,0.1c-0.3,0.1-0.5,0.2-0.7,0.4c-0.1,0.1-0.2,0.2-0.2,0.3c-0.1,0.2-0.2,0.5-0.2,0.8
				c0,0.2,0,0.3,0,0.5c0,0.2,0,0.4,0.1,0.6c0.1,0.2,0.2,0.3,0.3,0.5c0.1,0.1,0.3,0.2,0.5,0.3c0.2,0.1,0.4,0.1,0.6,0.1
				c0.1,0,0.3,0,0.4-0.1c0.3-0.1,0.5-0.2,0.7-0.4c0.1-0.1,0.2-0.2,0.2-0.3C459.3,151.7,459.4,151.4,459.4,151.2L459.4,151.2z"/>
		</g>
	</g>
	<g>
		<g>
			<path class="st4" d="M475.2,130.7c1.9,0,1.9-3,0-3C473.3,127.7,473.3,130.7,475.2,130.7L475.2,130.7z"/>
		</g>
	</g>
	<g>
		<g>
			<path class="st4" d="M420.6,48c1.9,0,1.9-3,0-3C418.6,45,418.6,48,420.6,48L420.6,48z"/>
		</g>
	</g>
	<g>
		<g>
			<path class="st4" d="M145.9,78.1c1.9,0,1.9-3,0-3C143.9,75.1,143.9,78.1,145.9,78.1L145.9,78.1z"/>
		</g>
	</g>
	<g>
		<g>
			<path class="st4" d="M15.1,104.2c1.9,0,1.9-3,0-3C13.2,101.2,13.2,104.2,15.1,104.2L15.1,104.2z"/>
		</g>
	</g>
	<g>
		<g>
			<path class="st4" d="M93.7,141c0-0.2,0-0.3,0-0.5c0-0.2,0-0.4-0.1-0.6c-0.1-0.2-0.2-0.3-0.3-0.5c-0.1-0.1-0.3-0.2-0.5-0.3
				c-0.2-0.1-0.4-0.1-0.6-0.1c-0.1,0-0.3,0-0.4,0.1c-0.3,0.1-0.5,0.2-0.7,0.4c-0.1,0.1-0.2,0.2-0.2,0.3c-0.1,0.2-0.2,0.5-0.2,0.8
				c0,0.2,0,0.3,0,0.5c0,0.2,0,0.4,0.1,0.6c0.1,0.2,0.2,0.3,0.3,0.5c0.1,0.1,0.3,0.2,0.5,0.3c0.2,0.1,0.4,0.1,0.6,0.1
				c0.1,0,0.3,0,0.4-0.1c0.3-0.1,0.5-0.2,0.7-0.4c0.1-0.1,0.2-0.2,0.2-0.3C93.7,141.5,93.7,141.2,93.7,141L93.7,141z"/>
		</g>
	</g>
	<g>
		<g>
			<path class="st4" d="M106,121c1.9,0,1.9-3,0-3C104.1,118,104.1,121,106,121L106,121z"/>
		</g>
	</g>
	<g>
		<g>
			<path class="st4" d="M571.8,160.9c0.2-0.2,0.3-0.3,0.5-0.5c0.1-0.1,0.2-0.3,0.3-0.5c0.1-0.2,0.1-0.4,0.1-0.6c0-0.2,0-0.4-0.1-0.6
				c-0.1-0.2-0.2-0.3-0.3-0.5c-0.1-0.1-0.2-0.2-0.3-0.2c-0.2-0.1-0.5-0.2-0.8-0.2c-0.1,0-0.3,0-0.4,0.1c-0.3,0.1-0.5,0.2-0.7,0.4
				c-0.2,0.2-0.3,0.3-0.5,0.5c-0.1,0.1-0.2,0.3-0.3,0.5c-0.1,0.2-0.1,0.4-0.1,0.6c0,0.2,0,0.4,0.1,0.6c0.1,0.2,0.2,0.3,0.3,0.5
				c0.1,0.1,0.2,0.2,0.3,0.2c0.2,0.1,0.5,0.2,0.8,0.2c0.1,0,0.3,0,0.4-0.1C571.4,161.2,571.6,161.1,571.8,160.9L571.8,160.9z"/>
		</g>
	</g>
	<g>
		<g>
			<path class="st4" d="M607.5,138.4c1.9,0,1.9-3,0-3C605.5,135.4,605.5,138.4,607.5,138.4L607.5,138.4z"/>
		</g>
	</g>
	<g>
		<g>
			<path class="st4" d="M586.5,69.4c1.9,0,1.9-3,0-3C584.6,66.4,584.6,69.4,586.5,69.4L586.5,69.4z"/>
		</g>
	</g>
	<g>
		<g>
			<path class="st4" d="M706,20.9c1.9,0,1.9-3,0-3C704.1,17.9,704.1,20.9,706,20.9L706,20.9z"/>
		</g>
	</g>
	<g>
		<g>
			<path class="st4" d="M735.6,188.9c1.9,0,1.9-3,0-3C733.7,185.9,733.7,188.9,735.6,188.9L735.6,188.9z"/>
		</g>
	</g>
	<g>
		<g>
			<path class="st4" d="M768.3,146.5c1.9,0,1.9-3,0-3C766.4,143.5,766.4,146.5,768.3,146.5L768.3,146.5z"/>
		</g>
	</g>
	<g>
		<g>
			<path class="st4" d="M777,178.8c1.4,0,1.5-2.3,0-2.3C775.6,176.6,775.5,178.8,777,178.8L777,178.8z"/>
		</g>
	</g>
	<g>
		<g>
			<path class="st4" d="M743.8,98.7c1.4,0,1.5-2.3,0-2.3C742.4,96.4,742.4,98.7,743.8,98.7L743.8,98.7z"/>
		</g>
	</g>
	<g>
		<g>
			<path class="st4" d="M773.4,85.9c1.4,0,1.5-2.3,0-2.3C772,83.7,772,85.9,773.4,85.9L773.4,85.9z"/>
		</g>
	</g>
	<g>
		<g>
			<path class="st4" d="M735.9,64.6c0.2,0.2,0.3,0.3,0.5,0.5c0.1,0.1,0.2,0.2,0.4,0.2c0.1,0.1,0.3,0.1,0.4,0.1c0.2,0,0.3,0,0.4-0.1
				c0.1,0,0.3-0.1,0.4-0.2c0.1-0.1,0.1-0.2,0.2-0.2c0.1-0.2,0.2-0.4,0.2-0.6c0-0.1,0-0.2,0-0.3c-0.1-0.2-0.1-0.4-0.3-0.5
				c-0.2-0.2-0.3-0.3-0.5-0.5c-0.1-0.1-0.2-0.2-0.4-0.2c-0.1-0.1-0.3-0.1-0.4-0.1c-0.2,0-0.3,0-0.4,0.1c-0.1,0-0.3,0.1-0.4,0.2
				c-0.1,0.1-0.1,0.2-0.2,0.2c-0.1,0.2-0.2,0.4-0.2,0.6c0,0.1,0,0.2,0,0.3C735.6,64.3,735.7,64.5,735.9,64.6L735.9,64.6z"/>
		</g>
	</g>
	<g>
		<g>
			<path class="st4" d="M724.4,141.1c0.2,0,0.3,0,0.5,0c0.2,0,0.3,0,0.4-0.1c0.1,0,0.3-0.1,0.4-0.2c0.1-0.1,0.2-0.2,0.2-0.4
				c0.1-0.1,0.1-0.3,0.1-0.4c0-0.1,0-0.2,0-0.3c-0.1-0.2-0.1-0.4-0.3-0.5c-0.1-0.1-0.2-0.1-0.2-0.2c-0.2-0.1-0.4-0.2-0.6-0.2
				c-0.2,0-0.3,0-0.5,0c-0.2,0-0.3,0-0.4,0.1c-0.1,0-0.3,0.1-0.4,0.2c-0.1,0.1-0.2,0.2-0.2,0.4c-0.1,0.1-0.1,0.3-0.1,0.4
				c0,0.1,0,0.2,0,0.3c0.1,0.2,0.1,0.4,0.3,0.5c0.1,0.1,0.2,0.1,0.2,0.2C724,141,724.2,141.1,724.4,141.1L724.4,141.1z"/>
		</g>
	</g>
	<g>
		<g>
			<path class="st4" d="M650.4,142.6c1.4,0,1.5-2.3,0-2.3C648.9,140.3,648.9,142.6,650.4,142.6L650.4,142.6z"/>
		</g>
	</g>
	<g>
		<g>
			<path class="st4" d="M638.1,108.4c1.4,0,1.5-2.3,0-2.3C636.7,106.1,636.7,108.4,638.1,108.4L638.1,108.4z"/>
		</g>
	</g>
	<g>
		<g>
			<path class="st4" d="M439.5,137c1.4,0,1.5-2.3,0-2.3C438,134.7,438,137,439.5,137L439.5,137z"/>
		</g>
	</g>
	<g>
		<g>
			<path class="st4" d="M461.8,178.2c0,0.2,0,0.3,0,0.5c0,0.2,0,0.3,0.1,0.4c0,0.1,0.1,0.3,0.2,0.4c0.1,0.1,0.2,0.2,0.4,0.2
				c0.1,0.1,0.3,0.1,0.4,0.1c0.1,0,0.2,0,0.3,0c0.2-0.1,0.4-0.1,0.5-0.3c0.1-0.1,0.1-0.2,0.2-0.2c0.1-0.2,0.2-0.4,0.2-0.6
				c0-0.2,0-0.3,0-0.5c0-0.2,0-0.3-0.1-0.4c0-0.1-0.1-0.3-0.2-0.4c-0.1-0.1-0.2-0.2-0.4-0.2c-0.1-0.1-0.3-0.1-0.4-0.1
				c-0.1,0-0.2,0-0.3,0c-0.2,0.1-0.4,0.1-0.5,0.3c-0.1,0.1-0.1,0.2-0.2,0.2C461.9,177.8,461.8,178,461.8,178.2L461.8,178.2z"/>
		</g>
	</g>
	<g>
		<g>
			<path class="st4" d="M359.8,179.9c1.4,0,1.5-2.3,0-2.3C358.4,177.6,358.4,179.9,359.8,179.9L359.8,179.9z"/>
		</g>
	</g>
	<g>
		<g>
			<path class="st4" d="M258.7,137c1.4,0,1.5-2.3,0-2.3C257.3,134.7,257.3,137,258.7,137L258.7,137z"/>
		</g>
	</g>
	<g>
		<g>
			<path class="st4" d="M268.4,193.7c1.4,0,1.5-2.3,0-2.3C267,191.4,267,193.7,268.4,193.7L268.4,193.7z"/>
		</g>
	</g>
	<g>
		<g>
			<path class="st4" d="M298,179.9c1.4,0,1.5-2.3,0-2.3C296.6,177.6,296.6,179.9,298,179.9L298,179.9z"/>
		</g>
	</g>
	<g>
		<g>
			<path class="st4" d="M276.6,43c0.2,0,0.3,0,0.5,0c0.2,0,0.3,0,0.4-0.1c0.1,0,0.3-0.1,0.4-0.2c0.1-0.1,0.2-0.2,0.2-0.4
				c0.1-0.1,0.1-0.3,0.1-0.4c0-0.1,0-0.2,0-0.3c-0.1-0.2-0.1-0.4-0.3-0.5c-0.1-0.1-0.2-0.1-0.2-0.2c-0.2-0.1-0.4-0.2-0.6-0.2
				c-0.2,0-0.3,0-0.5,0c-0.2,0-0.3,0-0.4,0.1c-0.1,0-0.3,0.1-0.4,0.2c-0.1,0.1-0.2,0.2-0.2,0.4c-0.1,0.1-0.1,0.3-0.1,0.4
				c0,0.1,0,0.2,0,0.3c0.1,0.2,0.1,0.4,0.3,0.5c0.1,0.1,0.2,0.1,0.2,0.2C276.2,43,276.4,43,276.6,43L276.6,43z"/>
		</g>
	</g>
	<g>
		<g>
			<path class="st4" d="M375.6,51.2c1.4,0,1.5-2.3,0-2.3C374.2,48.9,374.2,51.2,375.6,51.2L375.6,51.2z"/>
		</g>
	</g>
	<g>
		<g>
			<path class="st4" d="M384.3,23.6c1.4,0,1.5-2.3,0-2.3C382.9,21.4,382.9,23.6,384.3,23.6L384.3,23.6z"/>
		</g>
	</g>
	<g>
		<g>
			<path class="st4" d="M258.7,28.7c1.4,0,1.5-2.3,0-2.3C257.3,26.5,257.3,28.7,258.7,28.7L258.7,28.7z"/>
		</g>
	</g>
	<g>
		<g>
			<path class="st4" d="M184.7,190.1c1.4,0,1.5-2.3,0-2.3C183.2,187.8,183.2,190.1,184.7,190.1L184.7,190.1z"/>
		</g>
	</g>
	<g>
		<g>
			<path class="st4" d="M209.7,231.4c1.4,0,1.5-2.3,0-2.3C208.2,229.2,208.2,231.4,209.7,231.4L209.7,231.4z"/>
		</g>
	</g>
	<g>
		<g>
			<path class="st4" d="M219.4,261.1c1.4,0,1.5-2.3,0-2.3C217.9,258.8,217.9,261.1,219.4,261.1L219.4,261.1z"/>
		</g>
	</g>
	<g>
		<g>
			<path class="st4" d="M357.8,243.7c1.4,0,1.5-2.3,0-2.3C356.3,241.4,356.3,243.7,357.8,243.7L357.8,243.7z"/>
		</g>
	</g>
	<g>
		<g>
			<path class="st4" d="M376.7,221.7c1.4,0,1.5-2.3,0-2.3C375.2,219.5,375.2,221.7,376.7,221.7L376.7,221.7z"/>
		</g>
	</g>
	<g>
		<g>
			<path class="st4" d="M409.3,235c1.4,0,1.5-2.3,0-2.3C407.9,232.8,407.9,235,409.3,235L409.3,235z"/>
		</g>
	</g>
	<g>
		<g>
			<path class="st4" d="M243.4,235.5c0.3,0,0.7,0,1,0c0.2,0,0.3,0,0.4-0.1c0.1,0,0.3-0.1,0.4-0.2c0.1-0.1,0.2-0.2,0.2-0.4
				c0.1-0.1,0.1-0.3,0.1-0.4c0-0.1,0-0.2,0-0.3c-0.1-0.2-0.1-0.4-0.3-0.5c-0.1-0.1-0.2-0.1-0.2-0.2c-0.2-0.1-0.4-0.2-0.6-0.2
				c-0.3,0-0.7,0-1,0c-0.2,0-0.3,0-0.4,0.1c-0.1,0-0.3,0.1-0.4,0.2c-0.1,0.1-0.2,0.2-0.2,0.4c-0.1,0.1-0.1,0.3-0.1,0.4
				c0,0.1,0,0.2,0,0.3c0.1,0.2,0.1,0.4,0.3,0.5c0.1,0.1,0.2,0.1,0.2,0.2C243,235.5,243.2,235.5,243.4,235.5L243.4,235.5z"/>
		</g>
	</g>
	<g>
		<g>
			<path class="st4" d="M671.8,221.7c1.4,0,1.5-2.3,0-2.3C670.4,219.5,670.4,221.7,671.8,221.7L671.8,221.7z"/>
		</g>
	</g>
	<g>
		<g>
			<path class="st4" d="M672.8,256c1.4,0,1.5-2.3,0-2.3C671.4,253.7,671.4,256,672.8,256L672.8,256z"/>
		</g>
	</g>
	<g>
		<g>
			<path class="st4" d="M695.8,258.3c3.9,0,3.9-6,0-6C691.9,252.3,691.9,258.3,695.8,258.3L695.8,258.3z"/>
		</g>
	</g>
	<g>
		<g>
			<path class="st4" d="M751,219c3.9,0,3.9-6,0-6C747.1,213,747.1,219,751,219L751,219z"/>
		</g>
	</g>
	<g>
		<g>
			<path class="st4" d="M301,250.2c0-0.5,0-1,0-1.5c0-0.4-0.1-0.8-0.3-1.2c-0.1-0.4-0.3-0.7-0.6-1c-0.3-0.3-0.6-0.5-1-0.6
				c-0.4-0.2-0.7-0.3-1.2-0.3c-0.3,0-0.5,0.1-0.8,0.1c-0.5,0.1-0.9,0.4-1.3,0.8c-0.2,0.2-0.3,0.4-0.5,0.6c-0.3,0.5-0.4,1-0.4,1.5
				c0,0.5,0,1,0,1.5c0,0.4,0.1,0.8,0.3,1.2c0.1,0.4,0.3,0.7,0.6,1c0.3,0.3,0.6,0.5,1,0.6c0.4,0.2,0.7,0.3,1.2,0.3
				c0.3,0,0.5-0.1,0.8-0.1c0.5-0.1,0.9-0.4,1.3-0.8c0.2-0.2,0.3-0.4,0.5-0.6C300.9,251.3,301,250.8,301,250.2L301,250.2z"/>
		</g>
	</g>
	<g>
		<g>
			<path class="st4" d="M94.3,251.7c3.9,0,3.9-6,0-6C90.4,245.7,90.4,251.7,94.3,251.7L94.3,251.7z"/>
		</g>
	</g>
	<g>
		<g>
			<path class="st4" d="M639.4,212.2c0.2-0.3,0.3-0.7,0.5-1c0.1-0.2,0.2-0.4,0.2-0.6c0-0.2,0-0.4,0-0.6c0-0.2-0.1-0.4-0.3-0.5
				c-0.1-0.2-0.2-0.3-0.4-0.4c-0.1-0.1-0.2-0.1-0.4-0.2c-0.3-0.1-0.5-0.1-0.8,0c-0.1,0.1-0.2,0.1-0.4,0.2c-0.2,0.1-0.4,0.3-0.5,0.5
				c-0.2,0.3-0.3,0.7-0.5,1c-0.1,0.2-0.2,0.4-0.2,0.6c0,0.2,0,0.4,0,0.6c0,0.2,0.1,0.4,0.3,0.5c0.1,0.2,0.2,0.3,0.4,0.4
				c0.1,0.1,0.2,0.1,0.4,0.2c0.3,0.1,0.5,0.1,0.8,0c0.1-0.1,0.2-0.1,0.4-0.2C639.1,212.6,639.3,212.4,639.4,212.2L639.4,212.2z"/>
		</g>
	</g>
	<g>
		<g>
			<path class="st4" d="M84.5,31.2c0-0.5,0-1,0-1.5c0-0.2,0-0.4-0.1-0.6c-0.1-0.2-0.2-0.3-0.3-0.5c-0.1-0.1-0.3-0.2-0.5-0.3
				c-0.2-0.1-0.4-0.1-0.6-0.1c-0.1,0-0.3,0-0.4,0.1c-0.3,0.1-0.5,0.2-0.7,0.4c-0.3,0.3-0.4,0.7-0.4,1.1c0,0.5,0,1,0,1.5
				c0,0.2,0,0.4,0.1,0.6c0.1,0.2,0.2,0.3,0.3,0.5c0.1,0.1,0.3,0.2,0.5,0.3c0.2,0.1,0.4,0.1,0.6,0.1c0.1,0,0.3,0,0.4-0.1
				c0.3-0.1,0.5-0.2,0.7-0.4C84.4,31.9,84.5,31.6,84.5,31.2L84.5,31.2z"/>
		</g>
	</g>
	<g>
		<g>
			<path class="st4" d="M58.5,12.8c0.2,0.2,0.3,0.3,0.5,0.5c0.1,0.1,0.3,0.2,0.5,0.3c0.2,0.1,0.4,0.1,0.6,0.1c0.2,0,0.4,0,0.6-0.1
				c0.2-0.1,0.3-0.2,0.5-0.3c0.1-0.1,0.2-0.2,0.2-0.3c0.1-0.2,0.2-0.5,0.2-0.8c0-0.1,0-0.3-0.1-0.4c-0.1-0.3-0.2-0.5-0.4-0.7
				c-0.2-0.2-0.3-0.3-0.5-0.5c-0.1-0.1-0.3-0.2-0.5-0.3c-0.2-0.1-0.4-0.1-0.6-0.1c-0.2,0-0.4,0-0.6,0.1c-0.2,0.1-0.3,0.2-0.5,0.3
				c-0.1,0.1-0.2,0.2-0.2,0.3c-0.1,0.2-0.2,0.5-0.2,0.8c0,0.1,0,0.3,0.1,0.4C58.2,12.4,58.3,12.6,58.5,12.8L58.5,12.8z"/>
		</g>
	</g>
	<g>
		<g>
			<path class="st4" d="M80,95.5c1.9,0,1.9-3,0-3C78,92.5,78,95.5,80,95.5L80,95.5z"/>
		</g>
	</g>
	<g>
		<g>
			<path class="st4" d="M204.6,183.6c1,0,1-1.5,0-1.5C203.6,182.1,203.6,183.6,204.6,183.6L204.6,183.6z"/>
		</g>
	</g>
	<g>
		<g>
			<path class="st4" d="M76.9,117.2c1,0,1-1.5,0-1.5C75.9,115.7,75.9,117.2,76.9,117.2L76.9,117.2z"/>
		</g>
	</g>
	<g>
		<g>
			<path class="st4" d="M21.3,137.6c1,0,1-1.5,0-1.5C20.3,136.1,20.3,137.6,21.3,137.6L21.3,137.6z"/>
		</g>
	</g>
	<g>
		<g>
			<path class="st4" d="M16.7,163.7c1,0,1-1.5,0-1.5C15.7,162.2,15.7,163.7,16.7,163.7L16.7,163.7z"/>
		</g>
	</g>
	<g>
		<g>
			<path class="st4" d="M29.4,69.2c1,0,1-1.5,0-1.5C28.5,67.7,28.5,69.2,29.4,69.2L29.4,69.2z"/>
		</g>
	</g>
	<g>
		<g>
			<path class="st4" d="M110.1,55.4c1,0,1-1.5,0-1.5C109.1,53.9,109.1,55.4,110.1,55.4L110.1,55.4z"/>
		</g>
	</g>
	<g>
		<g>
			<path class="st4" d="M110.1,24.3c1,0,1-1.5,0-1.5C109.1,22.8,109.1,24.3,110.1,24.3L110.1,24.3z"/>
		</g>
	</g>
	<g>
		<g>
			<path class="st4" d="M241.1,53.1c0-0.2,0-0.3,0-0.5c0-0.1,0-0.2-0.1-0.3c0-0.1-0.1-0.2-0.2-0.2c-0.1-0.1-0.1-0.1-0.2-0.2
				c-0.1,0-0.2-0.1-0.3-0.1c-0.1,0-0.1,0-0.2,0c-0.1,0-0.2,0.1-0.3,0.2c0,0.1-0.1,0.1-0.1,0.2c-0.1,0.1-0.1,0.2-0.1,0.4
				c0,0.2,0,0.3,0,0.5c0,0.1,0,0.2,0.1,0.3c0,0.1,0.1,0.2,0.2,0.2c0.1,0.1,0.1,0.1,0.2,0.2c0.1,0,0.2,0.1,0.3,0.1c0.1,0,0.1,0,0.2,0
				c0.1,0,0.2-0.1,0.3-0.2c0-0.1,0.1-0.1,0.1-0.2C241,53.4,241.1,53.3,241.1,53.1L241.1,53.1z"/>
		</g>
	</g>
	<g>
		<g>
			<path class="st4" d="M236.2,24.3c1,0,1-1.5,0-1.5C235.3,22.8,235.3,24.3,236.2,24.3L236.2,24.3z"/>
		</g>
	</g>
	<g>
		<g>
			<path class="st4" d="M618.7,86c0.2,0,0.3,0,0.5,0c0.1,0,0.2,0,0.3-0.1c0.1,0,0.2-0.1,0.2-0.2c0.1-0.1,0.1-0.1,0.2-0.2
				c0-0.1,0.1-0.2,0.1-0.3c0-0.1,0-0.1,0-0.2c0-0.1-0.1-0.2-0.2-0.3c-0.1,0-0.1-0.1-0.2-0.1c-0.1-0.1-0.2-0.1-0.4-0.1
				c-0.2,0-0.3,0-0.5,0c-0.1,0-0.2,0-0.3,0.1c-0.1,0-0.2,0.1-0.2,0.2c-0.1,0.1-0.1,0.1-0.2,0.2c0,0.1-0.1,0.2-0.1,0.3
				c0,0.1,0,0.1,0,0.2c0,0.1,0.1,0.2,0.2,0.3c0.1,0,0.1,0.1,0.2,0.1C618.4,86,618.6,86,618.7,86L618.7,86z"/>
		</g>
	</g>
	<g>
		<g>
			<path class="st4" d="M623.3,184.1c1,0,1-1.5,0-1.5C622.3,182.6,622.3,184.1,623.3,184.1L623.3,184.1z"/>
		</g>
	</g>
</g>
<g id="Layer_11">
	<g>
		<g>
			<path class="st12" d="M38.8,121.1c0.9,5.8,4.3,11.8,9.7,14.6c2.4,1.3,5.2,1.8,7.7,0.9c2.3-0.8,4.2-2.5,4.8-4.9
				c0.1-0.5-0.6-0.7-0.7-0.2c-0.6,2.4-2.7,4.1-5.1,4.7c-2.6,0.6-5.3-0.3-7.5-1.7c-4.5-3-7.3-8.2-8.2-13.5
				C39.5,120.5,38.7,120.7,38.8,121.1L38.8,121.1z"/>
		</g>
	</g>
	<g>
		<g>
			<path class="st12" d="M73,151.3c-1.9,8.5-7.4,16-15.2,20c-4,2.1-8.5,3.3-13,3.4c-4.7,0.1-10.5-1-12.2-6.2
				c-0.1-0.5-0.9-0.3-0.7,0.2c2.4,7.6,12.5,7.4,18.8,5.9c7.2-1.7,13.7-5.9,18-12c2.4-3.4,4.1-7.2,5-11.3
				C73.8,151,73.1,150.8,73,151.3L73,151.3z"/>
		</g>
	</g>
	<g>
		<g>
			<path class="st12" d="M29.9,192.6c2.2,5.9,6.3,10.8,11.4,14.4c5.4,3.9,12.8,7.4,19.6,6.5c3.4-0.5,6.5-2.2,8.4-5.1
				c0.3-0.4-0.4-0.8-0.6-0.4c-5.2,8-16.4,4.4-23.1,0.7c-6.6-3.6-12.2-9.2-14.9-16.4C30.4,192,29.7,192.2,29.9,192.6L29.9,192.6z"/>
		</g>
	</g>
	<g>
		<g>
			<path class="st13" d="M60.6,172.7c2.9,0,2.9-4.5,0-4.5C57.7,168.2,57.7,172.7,60.6,172.7L60.6,172.7z"/>
		</g>
	</g>
	<g>
		<g>
			<path class="st13" d="M39.8,177c2.9,0,2.9-4.5,0-4.5C36.9,172.5,36.9,177,39.8,177L39.8,177z"/>
		</g>
	</g>
	<g>
		<g>
			<path class="st13" d="M58.8,131.3c0,0,0,0.1,0,0.1c0,0.3,0.1,0.6,0.2,0.9c0.1,0.3,0.2,0.5,0.5,0.7c0.2,0.2,0.4,0.4,0.7,0.5
				c0.3,0.1,0.6,0.2,0.9,0.2c0.2,0,0.4-0.1,0.6-0.1c0.4-0.1,0.7-0.3,1-0.6c0.1-0.2,0.2-0.3,0.4-0.5c0.2-0.4,0.3-0.7,0.3-1.1
				c0,0,0-0.1,0-0.1c0-0.3-0.1-0.6-0.2-0.9c-0.1-0.3-0.2-0.5-0.5-0.7c-0.2-0.2-0.4-0.4-0.7-0.5c-0.3-0.1-0.6-0.2-0.9-0.2
				c-0.2,0-0.4,0.1-0.6,0.1c-0.4,0.1-0.7,0.3-1,0.6c-0.1,0.2-0.2,0.3-0.4,0.5C58.9,130.5,58.8,130.8,58.8,131.3L58.8,131.3z"/>
		</g>
	</g>
	<g>
		<g>
			<path class="st13" d="M43.2,133.4c0,0,0.1,0,0.1,0c0.3,0,0.6-0.1,0.9-0.2c0.3-0.1,0.5-0.2,0.7-0.5c0.2-0.2,0.4-0.4,0.5-0.7
				c0.1-0.3,0.2-0.6,0.2-0.9c0-0.2-0.1-0.4-0.1-0.6c-0.1-0.4-0.3-0.7-0.6-1c-0.2-0.1-0.3-0.2-0.5-0.4c-0.4-0.2-0.7-0.3-1.1-0.3
				c0,0-0.1,0-0.1,0c-0.3,0-0.6,0.1-0.9,0.2c-0.3,0.1-0.5,0.2-0.7,0.5c-0.2,0.2-0.4,0.4-0.5,0.7c-0.1,0.3-0.2,0.6-0.2,0.9
				c0,0.2,0.1,0.4,0.1,0.6c0.1,0.4,0.3,0.7,0.6,1c0.2,0.1,0.3,0.2,0.5,0.4C42.4,133.3,42.8,133.4,43.2,133.4L43.2,133.4z"/>
		</g>
	</g>
	<g>
		<g>
			<path class="st13" d="M36,201.5c0,0,0.1-0.1,0.1-0.1c0.2-0.2,0.4-0.4,0.5-0.7c0.1-0.3,0.2-0.6,0.2-0.9c0-0.3-0.1-0.6-0.2-0.9
				c-0.1-0.3-0.2-0.5-0.5-0.7c-0.2-0.1-0.3-0.2-0.5-0.4c-0.4-0.2-0.7-0.3-1.1-0.3c-0.2,0-0.4,0.1-0.6,0.1c-0.4,0.1-0.7,0.3-1,0.6
				c0,0-0.1,0.1-0.1,0.1c-0.2,0.2-0.4,0.4-0.5,0.7c-0.1,0.3-0.2,0.6-0.2,0.9c0,0.3,0.1,0.6,0.2,0.9c0.1,0.3,0.2,0.5,0.5,0.7
				c0.2,0.1,0.3,0.2,0.5,0.4c0.4,0.2,0.7,0.3,1.1,0.3c0.2,0,0.4-0.1,0.6-0.1C35.4,202,35.7,201.8,36,201.5L36,201.5z"/>
		</g>
	</g>
	<g>
		<g>
			<path class="st13" d="M61.3,213.8c0,0.1,0.1,0.2,0.1,0.3c0.1,0.3,0.3,0.5,0.6,0.6c0.2,0.2,0.5,0.3,0.8,0.4c0.3,0.1,0.6,0.1,0.9,0
				c0.3,0,0.6-0.1,0.8-0.3c0.2-0.1,0.3-0.2,0.5-0.4c0.3-0.3,0.5-0.6,0.6-1c0-0.2,0.1-0.4,0.1-0.6c0-0.4-0.1-0.8-0.3-1.1
				c0-0.1-0.1-0.2-0.1-0.3c-0.1-0.3-0.3-0.5-0.6-0.6c-0.2-0.2-0.5-0.3-0.8-0.4c-0.3-0.1-0.6-0.1-0.9,0c-0.3,0-0.6,0.1-0.8,0.3
				c-0.2,0.1-0.3,0.2-0.5,0.4c-0.3,0.3-0.5,0.6-0.6,1c0,0.2-0.1,0.4-0.1,0.6C61,213.1,61.1,213.5,61.3,213.8L61.3,213.8z"/>
		</g>
	</g>
	<g>
		<g>
			<path class="st13" d="M46.2,208.3c-0.1,0.1-0.2,0.2-0.3,0.3c-0.2,0.2-0.4,0.4-0.5,0.7c-0.1,0.3-0.2,0.6-0.2,0.9
				c0,0.3,0.1,0.6,0.2,0.9c0.1,0.3,0.2,0.5,0.5,0.7c0.2,0.1,0.3,0.2,0.5,0.4c0.4,0.2,0.7,0.3,1.1,0.3c0.2,0,0.4-0.1,0.6-0.1
				c0.4-0.1,0.7-0.3,1-0.6c0.1-0.1,0.2-0.2,0.3-0.3c0.2-0.2,0.4-0.4,0.5-0.7c0.1-0.3,0.2-0.6,0.2-0.9c0-0.3-0.1-0.6-0.2-0.9
				c-0.1-0.3-0.2-0.5-0.5-0.7c-0.2-0.1-0.3-0.2-0.5-0.4c-0.4-0.2-0.7-0.3-1.1-0.3c-0.2,0-0.4,0.1-0.6,0.1
				C46.8,207.8,46.5,208,46.2,208.3L46.2,208.3z"/>
		</g>
	</g>
	<g>
		<g>
			<path class="st13" d="M37.3,121.8c0.3,0,0.5,0,0.8,0c0.3,0,0.6-0.1,0.9-0.2c0.3-0.1,0.5-0.2,0.7-0.5c0.2-0.2,0.4-0.4,0.5-0.7
				c0.1-0.3,0.2-0.6,0.2-0.9c0-0.2-0.1-0.4-0.1-0.6c-0.1-0.4-0.3-0.7-0.6-1c-0.2-0.1-0.3-0.2-0.5-0.4c-0.4-0.2-0.7-0.3-1.1-0.3
				c-0.3,0-0.5,0-0.8,0c-0.3,0-0.6,0.1-0.9,0.2c-0.3,0.1-0.5,0.2-0.7,0.5c-0.2,0.2-0.4,0.4-0.5,0.7c-0.1,0.3-0.2,0.6-0.2,0.9
				c0,0.2,0.1,0.4,0.1,0.6c0.1,0.4,0.3,0.7,0.6,1c0.2,0.1,0.3,0.2,0.5,0.4C36.6,121.7,36.9,121.8,37.3,121.8L37.3,121.8z"/>
		</g>
	</g>
	<g>
		<g>
			<path class="st13" d="M70.5,160.6c0.2,0,0.3,0,0.5,0c0.3,0,0.6-0.1,0.9-0.2c0.3-0.1,0.5-0.2,0.7-0.5c0.2-0.2,0.4-0.4,0.5-0.7
				c0.1-0.3,0.2-0.6,0.2-0.9c0-0.2-0.1-0.4-0.1-0.6c-0.1-0.4-0.3-0.7-0.6-1c-0.2-0.1-0.3-0.2-0.5-0.4c-0.4-0.2-0.7-0.3-1.1-0.3
				c-0.2,0-0.3,0-0.5,0c-0.3,0-0.6,0.1-0.9,0.2c-0.3,0.1-0.5,0.2-0.7,0.5c-0.2,0.2-0.4,0.4-0.5,0.7c-0.1,0.3-0.2,0.6-0.2,0.9
				c0,0.2,0.1,0.4,0.1,0.6c0.1,0.4,0.3,0.7,0.6,1c0.2,0.1,0.3,0.2,0.5,0.4C69.7,160.5,70.1,160.6,70.5,160.6L70.5,160.6z"/>
		</g>
	</g>
</g>
</svg>
