<?xml version="1.0" encoding="utf-8"?>
<!-- Generator: Adobe Illustrator 23.1.0, SVG Export Plug-In . SVG Version: 6.00 Build 0)  -->
<svg version="1.1" id="Layer_1" xmlns="http://www.w3.org/2000/svg" xmlns:xlink="http://www.w3.org/1999/xlink" x="0px" y="0px"
	 viewBox="0 0 375 300" style="enable-background:new 0 0 375 300;" xml:space="preserve">
<style type="text/css">
	.st0{fill:#fff;stroke:none;stroke-miterlimit:10;}
</style>
<path class="st0" d="M358.03,178.75c-6.1-0.94-5.36-1.53-10-2c-2.45-0.25-4.9-0.31-5-1c-0.05-0.36,0.57-0.74,1-1
	c1.74-1.06,3.59-1.01,4-1c4.47,0.11,6.7,0.17,8,0c0.52-0.07,3.09-0.43,6-2c1.09-0.59,3.09-1.82,5-4c1.47-1.68,3.82-5.01,3-6
	c-0.37-0.45-1.39-0.39-2,0c-0.7,0.45-0.79,1.28-1,2c-0.87,2.95-4.08,4.54-5,5c-2.01,1-3.97,1.11-4,1c-0.02-0.08,0.91-0.26,2-1
	c0.36-0.24,0.81-0.6,2-2c1.42-1.68,2.13-2.53,2-3c-0.26-0.93-2.03-1.55-3-1c-0.61,0.34-0.42,0.88-1,2c-0.95,1.85-2.03,1.55-4,4
	c-0.34,0.43-0.54,0.73-1,1c-1.16,0.69-2.82,0.52-3,0c-0.17-0.51,1.04-1.5,2-2c1.03-0.54,1.59-0.42,2-1c0.44-0.62,0.45-1.68,0-2
	c-0.82-0.58-3.1,1.27-4,2c-1.82,1.48-2.04,2.22-3,3c-2.11,1.71-4.99,1.37-8,1c-4.43-0.54-7.54-2.19-11.31-4.19
	c-3.05-1.62-4.58-2.44-5.69-3.81c-1.64-2.02-2.09-4.35-3-9c-0.53-2.7-0.49-3.86,0-5c0.14-0.32,1-2.23,3-3c1.58-0.61,3.14-0.22,4,0
	c1.98,0.5,2.83,1.46,4,1c0.45-0.18,1.04-0.59,1-1c-0.06-0.64-1.61-0.66-4-2c-1.08-0.61-1.77-1.17-2-2c-0.07-0.24-0.18-0.63,0-1
	c0.26-0.54,1.17-0.69,3-1c1.82-0.31,2.74-0.47,3-1c0.15-0.3,0.15-0.71,0-1c-0.72-1.39-5.76-1.46-9,1c-2.35,1.78-3.2,4.47-4,7
	c-0.68,2.14-1.02,3.21-0.9,4.43c0.06,0.67,0.23,1.36-0.1,1.57c-0.52,0.34-1.85-0.86-2-1c-0.45-0.42-0.93-0.98-2-3
	c-0.6-1.14-0.9-1.71-1-2c-0.51-1.54-0.1-2.31,0-5c0.1-2.73-0.29-2.63,0-4c0.35-1.66,1.13-2.76,2-4c1.22-1.73,2.2-3.12,4-4
	c1.06-0.52,2.3-0.8,4-2c1.06-0.74,1.02-0.95,1-1c-0.08-0.18-0.73-0.05-1,0c-2.59,0.48-3.46-0.51-5,0c-1.78,0.59-1.3,2.14-4,4
	c-0.87,0.6-2.1,1.44-3,1c-1.04-0.51-1.01-2.45-1-3c0.04-2.07,1.02-3.56,2-5c1.86-2.74,4-4.29,5-5c2.02-1.44,3.04-2.16,4.09-2.28
	c0.57-0.07,1.57-0.09,1.91-0.72c0.16-0.3,0.16-0.72,0-1c-0.55-0.95-3.23-0.61-5,0c-4.59,1.59-6.59,6.26-7,6
	c-0.29-0.19,0.36-2.78,2-5c0.57-0.77,1.24-1.46,1-2c-0.19-0.44-0.94-0.66-1.5-0.5c-0.58,0.16-0.8,0.69-1.43,1.72
	c-0.33,0.55-0.85,1.34-1.57,2.28c0,0-1.16,1.9-2,4c-1.23,3.07-3.11,14.53,3,29c1.02,2.42,5.72,13.53,13,18c1.82,1.12,4.24,2.09,9,4
	c2.28,0.92,3.05,1.1,4,1c0.87-0.09,1.56-0.39,2,0c0.46,0.41,0.48,1.46,0,2c-0.98,1.11-4.01,0.12-4,0c0.01-0.06,0.98,0.1,1,0
	c0.04-0.24-5.09-1.36-10.5-1.5c-1.89-0.05-3.42,0.03-4,1c-0.37,0.61-0.27,1.43,0,2c0.68,1.41,2.69,1.7,5,2c3.66,0.47,5.78-0.52,6,0
	c0.25,0.58-2.19,2.08-5,4c0,0-3.09,2.12-8,6c-3.09,2.45-5.86,4.91-11,9c-0.56,0.45-1.55,1.22-3,2c0,0,0,0,0,0c0,0-2.79,1.39-6,2
	c-7.05,1.33-27,0-27,0c-11.21-0.75-9.32,0.74-21,0c-6.92-0.44-8.29-1-23-3c-14.27-1.94-14.86-1.66-24-3c-6.52-0.95-15.79-2.33-27-5
	c-24.14-5.75-40.4-13.48-46-13c-0.53,0.05-2.89,0.33-4-1c-0.86-1.03-0.17-2.08-1-3c-1.14-1.27-4.04-1.06-6,0
	c-1.7,0.93-2.16,2.21-3,2c-1.13-0.29-0.93-2.79-2-3c-0.75-0.15-1.88,0.91-2,2c-0.15,1.36,1.36,2.1,1,3c-0.29,0.72-1.52,0.92-2,1
	c-1.07,0.17-1.36-0.19-2,0c-1.13,0.34-1.29,1.82-2,3c-0.46,0.77-1.35,1.76-5,3c-5.7,1.93-14.96,3.37-16,1c-0.12-0.28-0.39-1.2,0-2
	c0.28-0.58,0.77-0.83,1-1c1.47-1.06,1.73-5.21,0-8c-1.82-2.93-5.06-3.12-5-5c0.04-1.1,1.17-1.58,1-3c-0.02-0.17-0.08-0.52-1-2
	c-1.12-1.8-1.46-1.97-2-3c-0.58-1.09-0.78-2-1-3c-0.42-1.87-0.73-3.27,0-4c0.32-0.33,0.77-0.44,1-1c0.03-0.07,0.28-0.71,0-1
	c-0.38-0.4-1.25,0.33-2,0c-0.72-0.32-0.53-1.28-1-2c-1.06-1.63-4.16,0.02-8-1c-3.01-0.8-2.75-2.25-6-3c-1.55-0.36-3.04-0.24-6,0
	c-1.71,0.14-4,0.33-7,1c-3.99,0.89-6.31,1.4-9,3c-1.64,0.97-2.33,1.7-4,2c-0.47,0.08-3.21,0.57-5-1c-1.18-1.03-0.72-1.89-2-3
	c-0.33-0.28-2.15-1.77-4-1c-1.11,0.46-2,1.65-2,3c0,1.45,1.04,2.55,2,3c1.21,0.56,1.92-0.09,4,0c1.32,0.06,1.26,0.33,4,1
	c1.4,0.34,3.48,0.84,6,1c2.74,0.17,2.46-0.29,4,0c1.43,0.27,2.97,1.18,6,3c1.79,1.07,2.69,1.62,3,2c1.31,1.61,1.68,3.94,2,6
	c0.21,1.31,0.24,2.24,1,3c0.88,0.88,2,1,2,1c1.01,0.11,1.67-0.36,2,0c0.22,0.24,0.16,0.7,0,1c-0.38,0.73-1.29,0.43-2,1
	c-1.16,0.93-1.14,3.63,0,5c0.45,0.53,0.72,0.45,1,1c0.36,0.7,0.07,1.17,0,3c0,0,0,0.67,0,2c0,0.67,0,1.33,0,2c0,1.33,0,2.67,0,4
	c0,0.67-0.01,1.33,0,2c0.04,3.04,0.24,3.92,0,4c-0.41,0.14-1.27-2.32-3-5c-1.13-1.74-3.96-6-9-8c-1.58-0.63-2.85-0.82-4-1
	c-3.04-0.47-4.2-0.01-10,0c-3.37,0-3.11-0.15-4,0c-0.89,0.15-1.64,0.39-2,0c-0.25-0.28-0.07-0.61,0-2c0.03-0.67,0-1.33,0-2
	s0-1.33,0-2s0-1.33,0-2s-0.04-1.33,0-2c0.08-1.23,0.3-1.74,0-2c-0.27-0.23-0.75-0.07-1,0c-2.24,0.66-3.31-0.61-5,0
	c-1.73,0.62-1.23,2.15-3,3c-1.79,0.86-2.7-0.51-5,0c-2.47,0.55-4.5,2.81-5,5c-0.16,0.68,0.04,0.47,0,3c-0.05,3.48-0.42,3.84,0,5
	c0.05,0.15,0.93,2.46,3,3c0.22,0.06,1.05,0.28,2,0c0.9-0.26,0.98-0.7,2-1c0.42-0.12,1.23-0.36,2,0c0.09,0.04,0.9,0.42,1,1
	c0.19,1.11-2.41,2.03-8,5c-1.09,0.58-1.88,1.02-3,1c-0.98-0.02-1.56-0.37-2,0c-0.55,0.46-0.47,1.71,0,2c0.16,0.1,0.28,0.03,1,0
	c0.17-0.01,0.44,0,1,0c1.65,0.01,1.7,0.17,2,0c0.54-0.3,0.44-0.82,1-1c0.43-0.14,0.57,0.15,1,0c0,0,0.24-0.08,1-1
	c0.47-0.22,1.17-0.56,2-1c1.4-0.74,1.93-1.09,2-1c0.11,0.14-1.17,1.19-3,3c-2.37,2.34-2.45,2.77-4,4c-0.88,0.7-1.72,1.36-3,2
	c-2.32,1.15-3.72,1.05-4,2c-0.21,0.71,0.33,1.63,1,2c0.27,0.15,0.68,0.27,2,0c1.02-0.21,1.92-0.4,3-1c1.49-0.83,1.67-1.53,4-4
	c1.65-1.75,1.59-1.44,3-3c1.82-2.02,2.73-3.03,3-4c0.2-0.72,0.3-1.68,1-2c0.25-0.11,0.68-0.2,1,0c0.71,0.45,0.23,1.97,0,5
	c-0.17,2.17-0.25,3.26,0,4c0.51,1.51,1.41,1.9,2,4c0.45,1.6,0.08,1.93,0,2c-0.51,0.41-1.51-0.42-2,0c-0.29,0.25-0.1,0.69,0,2
	c0.07,1,0,2,0,3c0,0.67,0,1.33,0,2c0,2,0,3,0,3c-0.1,1.07-0.26,1.45,0,2c0.29,0.59,0.65,0.5,1,1c0.74,1.08-0.49,2.18,0,4
	c0.3,1.11,0.82,0.93,1,2c0.23,1.37-0.53,2.12,0,3c0.33,0.55,0.73,0.41,1,1c0.33,0.7-0.16,1.06,0,2c0.18,1.03,0.82,0.97,1,2
	c0.16,0.94-0.33,1.3,0,2c0.28,0.6,0.69,0.46,1,1c0.64,1.1-0.49,2.64,0,3c0.28,0.21,0.74-0.22,1,0c0.41,0.35-0.4,1.69,0,2
	c0.26,0.2,0.78-0.22,1,0c0.19,0.19-0.13,0.54,0,1c0.15,0.54,0.67,0.39,1,1c0.41,0.76,0.06,1.83,0.03,1.92
	c-0.02,0.06-0.02,0.05-0.03,0.08c-0.14,0.58,1.01,1.05,2,2c0,0,0.25,0.24,2,3c-0.22,0.24-0.56,0.59-1,1c-1.72,1.62-3.28,2.57-4,3
	c-6.77,4.08-7.03,3.91-8,5c-0.36,0.41-1.25,2.28-3,6c-2.77,5.88-2.9,6.25-3,7c-0.1,0.74-0.07,1.07,1,8c0.63,4.06,0.68,4.37,1,5
	c1.64,3.25,4.97,4.59,6,5c2.76,1.11,5.19,1.03,6,1c8-0.25,16.01,0.48,24,0c11.28-0.68,16.97-0.74,19-1c2.09-0.27,5.8-0.8,11-1
	c1.55-0.06,4.41-0.13,8,0c11.17,0.42,19.1,2.16,31,3c10.07,0.71,17.07,0.35,24,0c0,0,6.29-0.32,15-2c2.09-0.4,4.31-0.89,7-2
	c3.4-1.4,5.8-3.09,7-4c3.52-2.67,5.56-5.4,6-6c1.31-1.79,4.27-5.92,5-12c0.58-4.78-0.52-8.28-2-13c-1.7-5.43-3.47-7.42-4-8
	c-0.44-0.47-2.48-2.62-6-4c-2.09-0.82-7.62-2.99-12,0c-2.96,2.02-3.82,5.32-4,6c-0.21,0.79-0.69,2.75,0,5c0.34,1.1,0.75,2.44,2,3
	c1.38,0.62,3.06-0.04,4-1c0.78-0.79,1.51-2.24,1-3c-0.57-0.86-2.19-0.03-3-1c-0.66-0.78-0.26-2.12,0-3c0.17-0.58,0.61-1.99,2-3
	c1.2-0.88,2.45-0.97,3-1c0.5-0.03,1.49-0.03,4,1c1.92,0.79,2.93,1.2,4,2c2.69,2.01,3.7,4.95,4,6c0.96,3.34-0.5,3.95,0,10
	c0.17,2.09,0.58,3.73,0,4c-0.82,0.38-2.14-2.68-5-3c-0.22-0.02-2.26-0.22-3,1c-0.35,0.58-0.35,1.38,0,2c0.43,0.77,1.41,1.25,2,1
	c0.45-0.19,0.4-0.75,1-1c0.03-0.01,0.51-0.21,1,0c0.79,0.33,0.93,1.45,1,2c0.04,0.34,0.08,0.64,0,1c-0.05,0.22-0.29,1.11-2,2
	c-1.71,0.89-3.35,0.98-4,1c-3.61,0.12-6.46-0.82-7-1c-5-1.67-8.29-4.6-11-7c-0.35-0.31-2.02-1.8-4-4c-1.69-1.88-3.02-3.61-4-5
	c-0.78-0.74-0.92-0.8-1-1c-0.37-0.9,1.37-2.41,2-3c1.63-1.53,2.42-3.35,4-7c1.34-3.1,0.52-3.28,2-10c1.05-4.75,1.43-4.5,2-8
	c0.67-4.09,0.2-4.73,1-8c0.66-2.72,1.19-4.87,3-7c1.94-2.28,4.29-3.28,6-4c1.4-0.59,2.65-0.92,4-1c1.25-0.07,3.3-0.19,4,1
	c0.34,0.59,0.31,1.4,0,2c-0.6,1.16-1.85,0.77-3,2c-0.79,0.84-1.1,2.01-1,3c0.03,0.32,0.04,0.85,0.38,1.38
	c0.03,0.05,0.1,0.15,0.19,0.26c-0.39,0.49-0.65,0.86-0.81,1.11c-0.25,0.08-0.58,0.19-1.02,0.34c-0.44,0.15-1.24,0.41-1.24,0.41
	c0,0-0.79,0.32-1.68,0.56c-0.26,0.07-0.52,0.15-0.77,0.23c-0.38,0.11-0.47,0.13-0.55,0.21c-0.22,0.24-0.07,0.68,0,1c0,0,0,0.67,0,2
	c0,0.12,0,4,0,4c0,0.62,0,4.42,0,4.51c0,0.24,0.02,0.48,0,0.72c-0.04,0.41-0.13,0.63,0,0.77c0.1,0.11,0.25,0.11,0.36,0.12
	c0.35,0.02,0.51-0.2,0.64-0.12c0.11,0.07,0.1,0.29,0.09,0.44c-0.02,0.33-0.17,0.45-0.09,0.56c0.09,0.14,0.39,0.1,0.51,0.09
	c0.3-0.03,0.39-0.15,0.49-0.09c0.12,0.08,0.1,0.34,0.08,0.54c-0.03,0.32-0.11,0.37-0.08,0.46c0.11,0.31,1.29,0.05,3,0
	c0.86-0.02,1.99,0,2,0c0,0,1,0,1,0c0,0,0.69-0.65,1-1c0.41-0.46,0.61-0.91,1-2c0.52-1.44,0.88-2.61,1-3c0.4-1.29,0.64-2.14,1-3
	c0.3-0.72,0.61-1.3,0.61-1.3c0.28-0.53,0.3-0.48,0.39-0.7c0.03-0.09,0.43-1.1,0-2c-0.21-0.43-0.52-0.66-1-1
	c-1.62-1.14-2.44-1.71-3-2c-0.34-0.17-0.64-0.32-0.91-0.46c0.1-0.33,0.17-0.68,0.22-1.03c0.53-0.21,0.99-0.56,1.19-1.01
	c0.37-0.83-0.38-1.42,0-2c0.58-0.88,2.5,0.16,4-1c0.55-0.43,0.44-0.68,1-1c1.01-0.58,2.21-0.22,3,0c1.64,0.45,3.38,0.47,5,1
	c2.81,0.92,4.5,0.77,15,3c3.7,0.78,21.87,4.7,24,4c0.1-0.03,0.74-0.27,1,0c0.19,0.2,0.07,0.56,0,1c0,0.01,0,0,0,2
	c0,3.89-0.01,4.57,0,5c0.06,2.82,1.14,5.14,2,7c1.59,3.43,3.53,5.42,7,9c1.91,1.96,5.62,5.79,7.06,6.28
	c0.15,0.05,0.77,0.23,0.94,0.72c0.13,0.36-0.09,0.6,0,1c0.13,0.56,0.73,0.81,1,1c1.12,0.8,0.91,3.75,0,6c-1.17,2.9-2.87,3.08-3,5
	c-0.11,1.66,1.07,2.99,2,4c3.66,4,6.59,2.48,11,6c3.15,2.51,5.68,6.49,6,7c0.63,0.99,1.42,2.39,3,4c1.29,1.31,1.61,1.24,2,2
	c1.1,2.16-0.97,3.68,0,6c0.47,1.13,1.4,1.81,3,3c1.06,0.79,1.59,1.18,2,1c1.06-0.47,0.44-4.18,0-6c-0.11-0.46-0.36-1.38-1-3
	c-0.47-1.19-1.39-3.47-3-6c-2.1-3.32-4.35-5.45-6-7c-2.78-2.6-4.72-4.42-7-6c-0.41-0.28-1.83-1.25-3-3c-0.33-0.49-0.73-1.1-1-2
	c-0.39-1.29-0.25-2.34,0-4c0.15-0.98,0.35-2.33,1-4c0.99-2.55,1.58-2.21,2-4c0.32-1.37,0.18-2.43,1-4c0.26-0.5,0.61-1.02,1-1
	c0.37,0.02,0.48,0.49,1,1c0.66,0.64,1.18,0.57,2,1c0.17,0.09,1.67,0.87,2,2c0.72,2.46-4.29,5.89-4.8,6.25
	c-0.68,0.47-1.2,0.75-1.2,0.75c-1.37,0.76-1.77,0.65-2,1c-0.6,0.9,0.82,3.41,3,5c1.49,1.08,2.19,0.91,5,2c2.9,1.12,2.45,1.42,6,3
	c3.5,1.55,7,3,7,3c1.51,0.62,2.44,0.99,3,2c0.93,1.68,0.08,3.81,0,4c-0.42,1.01-1.24,2.04-2,3c-0.13,0.16-0.72,0.9-1,2
	c-0.18,0.7-0.07,0.91,0,1c0.34,0.45,1.35,0.27,2,0c0.76-0.32,1.19-0.85,2-2c1.25-1.78,2-3,2-3c1.89-3.11,1.98-3.57,2-4
	c0.01-0.18,0.05-1.73-1-3c-0.87-1.06-1.86-1.14-4-2c-1.56-0.63-2.61-1.22-4-2c-3.94-2.22-3.4-2.99-6-4c-1.55-0.6-2.77-0.74-4-2
	c-0.38-0.39-1.14-1.18-1-2c0.19-1.06,1.75-1.46,3-2c4.29-1.84,6.41-5.88,7-7c0.37-0.7,2.61-5.13,1-7c-0.58-0.67-1.52-0.84-2-2
	c-0.37-0.88-0.29-1.9,0-2c0.37-0.12,0.67,1.43,2,2c0.97,0.41,1.53-0.1,3,0c1.33,0.09,1.69,0.57,3,1c1.88,0.62,2.69,0.14,7,0
	c0,0,1.33,0,4,0c3.47,0,6.93,0,10.4,0c0.91,0,1.37,0,1.37,0c0.85-0.05,1.05-0.16,1.23,0c0.5,0.43,0,1.99,0,2c0,0,0.59-0.11,1,0
	c0.34,0.1,0.38,0.31,1,1c0.03,0.03-0.01-0.01,1,1c0.99,0.99,0.97,0.97,1,1c0.79,0.66,1.15,0.48,2,1c1.09,0.66,0.81,1.16,2,2
	c0.15,0.1,0.76,0.4,2,1c1.27,0.61,1.9,0.92,2,1c1.08,0.88,1.1,1.81,2,2c0.5,0.11,0.63-0.14,1,0c0.82,0.32,1.09,1.86,1,3
	c-0.11,1.4-0.76,2.1-2,4c-2.4,3.67-1.71,3.71-3,5c-1.56,1.56-3.38,2.32-5,3c-0.28,0.12-1.38,0.57-3,1c-2.41,0.64-7.11,1.89-10,1
	c-0.22-0.07-1.12-0.36-2,0c-0.06,0.02-1,0.42-1,1c0,0.37,0.38,0.68,1,1c1.69,0.89,3.39,0.98,4,1c3.3,0.13,3.29-0.24,5,0
	c2.4,0.34,2.5,1.08,4,1c0.52-0.03,1.69-0.17,5-3c1.64-1.4,3.23-2.75,5-5c2.11-2.67,2.12-3.6,4-5c0.72-0.54,1-0.61,3-2
	c2-1.39,2.7-2,3-3c0.08-0.27,0.34-1.12,0-2c-0.6-1.58-2.29-1.18-4-3c-1.12-1.19-0.63-1.61-2-3c-0.67-0.68-1.2-0.99-2-2
	c-0.53-0.66-1.26-1.58-1-2c0.24-0.39,1.21-0.14,2,0c1.18,0.22,2.79,0.14,6,0c1.81-0.08,3.21-0.39,6-1c3.95-0.87,5.01-1.47,7-1
	c1.35,0.32,2.96,1.09,3,2c0.03,0.63-0.7,0.84-1,2c-0.21,0.79,0.02,1.16,0,2c-0.02,1.24-0.53,2.04-1,3c-1.43,2.89-0.72,3.43-2,6
	c-1.01,2.04-1.63,3.28-3,4c-2.33,1.23-4.09-0.5-7,1c-1.43,0.74-1.85,1.59-2,2c-0.07,0.19-0.52,1.4,0,2c0.73,0.84,2.74-0.24,6-1
	c4.67-1.09,5.24,0.04,7-1c2.01-1.18,2.67-4.12,4-10c1.08-4.77,1.41-8.86,3-11c0.1-0.13,0.66-0.88,1-2c0.17-0.57,0.62-2.06,0-3
	c-0.63-0.95-2.12-0.97-3-1c-7.74-0.26-8.4-2.92-14-2c-1.72,0.28-3.32,0.81-4,0c-0.53-0.63-0.27-1.78,0-3c0.38-1.72,0.85-1.87,1-3
	c0.2-1.49-0.55-1.79-1-4c-0.4-1.97-0.19-3.59,0-5c0.18-1.33,0.34-2.57,1-4c0.91-1.98,1.89-2.41,3-4c1.43-2.05,1.2-3.35,2-6
	c1.75-5.78,4.57-5.35,9-13c0.54-0.93,1.37-2.44,3-3c1-0.34,1.68-0.11,4,0c1.39,0.07,3.01,0.07,4,0c3.52-0.27,3.5-1.92,8-3
	c3.03-0.73,4.64-1.12,6.04-0.39c0.34,0.18,1.21,0.71,1.96,0.39c0.45-0.19,0.47-0.52,1-1c0.87-0.78,1.54-0.56,2-1
	c0.85-0.82,0.4-3.43-1-5C364.69,179.26,363.24,179.55,358.03,178.75z M166.03,225.75c-0.26,0.22-0.72-0.21-1,0
	c-0.25,0.18-0.02,0.62,0,2c0,0,0,0.33,0,1c0,1,0,1,0,1c0.03,0.71,0.13,0.87,0,1c-0.15,0.15-0.36,0-1,0c-0.64,0-0.86,0.15-1,0
	c-0.13-0.13-0.03-0.31,0-1c0.01-0.21,0-0.43,0-0.64c0-0.79,0-1.57,0-2.36c0-1,0-2,0-3c0-0.33,0-0.67,0-1s0.02-0.67,0-1
	c-0.03-0.72-0.13-0.87,0-1c0.1-0.1,0.21-0.06,1.01-0.13c0.25-0.02,0.21-0.02,0.39-0.04c0.81-0.06,1.46-0.11,1.61,0.16
	c0.02,0.05,0.01,0.05,0,0.39c-0.01,0.2,0,0.41,0,0.61c0,2,0,2.99,0,3C166.1,225.3,166.21,225.6,166.03,225.75z M170.53,221.25
	c0.33,0,0.67,0.01,1,0c0.86-0.02,0.9-0.08,1,0c0.37,0.31,0,1.37,0,2.16c0,0.37,0,0.38,0,0.38c0.02,0.3,0.06,0.38,0,0.46
	c-0.09,0.13-0.33,0.11-0.48,0.1c-0.33-0.02-0.42-0.15-0.52-0.1c-0.13,0.08-0.03,0.34,0,1c0,0,0,0.33,0,1c0,0.18,0,0.36,0,0.54
	c0,0.45,0,0.46,0,0.46c0.04,0,0.05,0,0,0v0c-0.1,0-0.4,0-0.53,0c-0.16,0-0.31,0-0.47,0c0,0-0.03,0.53,0,1.06
	c0.03,0.55,0.09,0.67,0,0.94c-0.07,0.2-0.2,0.38-0.22,0.4c-0.05,0.07-0.16,0.2-0.31,0.32c-0.28,0.21-0.37,0.14-0.47,0.28
	c-0.09,0.14-0.08,0.32-0.04,0.68c0.01,0.14,0.02,0.11,0.04,0.32c0.03,0.3,0.04,0.5,0.04,0.6c0,0.24,0,0.36-0.04,0.4
	c-0.21,0.26-1,0-1,0c-0.33,0-0.67,0-1,0c-0.2,0-0.4-0.01-0.59,0c-0.29,0.02-0.34,0.05-0.41,0c-0.16-0.12-0.05-0.47,0-1
	c0.01-0.16,0.01-0.44,0-1c-0.02-1.38-0.25-1.82,0-2c0.28-0.21,0.76,0.23,1,0c0.13-0.12,0.03-0.3,0-1c-0.02-0.33,0-0.67,0-1
	s0.02-0.67,0-1c-0.03-0.7-0.13-0.88,0-1c0.24-0.22,0.76,0.22,1,0c0.1-0.09,0.04-0.19,0-1c-0.02-0.5-0.04-0.75,0-1
	c0.02-0.16,0.05-0.25,0.05-0.43c0-0.36-0.11-0.46-0.05-0.57c0.09-0.14,0.37-0.04,1,0C169.53,221.25,169.53,221.25,170.53,221.25z
	 M82.55,270.43c0.05-0.04,0.34-0.29,0.48-0.67c0.11-0.31,0.04-0.5,0-0.97c-0.03-0.4,0-0.8,0-1.2c0-1.62,0-1.83,0-1.83
	c0,0,4.35-0.02,8,0c8.6,0.04,8.21,0.23,10,0c3.26-0.41,3.93-0.97,7-1c2.48-0.03,2.96,0.32,5,0c1.04-0.17,3.37-0.65,5-1
	c1.41-0.3,2.52-0.56,3,0c0.23,0.27,0.19,0.57,0.18,1.37c-0.02,2.08,0.23,1.92,0.14,3.03c-0.09,1.11-0.23,2.7-1.32,3.6
	c-0.31,0.25-0.42,0.23-2.32,0.87c-1.45,0.49-1.29,0.47-2.46,0.87c-0.79,0.27-2.32,0.78-4.22,1.26c-2.12,0.54-3.3,0.85-5,1
	c-1.21,0.11-2.21,0.1-4.17,0.08c-0.46,0-1.58-0.02-2.83-0.08c-3.49-0.17-5.52-0.27-8-1c-2.37-0.69-4.58-1.79-5-2
	c-0.87-0.43-1.1-0.62-2-1c-1.04-0.44-2.04-0.76-2-1C82.05,270.65,82.25,270.67,82.55,270.43z M48.92,265.6
	c0.05-0.08,0.33-0.54,0.88-1.47c1.23-2.07,1.07-2.55,1.73-2.88c0.6-0.29,1.25-0.16,2,0c0.92,0.19,1.54,0.57,1.84,0.74
	c0.79,0.45,1.91,0.72,4.16,1.26c2.44,0.59,2.54,0.36,6,1c2.37,0.44,6.26,1.27,8,1c0.11-0.02,0.53-0.09,1.09-0.11
	c0.88-0.04,1.22,0.07,1.91,0.11c1.71,0.1,2.78-0.42,3,0c0.07,0.13,0.1,0.42,0.07,0.67c-0.02,0.16-0.06,0.27-0.07,0.33
	c-0.14,0.46,0.03,0.95,0.1,1.27c0.14,0.65-0.11,0.63-0.1,1.73c0.01,1.1,0.28,1.86,0,2c-0.02,0.01-0.01,0-0.39,0
	c-0.3,0-0.61,0-0.61,0c0,0,0.25,0.75,0,1c-0.12,0.12-0.27,0.04-0.87,0c-0.37-0.02-0.75,0-1.13,0c-0.33,0-0.67,0-1,0
	c-0.47,0-0.94,0-1.41,0c-1.37,0-2.73,0-4.1,0c-2.16,0-4.33,0-6.49,0c-2,0-2,0-2,0c-0.36,0.05-0.64,0.12-1,0
	c-0.41-0.13-0.44-0.34-0.99-0.6c-0.37-0.18-0.69-0.24-0.98-0.3c-0.5-0.1-0.85-0.09-1.04-0.1c-0.88-0.05-1.52-0.64-2-1
	c-1.61-1.21-2.4-0.53-5-2c-0.67-0.38-2.12-1.22-2-2C48.55,266.09,48.63,266.02,48.92,265.6z M19.53,271.25c-0.35-0.13-0.27-2.55,1-5
	c1.45-2.78,3.85-4.48,6-6c2.03-1.43,2.86-1.61,4-3c0.49-0.6,0.97-1.34,2-2c0.77-0.49,0.9-0.34,2-1c1.14-0.68,1.48-1.13,2-1
	c0.43,0.11,0.47,0.49,1,1c0.67,0.64,1.38,0.79,2,1c1.32,0.44,2.83,1.63,5.84,4.02c0.22,0.17,0.64,0.51,1.16,0.98
	c0.61,0.56,0.91,0.84,1,1c0.8,1.42-4.98,6.17-6,7c-2.43,1.98-5.46,4.42-9,6c-1.79,0.8-3.67,1.36-5.04,1.77
	c-0.14,0.04-0.49,0.14-0.96,0.23c-1.16,0.22-2.05,0.39-3,0c-0.89-0.37-1.41-1.05-1.57-1.27c-0.16-0.22-0.32-0.43-0.43-0.73
	c-0.34-0.96-0.04-2.41,1-3c0.65-0.37,1.66-0.45,2,0c0.42,0.55-0.43,1.59,0,2c0.29,0.27,0.91,0.04,1,0c0.57-0.22,0.84-0.71,1-1
	c0.36-0.66,0.35-1.29,0.33-2.54c-0.02-1.1-0.15-1.34-0.33-1.46c-0.29-0.2-0.66-0.08-1,0c-1.51,0.35-2.03-0.19-3,0
	C20.59,268.64,19.92,271.4,19.53,271.25z M67.03,284.75c-0.35-0.16-0.77-0.52-1-1c-0.28-0.57-0.32-1.36,0-2c0.53-1.05,1.66-0.93,2-2
	c0.06-0.17,0.15-0.58,0-1c-0.38-1.02-2.06-1.53-3-1c-0.22,0.12-0.43,0.32-1,2c-0.71,2.09-1.07,3.14-1,4c0.07,0.83,0.31,1.33,0,2
	c-0.04,0.08-0.33,0.69-1,1c-0.62,0.29-1.13,0.11-2,0c0,0-1,0-3,0c-1,0-2,0-3,0s-2,0-3,0s-2,0-3,0s-2,0-3,0c-9.33,0-14,0-14,0
	c-0.28,0.05-1.06,0.22-2,0c-1.01-0.23-1.75-0.8-2-1c-0.23-0.18-0.22-0.2-1-1c0,0-0.67-0.67-2-2c-0.33-0.33-0.67-0.67-1-1
	c-1-1-1-1-1-1c-0.84-0.82-0.88-0.8-1-1c-0.46-0.78-0.32-1.9,0-2c0.25-0.08,0.48,0.5,1,1c1.07,1.03,2.63,1.02,4,1
	c1.21-0.02,2.26-0.2,5-1c3.03-0.88,4.55-1.33,6-2c2.49-1.16,4.19-2.4,5-3c0.96-0.71,1.43-1.06,1.85-1.53
	c1.09-1.24,1.52-2.55,2.15-2.47c0.13,0.02,0.12,0.07,0.8,0.48c0,0,0.24,0.14,0.73,0.41c5.78,3.16,12.47,4.11,12.47,4.11
	c5.04,0.72,9.18,0.23,11,0c2.34-0.29,5.64-0.9,6,0c0.05,0.14,0.04,0.31-0.72,1.73c-0.59,1.11-0.93,1.75-1.28,2.27
	C73.71,280.76,69.24,285.75,67.03,284.75z M124.53,288.25c-1.27,0.08-2.62,0.09-2.62,0.09c-0.76,0-0.6-0.02-1.02-0.01
	c-1.37,0.03-1.8,0.2-2.36-0.08c-0.43-0.22-0.68-0.53-0.68-0.53c-0.19-0.24-0.18-0.33-0.32-0.47c-0.18-0.17-0.43-0.24-1.25-0.18
	c-0.81,0.05-1.06,0.15-1.75,0.18c-0.4,0.02-0.67,0.01-1,0c-1.69-0.05-2.02,0.03-5,0c-1.45-0.02-1.38-0.04-1.59-0.01
	c-0.68,0.08-1.2,0.27-1.41,0.01c-0.14-0.17-0.12-0.49-0.11-0.56c0.02-0.28,0.14-0.34,0.11-0.44c-0.09-0.33-1.49-0.21-3.61-0.08
	c-0.71,0.04-1.07,0.07-1.39,0.08c-1.51,0.06-2.63,0.01-3,0c0,0-4.67,0-14,0c-2.89,0-5.89-0.79-8.66,0c-0.17,0.05-1.12,0.33-1.34,0
	c-0.18-0.27,0.19-0.87,0.42-1.24c0.11-0.18,0.26-0.39,0.58-0.76c0.51-0.58,0.96-0.96,1-1c0.81-0.7,1.97-1.92,2.89-3.19
	c0.66-0.91,1-1.59,1.11-1.81c0.06-0.11,0.38-0.79,0.64-1.59c0.07-0.21,0.12-0.39,0.19-0.64c0.14-0.57,0.09-0.64,0.17-0.77
	c0.35-0.5,1.8-0.06,2,0c0.65,0.2,0.61,0.32,2,1c0.99,0.48,1.46,0.64,1.78,0.74c0.55,0.16,0.99,0.23,1.22,0.26
	c4.25,0.64,6.38,0.96,7,1c1.26,0.09,3.51,0.06,8,0c0.41-0.01,1.65-0.02,3.3-0.03c1.1,0,1.96,0,2.39,0c1.68,0.01,1.91,0.03,2.31,0.02
	c2.21-0.02,4.01-0.65,5-1c0.7-0.25,2.25-0.81,4-2c1.77-1.2,2.58-2.25,3-2c0.39,0.24-0.2,1.21,0,3c0.14,1.26,0.6,2.19,1,3
	c0.59,1.2,0.69,0.89,2,3c0.65,1.04,1.18,2,2,3c0.28,0.34,0.5,0.6,0.84,0.94c0.81,0.78,1.18,0.85,1.16,1.06
	C129.47,287.95,125.58,288.19,124.53,288.25z M148.03,267.75c0.2-0.34,0.47-0.88,1-1c1.23-0.27,2.98,1.99,3,2c0,0,0.9,0.9,1,1
	c1.12,1.11,2.74,1.88,3,2c1.03,0.48,1.64,0.55,4,1c4.49,0.85,3.84,0.89,5,1c3.03,0.29,3.15-0.37,6,0c1,0.13,2.08,0.35,3.26,0.17
	c0.58-0.09,1.16-0.11,1.74-0.17c0.77-0.08,0.92-0.1,1,0c0.21,0.27-0.36,1.17-2,3c-1.51,1.68-2.39,2.66-4,4c-0.77,0.64-2.86,2.32-6,4
	c-0.73,0.39-5.64,2.98-9,3c0,0,0,0-1,0c-1.33,0-2.67,0-4,0c-6,0-9,0-9,0c-0.2,0.07-0.69,0.24-1,0c-0.49-0.38,0.1-1.33,0-3
	c-0.02-0.26-0.12-1.67-1-3c-0.47-0.71-0.85-0.92-1-1c-0.11-0.05-1.08-0.52-2,0c-0.67,0.38-1.23,1.23-1,2c0.2,0.69,0.95,0.98,1,1
	c0.92,0.34,1.54-0.35,2,0c0.44,0.34,0.37,1.36,0,2c-0.17,0.29-0.26,0.26-1,1c-0.72,0.72-0.72,0.84-1,1c-0.75,0.43-1.7,0.1-2,0
	c-1.3-0.45-1.7-1.43-3-3c-1.82-2.2-2.06-1.53-3-3c-1.4-2.2-0.63-3.35-2-5c-0.18-0.22-0.8-0.93-1-2c-0.09-0.5-0.14-0.77,0-1
	c0.41-0.67,1.81-0.08,5,0c0,0,0,0,3,0c2,0,1.99,0,2,0c1.98-0.03,3.74-0.89,6-2C145.45,270.07,147.16,269.23,148.03,267.75z
	 M144.03,260.75c1.43,0.94,1.82,2.36,2,3c0.11,0.4,0.14,0.72,0,1c-0.16,0.32-0.46,0.41-1,0.74c-0.03,0.02-0.37,0.28-1.06,0.79
	c-1.58,1.19-1.65,1.25-1.94,1.46c-1.39,1.03-2.08,1.54-3,2c-1.44,0.71-2.68,0.95-3,1c-0.92,0.16-0.96,0.03-4,0c0,0-1.33,0-4,0
	c-0.67,0-1.34-0.11-2,0c-0.44,0.08-0.81,0.19-1,0c-0.19-0.19-0.07-0.52,0-1c0.1-0.65,0-1.32,0-1.98c0-1.46,0-2.2,0-2.2
	c-0.02-2.52-0.15-2.54,0-2.82c0.46-0.83,1.64-0.74,5-1c3.31-0.26,4.99-0.4,6-1c1.44-0.86,3-2,3-2c0.98-0.72,1.54-1.2,2-1
	c0.56,0.24,0.26,1.16,1,2C142.61,260.41,143.01,260.08,144.03,260.75z M297.53,203.25c-0.38,0.14-1.08,0.39-2.25,0.62
	c-1.3,0.26-2.2,0.32-2.75,0.38c-3.54,0.37-3.88,1.9-7,2c-0.01,0,0,0-3,0c0,0-1.98,0-2,0c-1.33,0-2.67,0-4,0c-5.33,0-10.67,0-16,0
	c-3,0-6,0-9,0c-2.67,0-5.33,0.04-8,0c-2.14-0.03-2.31-0.06-3,0c-3.33,0.31-3.77,1.43-7,2c-1.76,0.31-3.72,0.66-6,0
	c-1.53-0.44-2.32-1.08-4-1c-0.81,0.04-2.11,0.11-3,1c-0.44,0.44-0.5,0.81-1,1c-0.85,0.33-1.65-0.35-2,0c-0.21,0.21-0.17,0.68,0,1
	c0.5,0.92,2.19,0.61,6,1c1.88,0.2,2.61,0.39,3,1c0.36,0.57,0.36,1.41,0,2c-0.09,0.15-0.48,0.74-2,1c-1.77,0.31-3.23-0.15-3.46-0.22
	c-1.85-0.57-1.26,0.04-7.54-0.78c-8.31-1.09-9.48-2.18-17-3c-3.16-0.34-8.67-0.77-12-2c-0.94-0.35-1.62-0.72-3-1
	c-2.05-0.41-3.64-0.19-4-1c-0.08-0.18-0.05-0.45,0-1c0.08-0.8,0.25-1.11,0.38-1.7c0.19-0.88,0.1-1.58-0.02-2.54
	c0,0-0.11-0.91-0.36-1.75c-0.4-1.37-2.36-4.15-6-6c-5.38-2.73-11.13-1.72-15-1c-2,0.37-7.12,1.5-13,5c-7.33,4.36-11.83,10.02-15,14
	c-4.54,5.7-6.8,8.55-7,9c-0.56,1.29-1.64,4.15-4,5c-0.31,0.11-1.46,0.53-2,0c-0.46-0.45-0.28-1.41,0-2c0.52-1.12,1.42-0.98,2-2
	c0.52-0.91,0.46-2.15,0-3c-0.53-0.97-1.23-0.79-3-2c-1.21-0.83-2.37-1.62-3-3c-0.63-1.38-0.2-2.16-1-3
	c-0.73-0.76-1.76-0.84-2.28-0.9c-1.8-0.2-4.11-1.5-8.72-4.1c-3.15-1.77-1.59-1.27-6-4c-1.56-0.97-2.9-1.74-3-3
	c-0.06-0.77,0.33-1.76,1-2c0.54-0.2,1.11,0.14,1.35,0.27c2.04,1.09,5.01,0.37,7.65-0.27c0.57-0.14,2.05-0.76,5-2
	c4.86-2.05,5.49-2.52,6-3c1.66-1.55,1.61-2.61,3-3c1.53-0.43,2.32,0.62,4,0c0.89-0.33,2-1.13,2-2c0-0.89-1.14-1.26-1-2
	c0.09-0.49,0.65-0.67,1.45-1.13c0.03-0.02,0.87-0.67,2.55-1.99c3.3-2.57,4.06-3.24,5.49-3.38c0.22-0.02,0.5-0.03,1,0
	c3.9,0.27,7.5,2.5,7.5,2.5c0.59,0.37,4.73,1.57,13,4c7.11,2.09,15.59,4.58,26,7c14.06,3.27,24.99,4.87,32.1,5.89
	c10.67,1.54,18.41,2.24,27.9,3.11c17.89,1.63,28.59,1.92,33,2c5.29,0.1,7.99,0.15,12,0c9.72-0.37,17.9-1.59,18-1
	C299.57,202.49,298.37,202.94,297.53,203.25z"/>
</svg>
